<svg width="14" height="20">
        <path d="M6.055 10.003a.48.48 0 01.42.225.512.512 0 01.038.478l-2.46 5.537 7.245-7.247H6.943a.494.494 0 01-.498-.458.443.443 0 01.05-.243l2.46-5.539-7.245 7.247h4.345zm-3.697 8.975a.481.481 0 01-.142-.068.51.51 0 01-.175-.615L5.293 11H.498a.492.492 0 01-.273-.084.497.497 0 01-.078-.767l10-10a.498.498 0 01.308-.146.452.452 0 01.326.088.459.459 0 01.205.274.468.468 0 01-.03.341L7.715 8.001H12.5c.105 0 .198.027.283.084a.431.431 0 01.177.228.49.49 0 01-.108.538l-10 10a.388.388 0 01-.162.112.53.53 0 01-.332.015z" fill="currentColor" />
</svg>