<svg
  width="22"
  height="20"
><path
      d="M18.004 16.364c.15 0 .277-.053.384-.16a.519.519 0 00.16-.384.535.535 0 00-.16-.395.529.529 0 00-.384-.16h-1.098a.522.522 0 00-.382.16.535.535 0 00-.16.395c0 .15.053.278.16.384.106.107.233.16.382.16h1.098zm0-2.184c.15 0 .277-.053.384-.16a.522.522 0 00.16-.384.522.522 0 00-.16-.383.522.522 0 00-.384-.16h-1.098a.515.515 0 00-.382.16.522.522 0 00-.16.383c0 .15.053.277.16.384.106.107.233.16.382.16h1.098zm0-2.184c.15 0 .277-.054.384-.16a.522.522 0 00.16-.383.519.519 0 00-.16-.384.522.522 0 00-.384-.16h-1.098a.515.515 0 00-.382.16.519.519 0 00-.16.384c0 .149.053.276.16.383.106.106.233.16.382.16h1.098zm0-2.185c.15 0 .277-.053.384-.158a.522.522 0 00.16-.384.519.519 0 00-.16-.384.522.522 0 00-.384-.16h-1.098a.515.515 0 00-.382.16.519.519 0 00-.16.384c0 .15.053.276.16.384a.52.52 0 00.382.158h1.098zm-3.282 6.553c.157 0 .29-.053.395-.16a.519.519 0 00.16-.384.535.535 0 00-.16-.395.539.539 0 00-.395-.16h-1.085a.526.526 0 00-.384.16.535.535 0 00-.16.395c0 .15.053.278.16.384.106.107.235.16.384.16h1.085zm0-2.184c.157 0 .29-.053.395-.16a.522.522 0 00.16-.384.522.522 0 00-.16-.383.532.532 0 00-.395-.16h-1.085a.519.519 0 00-.384.16.522.522 0 00-.16.383c0 .15.053.277.16.384.106.107.235.16.384.16h1.085zm0-2.184c.157 0 .29-.054.395-.16a.522.522 0 00.16-.383.519.519 0 00-.16-.384.532.532 0 00-.395-.16h-1.085a.519.519 0 00-.384.16.519.519 0 00-.16.384c0 .149.053.276.16.383.106.106.235.16.384.16h1.085zm0-2.185c.157 0 .29-.053.395-.158a.522.522 0 00.16-.384.519.519 0 00-.16-.384.532.532 0 00-.395-.16h-1.085a.519.519 0 00-.384.16.519.519 0 00-.16.384c0 .15.053.276.16.384a.524.524 0 00.384.158h1.085zm-3.27 6.553c.15 0 .278-.053.383-.16a.519.519 0 00.16-.384.535.535 0 00-.16-.395.523.523 0 00-.384-.16h-1.085a.526.526 0 00-.384.16.535.535 0 00-.16.395c0 .15.053.278.16.384.106.107.235.16.384.16h1.085zm0-2.184c.15 0 .278-.053.383-.16a.522.522 0 00.16-.384.522.522 0 00-.16-.383.516.516 0 00-.384-.16h-1.085a.519.519 0 00-.384.16.522.522 0 00-.16.383c0 .15.053.277.16.384.106.107.235.16.384.16h1.085zm0-2.184c.15 0 .278-.054.383-.16a.522.522 0 00.16-.383.519.519 0 00-.16-.384.516.516 0 00-.384-.16h-1.085a.519.519 0 00-.384.16.519.519 0 00-.16.384c0 .149.053.276.16.383.106.106.235.16.384.16h1.085zm0-2.185c.15 0 .278-.053.383-.158a.522.522 0 00.16-.384.519.519 0 00-.16-.384.516.516 0 00-.384-.16h-1.085a.519.519 0 00-.384.16.519.519 0 00-.16.384c0 .15.053.276.16.384a.524.524 0 00.384.158h1.085zm-3.27 6.553c.15 0 .277-.053.384-.16a.524.524 0 00.158-.384.54.54 0 00-.542-.555H7.095a.542.542 0 00-.394.16.542.542 0 00-.16.395c0 .15.054.278.16.384.107.107.238.16.394.16h1.087zm0-2.184c.15 0 .277-.053.384-.16a.527.527 0 00.158-.384.527.527 0 00-.158-.383.522.522 0 00-.384-.16H7.095a.535.535 0 00-.394.16.529.529 0 00-.16.383c0 .15.054.277.16.384.107.107.238.16.394.16h1.087zm0-2.184c.15 0 .277-.054.384-.16a.527.527 0 00.158-.383.524.524 0 00-.158-.384.522.522 0 00-.384-.16H7.095a.535.535 0 00-.394.16.526.526 0 00-.16.384c0 .149.054.276.16.383.107.106.238.16.394.16h1.087zm0-2.185c.15 0 .277-.053.384-.158a.527.527 0 00.158-.384.524.524 0 00-.158-.384.522.522 0 00-.384-.16H7.095a.535.535 0 00-.394.16.526.526 0 00-.16.384.54.54 0 00.555.542h1.086zm-3.27 6.553c.149 0 .276-.053.383-.16a.526.526 0 00.16-.384.542.542 0 00-.16-.395.529.529 0 00-.384-.16H3.813a.529.529 0 00-.383.16.542.542 0 00-.16.395c0 .15.054.278.16.384.107.107.234.16.383.16h1.098zm0-2.184c.149 0 .276-.053.383-.16a.529.529 0 00.16-.384.529.529 0 00-.16-.383.522.522 0 00-.384-.16H3.813a.522.522 0 00-.383.16.529.529 0 00-.16.383c0 .15.054.277.16.384.107.107.234.16.383.16h1.098zm0-2.184c.149 0 .276-.054.383-.16a.529.529 0 00.16-.383.526.526 0 00-.16-.384.522.522 0 00-.384-.16H3.813a.522.522 0 00-.383.16.526.526 0 00-.16.384c0 .149.054.276.16.383.107.106.234.16.383.16h1.098zm15.265 6.551c.156 0 .289-.052.394-.16a.532.532 0 00.16-.394V6.542H1.086v11.45c0 .157.055.29.16.395.107.108.238.16.395.16h18.536zM1.64 2.184a.535.535 0 00-.395.16.529.529 0 00-.16.383v2.728h19.645V2.727a.522.522 0 00-.16-.383.532.532 0 00-.394-.16H17.45v1.63c0 .15-.053.277-.16.384a.521.521 0 01-.384.158.52.52 0 01-.382-.158.522.522 0 01-.16-.383V2.184H5.455v1.63c0 .15-.054.277-.16.384a.527.527 0 01-.384.158.524.524 0 01-.383-.158.522.522 0 01-.16-.383V2.184H1.64zm18.536-1.097c.454 0 .842.16 1.162.478.32.32.48.708.48 1.162v15.266c0 .454-.16.842-.48 1.162-.32.32-.708.48-1.162.48H1.64c-.455 0-.842-.16-1.162-.48A1.588 1.588 0 010 17.993V2.727c0-.454.16-.842.478-1.162.32-.318.707-.478 1.162-.478h2.727V.544c0-.15.053-.279.16-.384A.519.519 0 014.91 0c.15 0 .277.053.384.16.106.105.16.235.16.384v.543h10.91V.544c0-.15.052-.279.16-.384a.515.515 0 01.381-.16c.15 0 .278.053.384.16.107.105.16.235.16.384v.543h2.727z"
      fill="currentColor"
    /></svg>
