<svg width="27" height="24"><path
    d="M17.21 9.358a.626.626 0 00-.192.46c0 .18.063.332.192.46a.635.635 0 00.46.193.65.65 0 00.473-.192.635.635 0 00.192-.46.635.635 0 00-.192-.461.642.642 0 00-.473-.192.626.626 0 00-.46.192m-.921 1.855a1.899 1.899 0 01-.576-1.395c0-.536.192-.997.576-1.38a1.884 1.884 0 011.38-.577c.546 0 1.011.192 1.395.576.382.384.574.845.574 1.381 0 .546-.192 1.01-.574 1.395a1.905 1.905 0 01-1.394.573 1.89 1.89 0 01-1.381-.573m-4.307-1.855a.626.626 0 00-.192.46c0 .18.063.332.192.46.126.127.28.193.458.193a.631.631 0 00.46-.192.626.626 0 00.192-.46.626.626 0 00-.192-.461.623.623 0 00-.46-.192.618.618 0 00-.458.192m-.934 1.855a1.899 1.899 0 01-.576-1.395c0-.536.192-.997.576-1.38a1.894 1.894 0 011.392-.577c.539 0 .997.192 1.381.576.384.384.576.845.576 1.381 0 .546-.192 1.01-.576 1.395a1.887 1.887 0 01-1.38.573 1.9 1.9 0 01-1.393-.573M6.74 9.358a.635.635 0 00-.192.46c0 .18.065.332.192.46a.635.635 0 00.46.193.635.635 0 00.46-.192.626.626 0 00.193-.46.626.626 0 00-.192-.461.626.626 0 00-.46-.192.626.626 0 00-.461.192m-.92 1.855a1.905 1.905 0 01-.575-1.395c0-.536.192-.997.574-1.38A1.884 1.884 0 017.2 7.86c.546 0 1.01.192 1.395.576.384.384.573.845.573 1.381 0 .546-.19 1.01-.573 1.395a1.905 1.905 0 01-1.395.573 1.89 1.89 0 01-1.38-.573M8.113 1.98c-1.351.443-2.531 1.052-3.542 1.822-1.01.772-1.806 1.676-2.39 2.71a6.643 6.643 0 00-.634 5.064 7.35 7.35 0 00.705 1.667 8.17 8.17 0 001.13 1.527 9.41 9.41 0 001.54 1.324.63.63 0 01.239.312.649.649 0 01.017.391 8.028 8.028 0 01-.574 1.47c-.163.323-.364.675-.609 1.048a8.809 8.809 0 01-.888 1.139c.426-.153.858-.328 1.292-.524a21.763 21.763 0 002.505-1.337c.393-.243.76-.478 1.1-.71a.539.539 0 01.261-.109.752.752 0 01.288.02c.622.179 1.257.314 1.905.404.648.09 1.31.133 1.981.133 1.536 0 2.978-.223 4.329-.67 1.35-.447 2.529-1.058 3.534-1.828 1.006-.773 1.8-1.674 2.385-2.704a6.632 6.632 0 00.875-3.312c0-1.167-.292-2.269-.875-3.305-.585-1.034-1.379-1.938-2.385-2.71-1.005-.77-2.184-1.379-3.534-1.822-1.35-.443-2.793-.665-4.329-.665-1.534 0-2.976.222-4.326.665M.257 22.124a.608.608 0 01-.23-.354.574.574 0 01.02-.408.646.646 0 01.275-.32 7.457 7.457 0 001.425-1.087c.397-.39.733-.777 1.01-1.156.277-.38.498-.738.66-1.074a7.43 7.43 0 00.357-.85c-.598-.461-1.13-.96-1.6-1.502a9.682 9.682 0 01-1.188-1.712 8.313 8.313 0 01-.734-1.875 7.801 7.801 0 01.005-3.949 8.625 8.625 0 01.755-1.891c.152-.3.33-.587.523-.864.197-.277.406-.546.629-.805.22-.26.46-.511.722-.755.26-.243.534-.476.825-.696a12.24 12.24 0 011.885-1.21A13.64 13.64 0 017.716.73a15.103 15.103 0 012.296-.543A15.653 15.653 0 0112.44 0c.818 0 1.626.061 2.418.186.792.124 1.56.305 2.301.543a13.294 13.294 0 014.013 2.097c.29.22.563.453.818.696.257.244.497.495.722.755a9.094 9.094 0 011.159 1.669 8.51 8.51 0 01.752 1.891 7.74 7.74 0 010 3.969 8.476 8.476 0 01-.752 1.898c-.162.29-.34.574-.53.851a9.094 9.094 0 01-.629.805 10.242 10.242 0 01-1.54 1.45c-.587.461-1.218.867-1.892 1.216-.672.35-1.379.644-2.116.882-.736.238-1.504.419-2.3.543a15.7 15.7 0 01-2.424.186c-.68 0-1.353-.044-2.012-.13a15.664 15.664 0 01-1.937-.37c-.281.188-.674.434-1.176.735-.504.303-1.065.613-1.689.927-.484.24-.953.45-1.405.633-.451.183-.886.336-1.305.46a9.12 9.12 0 01-1.189.275c-.375.06-.733.09-1.073.09a.65.65 0 01-.397-.133"
    fill="currentColor"
  /></svg>
