<svg
  width="20"
  height="20"
><path
      d="M8.857 11.43a.482.482 0 01-.088-.26l-.314-6.523a.467.467 0 01.13-.358.448.448 0 01.343-.155.488.488 0 01.363.123c.104.09.155.204.159.345l.303 6.219 4.368 2.105a.445.445 0 01.255.278.512.512 0 01-.021.393.47.47 0 01-.285.249.476.476 0 01-.377-.02l-4.64-2.235a.957.957 0 01-.11-.072.433.433 0 01-.086-.088M2.93 2.929A10.048 10.048 0 00.758 6.172a9.65 9.65 0 00-.567 1.865 10.157 10.157 0 000 3.93c.127.642.317 1.262.567 1.86.252.6.557 1.174.919 1.72a9.474 9.474 0 001.253 1.524c.468.475.976.895 1.523 1.26a9.832 9.832 0 003.58 1.478c.642.128 1.297.192 1.968.192.917 0 1.812-.124 2.68-.367.87-.245 1.686-.593 2.447-1.045a10.014 10.014 0 002.085-1.655 9.848 9.848 0 001.597-2.198.473.473 0 00.04-.375.481.481 0 00-.245-.299.466.466 0 00-.375-.038.47.47 0 00-.299.243 9.175 9.175 0 01-1.44 1.974 9.026 9.026 0 01-1.871 1.493 8.973 8.973 0 01-4.618 1.27 8.72 8.72 0 01-3.502-.708 9.176 9.176 0 01-2.86-1.929 9.069 9.069 0 01-1.935-2.861A8.754 8.754 0 01.996 10c0-1.239.237-2.404.709-3.497A9.069 9.069 0 013.64 3.642 9.176 9.176 0 016.5 1.714a8.72 8.72 0 013.502-.708 8.966 8.966 0 014.003.938 9.025 9.025 0 013.145 2.597l-1.485-.507a.465.465 0 00-.38.023.492.492 0 00-.254.289.47.47 0 00.024.381.492.492 0 00.288.254l2.852.966c.045.02.093.03.142.03a.502.502 0 00.141-.02.482.482 0 00.273-.176.474.474 0 00.107-.302V2.501a.48.48 0 00-.145-.352.49.49 0 00-.361-.147.476.476 0 00-.352.147.476.476 0 00-.147.352v1.308a10.023 10.023 0 00-3.467-2.793 10.222 10.222 0 00-2.114-.752 9.74 9.74 0 00-2.27-.263 9.88 9.88 0 00-1.969.195A9.96 9.96 0 002.93 2.929"
      fill="currentColor"
    /></svg>
