<svg
  width="21"
  height="19"
><path
      d="M1.758 6.105a1.405 1.405 0 00-.447.5l8.447 5.636c.156.107.358.16.602.16.245 0 .45-.053.612-.16l8.45-5.636a1.81 1.81 0 00-.213-.288 1.319 1.319 0 00-.246-.212l-7.958-4.859a.968.968 0 00-.287-.116 1.461 1.461 0 00-.715 0 .968.968 0 00-.287.116L1.758 6.105zM19.09 17.663c.149 0 .278-.053.383-.158a.522.522 0 00.16-.384V7.777l-8.065 5.37c-.162.114-.351.198-.564.256a2.487 2.487 0 01-1.284 0 1.96 1.96 0 01-.57-.257L1.087 7.777v9.344c0 .149.053.276.16.384a.537.537 0 00.394.158h17.45zm.447-12.486c.342.208.625.511.853.917.227.405.341.805.341 1.203v9.824c0 .454-.16.84-.48 1.16-.32.32-.707.48-1.161.48H1.64c-.454 0-.841-.16-1.161-.48-.32-.32-.48-.706-.48-1.16V7.297C0 6.9.114 6.5.34 6.094c.228-.406.511-.71.851-.917L9.151.32c.163-.105.35-.185.56-.238.209-.055.427-.08.654-.08.227 0 .446.025.651.08.205.053.395.133.564.238l7.958 4.858z"
      fill="currentColor"
    /></svg>
