<svg width="16" height="4">
        <path 
        d="M12.352 1.148A1.16 1.16 0 0012 2c0 .328.117.61.352.843.234.235.518.352.852.352.328 0 .609-.117.842-.352.235-.233.352-.515.352-.843a1.16 1.16 0 00-.352-.852 1.146 1.146 0 00-.842-.352 1.16 1.16 0 00-.852.352m.07 2.692A1.991 1.991 0 0111.203 2c0-.276.053-.537.157-.78.104-.246.245-.458.425-.638s.392-.322.637-.426c.244-.104.506-.156.782-.156s.534.052.777.156a1.991 1.991 0 011.063 1.063c.106.244.16.505.16.781s-.054.535-.16.778A2.074 2.074 0 0113.98 3.84c-.243.106-.501.16-.777.16s-.538-.054-.782-.16M6.75 1.147A1.16 1.16 0 006.398 2c0 .328.118.61.352.843.235.235.518.352.85.352.33 0 .612-.117.845-.352.235-.233.352-.515.352-.843a1.16 1.16 0 00-.352-.852A1.147 1.147 0 007.6.796c-.333 0-.616.118-.85.352m.073 2.692a2.143 2.143 0 01-.636-.43A1.959 1.959 0 015.602 2 1.975 1.975 0 016.188.582c.182-.18.394-.322.636-.426A1.95 1.95 0 017.6 0c.277 0 .536.052.779.156.24.104.453.246.636.426A1.975 1.975 0 019.6 2a1.95 1.95 0 01-.585 1.409c-.183.18-.395.322-.636.43A1.91 1.91 0 017.6 4c-.275 0-.534-.053-.776-.16M1.149 1.148A1.16 1.16 0 00.797 2c0 .328.117.61.352.843.233.235.517.352.85.352.334 0 .618-.117.853-.352.234-.233.352-.515.352-.843a1.16 1.16 0 00-.352-.852A1.16 1.16 0 002 .796c-.334 0-.618.118-.851.352m.073 2.692a2.126 2.126 0 01-.636-.43A1.959 1.959 0 010 2c0-.276.052-.537.157-.78C.26.973.404.761.587.581a2.04 2.04 0 01.635-.426A1.95 1.95 0 012 0c.276 0 .536.052.777.156.243.104.455.246.637.426A1.975 1.975 0 014 2a1.95 1.95 0 01-.585 1.409c-.182.18-.394.322-.637.43C2.536 3.947 2.276 4 2 4s-.535-.053-.778-.16" fill="currentColor" />
</svg>