<svg
  width="27"
  height="20"
><path
      d="M15.781 1.64a4.035 4.035 0 00-2.135 2.136 3.883 3.883 0 00-.314 1.55 3.966 3.966 0 001.173 2.833c.365.36.79.644 1.276.85a3.883 3.883 0 001.55.314c.555 0 1.077-.105 1.561-.313a3.979 3.979 0 001.272-.852c.36-.36.644-.784.85-1.27a3.908 3.908 0 00.314-1.563c0-.547-.104-1.062-.313-1.549a4.048 4.048 0 00-.851-1.275 3.966 3.966 0 00-2.834-1.174c-.546 0-1.062.105-1.549.314zm-.52 8.6a5.434 5.434 0 01-1.7-1.146 5.327 5.327 0 01-1.14-1.691 5.21 5.21 0 01-.415-2.078 5.342 5.342 0 011.556-3.769A5.342 5.342 0 0117.33.001a5.21 5.21 0 012.078.415 5.362 5.362 0 011.693 1.14c.48.482.863 1.05 1.145 1.7.282.651.424 1.34.424 2.07a5.14 5.14 0 01-.424 2.077A5.451 5.451 0 0121.1 9.094a5.455 5.455 0 01-1.693 1.147 5.14 5.14 0 01-2.078.424 5.145 5.145 0 01-2.069-.424zm-5.73 8.223a.638.638 0 00.468.195h14.662a.632.632 0 00.476-.195.697.697 0 00.202-.469c0-.016-.049-.267-.144-.749-.096-.48-.378-1-.847-1.555a5.085 5.085 0 00-1.184-1.023 7.319 7.319 0 00-1.576-.735c-.589-.2-1.24-.35-1.953-.45-.711-.1-1.48-.148-2.305-.148-.824 0-1.593.049-2.304.149-.711.1-1.36.249-1.947.449-.584.2-1.111.444-1.575.735a4.793 4.793 0 00-1.178 1.023c-.478.555-.762 1.075-.854 1.555-.09.482-.135.733-.135.749 0 .182.064.34.193.469zM9.998 20a1.93 1.93 0 01-1.418-.587 1.934 1.934 0 01-.586-1.42c0-.033.055-.371.162-1.009.109-.638.467-1.329 1.075-2.075.347-.436.76-.82 1.236-1.16a8.05 8.05 0 011.602-.872 9.16 9.16 0 011.134-.384c.4-.109.817-.2 1.255-.273.44-.074.9-.131 1.38-.17.482-.04.98-.06 1.491-.06.522 0 1.02.02 1.498.06.478.039.936.096 1.373.17.44.073.858.164 1.258.273.398.109.776.236 1.131.384.6.243 1.136.534 1.61.872.472.34.884.724 1.23 1.16.616.746.976 1.437 1.08 2.075.105.638.156.976.156 1.009 0 .556-.194 1.029-.585 1.42a1.934 1.934 0 01-1.42.587H10zM5.632 5.534a2.658 2.658 0 00-1.636 2.46c0 .364.072.711.21 1.036a2.658 2.658 0 001.426 1.426c.325.138.67.21 1.034.21s.71-.072 1.035-.21c.327-.14.611-.33.854-.573.242-.242.433-.527.573-.853.138-.325.209-.672.209-1.036s-.071-.709-.209-1.033a2.695 2.695 0 00-.573-.854 2.623 2.623 0 00-.854-.573 2.59 2.59 0 00-1.035-.209 2.58 2.58 0 00-1.034.209zm-.522 6.147a4.056 4.056 0 01-2.129-2.13 3.878 3.878 0 01-.31-1.557c0-.556.101-1.073.31-1.556a4.056 4.056 0 012.13-2.128c.481-.21 1-.312 1.555-.312.555 0 1.075.103 1.558.312a4.056 4.056 0 012.129 2.129c.206.482.31 1 .31 1.555 0 .556-.104 1.076-.31 1.558-.21.48-.496.904-.86 1.269a4.082 4.082 0 01-1.27.86 3.916 3.916 0 01-1.557.31 3.905 3.905 0 01-1.556-.31zM2.006 20a1.934 1.934 0 01-1.42-.587 1.934 1.934 0 01-.587-1.42c0-.024.04-.287.118-.78.078-.496.335-1.033.769-1.616a4.64 4.64 0 01.89-.904 5.726 5.726 0 011.154-.684 7.35 7.35 0 011.698-.507 11.527 11.527 0 012.038-.169h.36c.115 0 .23.004.344.013a.619.619 0 01.456.22c.122.14.178.3.169.483a.63.63 0 01-.216.455.646.646 0 01-.487.169c-.095 0-.197-.002-.306-.007a7.849 7.849 0 00-.32-.006c-1.3 0-2.311.169-3.027.502-.715.333-1.244.702-1.589 1.107-.342.404-.546.784-.61 1.14a17.48 17.48 0 01-.112.584c.009.182.076.34.202.469a.632.632 0 00.476.195h3.998c.182 0 .337.065.468.196a.644.644 0 01.194.469.66.66 0 01-.194.482.647.647 0 01-.468.196H2.006z"
      fill="currentColor"
    /></svg>
