<svg
  width="18"
  height="18"
><path
      d="M17.552 12.603a.43.43 0 01.316.132.428.428 0 01.132.317v4.5a.43.43 0 01-.132.316.436.436 0 01-.316.132h-4.5a.436.436 0 01-.317-.132.43.43 0 01-.132-.316c0-.123.044-.23.132-.317a.43.43 0 01.317-.132h3.41l-5.528-5.529a.43.43 0 01-.132-.32c0-.125.043-.233.132-.32a.428.428 0 01.316-.132.43.43 0 01.317.132l5.536 5.536v-3.418c0-.123.044-.23.132-.317a.43.43 0 01.317-.132zm0-12.603a.43.43 0 01.316.132.435.435 0 01.132.324v4.5c0 .123-.043.23-.132.317a.43.43 0 01-.316.132.43.43 0 01-.317-.132.428.428 0 01-.132-.317V1.538l-5.536 5.536a.46.46 0 01-.317.132.425.425 0 01-.17-.034.428.428 0 01-.146-.098.43.43 0 01-.132-.319c0-.126.043-.234.132-.321L16.46.905h-3.41a.43.43 0 01-.316-.132.428.428 0 01-.132-.317c0-.129.044-.237.132-.324A.43.43 0 0113.052 0h4.5zM7.067 10.934a.44.44 0 01.132.32.436.436 0 01-.132.32l-5.53 5.53H4.95a.43.43 0 01.316.131c.087.087.13.194.13.317a.435.435 0 01-.13.316.436.436 0 01-.316.132h-4.5a.434.434 0 01-.317-.132.43.43 0 01-.132-.316v-4.5c0-.123.044-.23.132-.317a.428.428 0 01.317-.132.43.43 0 01.316.132c.087.087.13.194.13.317v3.418l5.539-5.536a.428.428 0 01.316-.132.43.43 0 01.317.132zm0-4.5a.44.44 0 01.132.32.436.436 0 01-.132.32.46.46 0 01-.317.132.425.425 0 01-.17-.034.428.428 0 01-.146-.098L.896 1.538v3.418c0 .123-.044.23-.13.317a.43.43 0 01-.317.132.428.428 0 01-.317-.132A.428.428 0 010 4.956v-4.5C0 .327.044.22.132.132A.428.428 0 01.45 0h4.5a.43.43 0 01.316.132.44.44 0 01.13.324c0 .123-.043.23-.13.317a.43.43 0 01-.316.132H1.538l5.529 5.529z"
      fill="currentColor"
    /></svg>
