<svg
  width="20"
  height="14"
><path
      d="M18.36 6.143a.484.484 0 01.146.356c0 .14-.048.259-.147.357l-6.006 5.995a.382.382 0 01-.16.113.57.57 0 01-.382 0 .382.382 0 01-.16-.113.476.476 0 01-.147-.352c0-.136.049-.253.147-.35l5.147-5.146H.508a.497.497 0 01-.362-.147.485.485 0 01-.147-.352c0-.143.05-.263.147-.361a.49.49 0 01.362-.147h16.29L11.65.849a.476.476 0 01-.147-.351c0-.137.049-.254.147-.352a.482.482 0 01.352-.147c.136 0 .253.05.35.147l6.006 5.997z"
      fill="currentColor"
    /></svg>
