<svg height="512" viewBox="0 0 24 24" width="512">
  <path d="M14.5 21h-4A2.503 2.503 0 018 18.5v-2a.5.5 0 011 0v2c0 .827.673 1.5 1.5 1.5h4a.5.5 0 010 1zM10.5 11H.5a.5.5 0 010-1h10a.5.5 0 010 1z" fill="currentColor"/>
  <path d="M16 24c-1.103 0-2-.897-2-2V4c0-.86.552-1.621 1.373-1.895l6-2C21.563.037 21.778 0 22 0c1.103 0 2 .897 2 2v18c0 .859-.551 1.621-1.372 1.894l-6 2A1.877 1.877 0 0116 24zm6-23a.925.925 0 00-.3.05l-6.011 2.004A.998.998 0 0015 4v18c0 .551.449 1 1 1a.92.92 0 00.302-.051l6.01-2.003c.411-.138.688-.518.688-.946V2c0-.551-.449-1-1-1z" fill="currentColor"/>
  <path d="M8.5 5a.5.5 0 01-.5-.5v-2C8 1.122 9.122 0 10.5 0H22a.5.5 0 010 1H10.5C9.673 1 9 1.673 9 2.5v2a.5.5 0 01-.5.5zM6.5 15a.5.5 0 01-.354-.853L9.793 10.5 6.146 6.854a.5.5 0 01.707-.707l4 4a.5.5 0 010 .707l-4 4A.498.498 0 016.5 15z" fill="currentColor"/>
</svg>