<svg
  width="27"
  height="20"
><path
      d="M15.338 14.662a.654.654 0 01-.482-.196.643.643 0 01-.195-.469c0-.182.066-.338.195-.469a.662.662 0 01.482-.195h6.667c.182 0 .338.066.469.195a.638.638 0 01.196.47c0 .181-.065.34-.196.468a.638.638 0 01-.469.196h-6.667zm0-2.67a.654.654 0 01-.482-.195.647.647 0 01-.195-.469c0-.182.066-.338.195-.469a.654.654 0 01.482-.195h5.325a.63.63 0 01.469.195.638.638 0 01.195.47.638.638 0 01-.195.468.63.63 0 01-.47.196h-5.324zm0-2.668a.662.662 0 01-.482-.196.647.647 0 01-.195-.469c0-.182.066-.34.195-.469a.654.654 0 01.482-.195h5.325a.63.63 0 01.469.195.634.634 0 01.195.47.638.638 0 01-.195.468.64.64 0 01-.47.196h-5.324zm0-2.658a.654.654 0 01-.482-.196.654.654 0 01-.195-.48c0-.182.066-.34.195-.468a.654.654 0 01.482-.196h6.667c.182 0 .338.064.469.196a.634.634 0 01.196.468.645.645 0 01-.196.48.638.638 0 01-.469.196h-6.667zm-8.282-.949a1.29 1.29 0 00-.389.949c0 .364.13.678.39.938.261.26.573.39.937.39.373 0 .691-.13.951-.39s.391-.574.391-.938c0-.373-.13-.689-.39-.949a1.288 1.288 0 00-.952-.391c-.364 0-.676.129-.938.391zm3.451 7.616a.847.847 0 00-.077-.183l-.105-.182a2.022 2.022 0 00-.904-.729c-.387-.164-.863-.246-1.427-.246-.556 0-1.027.082-1.411.246a2.028 2.028 0 00-.907.73c-.042.061-.08.121-.109.181a1.116 1.116 0 00-.073.183h5.013zM6.958 9.115a2.686 2.686 0 01-.844-.567 2.6 2.6 0 01-.567-.846 2.59 2.59 0 01-.209-1.036c0-.373.07-.72.21-1.04.137-.322.326-.604.566-.847.238-.244.52-.435.844-.573.327-.14.672-.209 1.036-.209a2.642 2.642 0 011.889.782c.242.243.433.525.573.847.138.32.207.667.207 1.04a2.627 2.627 0 01-.78 1.882 2.775 2.775 0 01-.847.567c-.32.138-.669.209-1.042.209-.364 0-.709-.071-1.036-.21zm-2.297 5.547a.638.638 0 01-.47-.196.643.643 0 01-.195-.469c0-.042.025-.233.074-.573.046-.338.197-.711.448-1.12.234-.374.62-.74 1.158-1.1.54-.36 1.311-.54 2.318-.54 1.016 0 1.793.18 2.331.54.538.36.925.726 1.16 1.1.225.366.367.704.422 1.015.056.314.09.523.098.627V13.997c0 .182-.064.34-.195.469a.65.65 0 01-.483.196H4.661zM1.523 1.524a.643.643 0 00-.196.469v14.673c0 .182.067.34.196.469a.654.654 0 00.482.195h22.656a.65.65 0 00.482-.195.634.634 0 00.195-.469V1.993a.634.634 0 00-.195-.47.65.65 0 00-.482-.195H2.005a.654.654 0 00-.482.196zm.482 17.135a1.934 1.934 0 01-1.42-.586 1.925 1.925 0 01-.584-1.407V1.993C0 1.446.196.977.585.586a1.934 1.934 0 011.42-.587h22.656c.555 0 1.029.196 1.42.587.39.391.586.86.586 1.407v14.673c0 .547-.195 1.016-.586 1.407a1.934 1.934 0 01-1.42.586H2.005z"
      fill="currentColor"
    /></svg>
