<svg
  width="20"
  height="20"
><path
      d="M18.34 10.274a2.52 2.52 0 00.2-.577 2.93 2.93 0 00.073-.643c0-.17-.017-.325-.048-.466a1.131 1.131 0 00-.137-.346.48.48 0 00-.181-.18.516.516 0 00-.249-.053h-3.477a.498.498 0 01-.253-.069.527.527 0 01-.187-.187.463.463 0 01-.063-.253.533.533 0 01.073-.253c.516-.867.899-1.615 1.154-2.247.253-.631.42-1.168.497-1.611.078-.442.091-.799.04-1.069a2.316 2.316 0 00-.196-.63 1.282 1.282 0 00-.366-.41 1.419 1.419 0 00-.415-.207 6.395 6.395 0 01-.395 1.095c-.174.37-.385.744-.635 1.119-.252.373-.54.747-.87 1.118-.329.37-.692.735-1.088 1.093a16.48 16.48 0 01-2.748 1.987c-.492.284-.996.542-1.51.777a13.97 13.97 0 01-1.563.605v8.193a14.1 14.1 0 011.397.23c.39.088.73.182 1.02.284.29.1.542.203.757.306.215.105.42.209.615.314.201.11.406.215.615.311.208.099.461.185.756.26.297.075.657.133 1.08.175.424.043.947.063 1.572.063.457 0 .883-.103 1.28-.311.397-.209.595-.532.595-.967 0-.137.05-.255.147-.352a.49.49 0 01.362-.146c.058 0 .123-.03.195-.088.071-.059.143-.14.215-.244.195-.28.331-.598.41-.953.078-.355.111-.61.098-.767a.508.508 0 01-.235-.42c0-.137.048-.253.146-.35a.478.478 0 01.352-.146c.045 0 .113-.042.205-.124.092-.08.185-.221.284-.423.103-.204.185-.427.243-.675.06-.247.088-.485.088-.714 0-.116-.01-.223-.028-.321a.899.899 0 00-.078-.235c-.02-.038-.04-.062-.059-.069a.248.248 0 00-.06-.008.485.485 0 01-.352-.146.483.483 0 01-.145-.352.48.48 0 01.145-.352.478.478 0 01.352-.146c.034 0 .084-.032.152-.094.068-.061.142-.17.22-.326zM4.502 18.009c.136 0 .255-.05.351-.147A.49.49 0 005 17.5V8.505a.472.472 0 00-.147-.35.476.476 0 00-.351-.146H1.502a.484.484 0 00-.36.146.472.472 0 00-.146.35V17.5a.49.49 0 00.146.362.49.49 0 00.36.147h2.999zm14.415-6.799l.018.035c.007.01.013.022.02.035.078.137.137.292.177.469.038.175.058.366.058.574 0 .3-.039.612-.114.934-.075.322-.18.62-.316.893a3.28 3.28 0 01-.314.498c-.11.144-.23.264-.36.362.007.039.01.082.014.127.003.045.005.095.005.146 0 .26-.038.55-.117.869-.078.32-.181.615-.311.89-.137.28-.294.51-.47.693-.175.182-.36.315-.557.4a1.955 1.955 0 01-.317.747 2.22 2.22 0 01-.61.591 3.058 3.058 0 01-.875.39 3.85 3.85 0 01-1.04.137c-.69 0-1.27-.026-1.743-.078a8.792 8.792 0 01-1.205-.205 4.895 4.895 0 01-.855-.293 11.39 11.39 0 01-.699-.352 13.138 13.138 0 00-1.24-.562c-.468-.185-1.191-.337-2.168-.453-.11.273-.293.5-.546.678-.254.18-.537.268-.85.268H1.502c-.416 0-.77-.146-1.063-.438A1.45 1.45 0 010 17.5V8.505c0-.417.146-.77.44-1.063.293-.293.647-.44 1.063-.44h2.999c.3 0 .57.08.811.24.24.158.424.365.547.62a15.362 15.362 0 004.087-2.139c.42-.306.818-.628 1.196-.968a11.79 11.79 0 001.073-1.093c.32-.37.599-.74.836-1.108.238-.369.43-.73.576-1.089.147-.358.239-.7.278-1.025a.523.523 0 01.17-.313.475.475 0 01.329-.127c.318 0 .677.09 1.073.269.397.178.723.49.977.933.177.312.287.668.332 1.068.046.4.023.844-.069 1.329a8.835 8.835 0 01-.468 1.581c-.222.57-.512 1.177-.868 1.822h2.616a1.46 1.46 0 011.278.703c.112.175.195.379.25.605.055.229.084.475.084.743 0 .404-.06.8-.182 1.19-.12.392-.29.714-.512.967z"
    fill="currentColor"
/></svg>
