<svg
  width="24"
  height="20"
><path
      d="M18 12.598a.574.574 0 00-.422.176l-.774.784V9.61h.224l.972.702.972-.702h.224v3.948l-.774-.784a.574.574 0 00-.422-.176zm-1.536-7.114l.224-.69h.726L18 4.372l.586.422h.726l.224.69.586.434-.224.68.224.692-.586.432-.224.68h-.726L18 8.836l-.586-.434h-.726l-.224-.68-.586-.432.224-.692-.224-.68.586-.434zm4.09-.738l-.374-1.148h-1.208L18 2.894l-.972.704H15.82l-.374 1.148-.974.704.364 1.148-.364 1.148.974.716.152.48V15a.595.595 0 00.374.562.633.633 0 00.656-.14L18 14.052l1.372 1.37c.062.062.13.108.204.134a.64.64 0 00.34.03l.112-.024a.595.595 0 00.374-.562V8.942l.152-.48.974-.716-.364-1.148.364-1.148-.974-.704zM4.196 15.598a.57.57 0 01-.422-.176.57.57 0 01-.176-.422c0-.164.058-.304.176-.422a.579.579 0 01.422-.176h6c.172 0 .316.06.432.176a.574.574 0 01.176.422.57.57 0 01-.176.422.58.58 0 01-.432.176h-6zm0-2.39a.579.579 0 01-.422-.176.588.588 0 01-.176-.434c0-.164.058-.304.176-.422A.57.57 0 014.196 12h7.206a.57.57 0 01.422.176.574.574 0 01.176.422.588.588 0 01-.176.434.579.579 0 01-.422.176H4.196zm0-2.402a.579.579 0 01-.422-.176.574.574 0 01-.176-.422c0-.172.058-.318.176-.434a.57.57 0 01.422-.176h7.206a.57.57 0 01.422.176.585.585 0 01.176.434.574.574 0 01-.176.422.579.579 0 01-.422.176H4.196zm0-2.404a.57.57 0 01-.422-.176.567.567 0 01-.176-.42c0-.166.058-.306.176-.422a.57.57 0 01.422-.176h7.206a.57.57 0 01.422.176.568.568 0 01.176.422.567.567 0 01-.176.42.57.57 0 01-.422.176H4.196zm0-3.596a.579.579 0 01-.422-.176.574.574 0 01-.176-.422c0-.172.058-.318.176-.434a.57.57 0 01.422-.176h7.206a.57.57 0 01.422.176.585.585 0 01.176.434.574.574 0 01-.176.422.579.579 0 01-.422.176H4.196zM1.372 1.384a.568.568 0 00-.176.422v15.596a.57.57 0 00.176.422.58.58 0 00.432.176h20.392a.58.58 0 00.432-.176.57.57 0 00.176-.422V1.806a.568.568 0 00-.176-.422.58.58 0 00-.432-.176H1.804a.58.58 0 00-.432.176zm.432 17.824c-.5 0-.926-.176-1.276-.528A1.74 1.74 0 010 17.402V1.806C0 1.306.176.88.528.528.878.176 1.304 0 1.804 0h20.392c.5 0 .926.176 1.276.528.352.352.528.778.528 1.278v15.596c0 .5-.176.926-.528 1.278-.35.352-.776.528-1.276.528H1.804z"
      fill="currentColor"
    /></svg>
