<svg
  width="19"
  height="20"
><path
      d="M10.233 14.82a.426.426 0 00-.269.207 1.219 1.219 0 01-.513.464 1.573 1.573 0 01-.728.183c-.3 0-.572-.083-.817-.246a1.368 1.368 0 01-.518-.622h1.216a.42.42 0 00.307-.127.42.42 0 00.127-.306.42.42 0 00-.127-.307.42.42 0 00-.307-.127h-1.31v-.877h1.31a.42.42 0 00.307-.126.42.42 0 00.127-.307.42.42 0 00-.127-.306.42.42 0 00-.307-.127H7.388c.101-.25.275-.458.518-.625a1.42 1.42 0 01.817-.252c.25 0 .491.063.728.188.235.124.405.28.513.467a.426.426 0 00.269.208.395.395 0 00.326-.046.42.42 0 00.209-.268.396.396 0 00-.047-.327 2.08 2.08 0 00-.837-.787 2.401 2.401 0 00-1.161-.301c-.289 0-.572.053-.85.161-.279.108-.524.26-.74.458a2.3 2.3 0 00-.664 1.124h-.475a.427.427 0 00-.315.127.42.42 0 00-.128.306.42.42 0 00.128.307c.085.085.19.127.315.127h.434v.876h-.434a.427.427 0 00-.315.127.42.42 0 00-.128.306.42.42 0 00.128.307c.085.085.19.127.315.127h.475a2.226 2.226 0 00.664 1.115 2.408 2.408 0 001.59.628c.403 0 .79-.101 1.161-.306.372-.204.65-.465.837-.782a.412.412 0 00.047-.332.42.42 0 00-.209-.263.395.395 0 00-.326-.047zM5.508 5a.495.495 0 01-.509-.497c0-.137.05-.256.147-.352a.49.49 0 01.362-.147h5.996c.137 0 .254.049.352.147a.482.482 0 01.147.352c0 .136-.05.253-.147.351a.483.483 0 01-.352.145H5.508zM3.506 9.003a.485.485 0 01-.352-.146.478.478 0 01-.146-.352c0-.137.048-.254.146-.352a.478.478 0 01.352-.146h10c.137 0 .253.048.352.146a.485.485 0 01.146.352c0 .136-.05.253-.146.351a.485.485 0 01-.352.147h-10zm0-2.001a.485.485 0 01-.352-.147.478.478 0 01-.146-.352c0-.136.048-.255.146-.351a.478.478 0 01.352-.147h10c.137 0 .253.048.352.146a.482.482 0 01.146.352c0 .137-.05.254-.146.352a.485.485 0 01-.352.147h-10zm7.108 11.014c.04.007.075.02.109.039l1.776.89 1.779-.89a.552.552 0 01.448 0l1.28.635V1.816l-1.503-.752-1.779.888a.527.527 0 01-.225.05.47.47 0 01-.215-.05l-1.776-.888-1.777.888a.527.527 0 01-.45 0l-1.777-.888-1.778.888a.526.526 0 01-.448 0l-1.779-.888-1.493.752V18.69l1.278-.635a.49.49 0 01.215-.049c.079 0 .154.017.225.049l1.779.89 1.776-.89a.552.552 0 01.449 0l1.778.89 1.777-.89a.335.335 0 01.108-.039.69.69 0 01.223 0zm5.777 1.974a.412.412 0 01-.112-.04l-1.776-.889-1.779.889a.526.526 0 01-.44 0l-1.776-.889-1.777.889a.526.526 0 01-.225.048.526.526 0 01-.225-.048l-1.777-.889-1.778.889a.524.524 0 01-.223.048.526.526 0 01-.225-.048l-1.779-.889-1.776.889a.447.447 0 01-.24.053.46.46 0 01-.239-.073.483.483 0 01-.245-.428V1.504c0-.098.027-.187.079-.263a.567.567 0 01.205-.187L2.284.06A.406.406 0 012.5 0c.079 0 .154.02.225.06l1.779.888L6.279.06a.455.455 0 01.449 0l1.778.888L10.283.06a.455.455 0 01.225-.06c.078 0 .15.02.215.06l1.776.888L14.278.06a.455.455 0 01.448 0l2.002.995a.544.544 0 01.201.187.485.485 0 01.074.263v17.998c0 .09-.022.174-.065.249a.49.49 0 01-.297.235.774.774 0 01-.25.005z"
      fill="currentColor"
    /></svg>
