<?xml version="1.0" encoding="UTF-8"?>
<svg width="12px" height="20px" viewBox="0 0 12 20" version="1.1" xmlns="http://www.w3.org/2000/svg" xmlns:xlink="http://www.w3.org/1999/xlink">
    <title>Group 3</title>
    <defs>
        <polygon id="path-1" points="0 0.000166666667 11.9913333 0.000166666667 11.9913333 20 0 20"></polygon>
    </defs>
    <g id="Page-1" stroke="none" stroke-width="1" fill="none" fill-rule="evenodd">
        <g id="05-contact" transform="translate(-858.000000, -643.000000)">
            <g id="Group-3" transform="translate(858.000000, 643.000000)">
                <mask id="mask-2" fill="white">
                    <use xlink:href="#path-1"></use>
                </mask>
                <g id="Clip-2"></g>
                <path d="M5.21966667,4.16016667 C4.97633333,4.2635 4.763,4.40683333 4.57966667,4.59016667 C4.398,4.77183333 4.25466667,4.9835 4.14966667,5.22516667 C4.04633333,5.46516667 3.99466667,5.72516667 3.99466667,6.00516667 C3.99466667,6.2785 4.04633333,6.5385 4.14966667,6.78183333 C4.25466667,7.02683333 4.398,7.2385 4.57966667,7.41683333 C4.763,7.59683333 4.97633333,7.7385 5.21966667,7.84683333 C5.463,7.9535 5.723,8.0085 5.99633333,8.0085 C6.26966667,8.0085 6.528,7.9535 6.773,7.84683333 C7.01633333,7.7385 7.22966667,7.59683333 7.41133333,7.41683333 C7.59466667,7.2385 7.738,7.02683333 7.84133333,6.78183333 C7.94633333,6.5385 7.998,6.2785 7.998,6.00516667 C7.998,5.72516667 7.94633333,5.46516667 7.84133333,5.22516667 C7.738,4.9835 7.59466667,4.77183333 7.41133333,4.59016667 C7.22966667,4.40683333 7.01633333,4.2635 6.773,4.16016667 C6.528,4.05683333 6.26966667,4.0035 5.99633333,4.0035 C5.723,4.0035 5.463,4.05683333 5.21966667,4.16016667 M4.82966667,8.77016667 C4.468,8.6135 4.14966667,8.3985 3.87633333,8.12516667 C3.603,7.85183333 3.388,7.53183333 3.233,7.1685 C3.07633333,6.8035 2.998,6.41683333 2.998,6.00516667 C2.998,5.5885 3.07633333,5.1985 3.233,4.8335 C3.388,4.47016667 3.603,4.15183333 3.87633333,3.88183333 C4.14966667,3.61183333 4.468,3.3985 4.82966667,3.24183333 C5.18966667,3.08516667 5.57966667,3.0085 5.99633333,3.0085 C6.413,3.0085 6.80133333,3.08516667 7.163,3.24183333 C7.52466667,3.3985 7.84133333,3.61183333 8.11466667,3.88183333 C8.388,4.15183333 8.603,4.47016667 8.75966667,4.8335 C8.91633333,5.1985 8.99466667,5.5885 8.99466667,6.00516667 C8.99466667,6.41683333 8.91633333,6.8035 8.75966667,7.1685 C8.603,7.53183333 8.388,7.85183333 8.11466667,8.12516667 C7.84133333,8.3985 7.52466667,8.6135 7.163,8.77016667 C6.80133333,8.92516667 6.413,9.0035 5.99633333,9.0035 C5.57966667,9.0035 5.18966667,8.92516667 4.82966667,8.77016667 M4.053,1.39683333 C3.448,1.65683333 2.918,2.0135 2.46633333,2.46516667 C2.013,2.9185 1.65466667,3.4485 1.39133333,4.05683333 C1.128,4.66683333 0.996333333,5.31516667 0.996333333,6.00516667 C0.996333333,6.82016667 1.07966667,7.63683333 1.24466667,8.45683333 C1.41133333,9.27683333 1.62466667,10.0735 1.88466667,10.8451667 C2.14466667,11.6168333 2.433,12.3518333 2.74966667,13.0518333 C3.06466667,13.7518333 3.37966667,14.3851667 3.69133333,14.9518333 C3.913,15.3751667 4.13466667,15.7735 4.35466667,16.1468333 C4.57633333,16.5218333 4.788,16.8668333 4.98966667,17.1818333 C5.19133333,17.4985 5.37966667,17.7818333 5.55133333,18.0318333 C5.72466667,18.2835 5.873,18.4935 5.99633333,18.6618333 C6.11966667,18.4868333 6.268,18.2735 6.43966667,18.0218333 C6.613,17.7718333 6.79966667,17.4885 7.00133333,17.1735 C7.203,16.8568333 7.41633333,16.5101667 7.64133333,16.1335 C7.86633333,15.7551667 8.08966667,15.3585 8.30966667,14.9418333 C8.61633333,14.3685 8.92966667,13.7335 9.248,13.0368333 C9.56633333,12.3401667 9.85466667,11.6068333 10.113,10.8351667 C10.3696667,10.0635 10.5813333,9.2685 10.7463333,8.45183333 C10.913,7.63516667 10.9963333,6.82016667 10.9963333,6.00516667 C10.9963333,5.31516667 10.8646667,4.66683333 10.6013333,4.05683333 C10.3363333,3.4485 9.978,2.9185 9.52633333,2.46516667 C9.07466667,2.0135 8.54466667,1.65683333 7.93966667,1.39683333 C7.33466667,1.13683333 6.68633333,1.00516667 5.99633333,1.00516667 C5.30633333,1.00516667 4.658,1.13683333 4.053,1.39683333 M5.77633333,19.9518333 C5.708,19.9185 5.65133333,19.8735 5.60466667,19.8151667 C5.593,19.7951667 5.503,19.6768333 5.33633333,19.4585 C5.17133333,19.2401667 4.958,18.9385 4.698,18.5551667 C4.43633333,18.1701667 4.143,17.7151667 3.813,17.1868333 C3.48466667,16.6601667 3.148,16.0735 2.803,15.4301667 C2.60133333,15.0518333 2.408,14.6768333 2.22633333,14.3018333 C2.04466667,13.9268333 1.873,13.5551667 1.713,13.1835 C1.55466667,12.8118333 1.40466667,12.4468333 1.26466667,12.0851667 C1.12466667,11.7235 0.996333333,11.3668333 0.879666667,11.0151667 C0.736333333,10.5668333 0.608,10.1251667 0.498,9.69183333 C0.388,9.26016667 0.294666667,8.8335 0.219666667,8.4135 C0.144666667,7.9935 0.0896666667,7.5835 0.053,7.18183333 C0.018,6.78183333 -0.000333333333,6.39016667 -0.000333333333,6.00516667 C-0.000333333333,5.1785 0.156333333,4.40183333 0.468,3.67183333 C0.781333333,2.9435 1.20966667,2.30683333 1.753,1.7635 C2.29633333,1.2185 2.933,0.790166667 3.66133333,0.4735 C4.39133333,0.1585 5.16966667,0.000166666667 5.99633333,0.000166666667 C6.823,0.000166666667 7.60133333,0.1585 8.32966667,0.4735 C9.05966667,0.790166667 9.69633333,1.2185 10.2396667,1.7635 C10.783,2.30683333 11.2113333,2.9435 11.523,3.67183333 C11.8363333,4.40183333 11.9913333,5.1785 11.9913333,6.00516667 C11.9913333,6.39016667 11.9746667,6.78183333 11.938,7.18183333 C11.903,7.5835 11.848,7.9935 11.773,8.4135 C11.698,8.8335 11.6046667,9.26016667 11.4946667,9.69183333 C11.383,10.1251667 11.2563333,10.5668333 11.113,11.0151667 C10.9963333,11.3668333 10.868,11.7235 10.728,12.0851667 C10.588,12.4468333 10.438,12.8118333 10.278,13.1835 C10.118,13.5551667 9.948,13.9268333 9.76633333,14.3018333 C9.583,14.6768333 9.39133333,15.0518333 9.18966667,15.4301667 C8.84466667,16.0735 8.508,16.6601667 8.178,17.1868333 C7.84966667,17.7151667 7.55466667,18.1701667 7.29466667,18.5551667 C7.03466667,18.9385 6.82133333,19.2401667 6.65466667,19.4585 C6.48966667,19.6768333 6.39966667,19.7951667 6.38633333,19.8151667 C6.34133333,19.8735 6.28466667,19.9185 6.21633333,19.9518333 C6.148,19.9835 6.07466667,20.0001667 5.99633333,20.0001667 C5.918,20.0001667 5.84466667,19.9835 5.77633333,19.9518333" id="Fill-1" fill="#1D1D1B" mask="url(#mask-2)"></path>
            </g>
        </g>
    </g>
</svg>