<?xml version="1.0" encoding="UTF-8"?>
<svg width="14px" height="20px" viewBox="0 0 14 20" version="1.1" xmlns="http://www.w3.org/2000/svg" xmlns:xlink="http://www.w3.org/1999/xlink">
    <title>Group 3</title>
    <defs>
        <polygon id="path-1" points="0 0.0005 12.9980626 0.0005 12.9980626 18.9963333 0 18.9963333"></polygon>
    </defs>
    <g id="Page-1" stroke="none" stroke-width="1" fill="none" fill-rule="evenodd">
        <g id="10-QCM" transform="translate(-918.000000, -667.000000)">
            <g id="Group-3" transform="translate(918.000000, 667.000000)">
                <mask id="mask-2" fill="white">
                    <use xlink:href="#path-1"></use>
                </mask>
                <g id="Clip-2"></g>
                <path d="M6.05466667,10.003 C6.13966667,10.003 6.21966667,10.023 6.29466667,10.0613333 C6.368,10.1013333 6.42966667,10.1563333 6.47466667,10.228 C6.51966667,10.2996667 6.54633333,10.378 6.553,10.4613333 C6.55966667,10.5463333 6.54633333,10.628 6.513,10.7063333 L4.053,16.243 L11.298,8.99633333 L6.943,8.99633333 C6.858,8.99633333 6.77966667,8.978 6.70466667,8.938 C6.62966667,8.89966667 6.56966667,8.84466667 6.523,8.773 C6.478,8.70133333 6.45133333,8.623 6.44466667,8.538 C6.438,8.453 6.45466667,8.37133333 6.49466667,8.29466667 L8.95466667,2.75633333 L1.70966667,10.003 L6.05466667,10.003 Z M2.358,18.978 C2.30966667,18.9646667 2.263,18.9413333 2.21633333,18.9096667 C2.11966667,18.8446667 2.05466667,18.753 2.02133333,18.6363333 C1.98966667,18.518 1.99466667,18.4046667 2.04133333,18.2946667 L5.293,10.9996667 L0.498,10.9996667 C0.399666667,10.9996667 0.309666667,10.9713333 0.224666667,10.9163333 C0.139666667,10.8613333 0.078,10.788 0.0396666667,10.6963333 C-0.000333333333,10.598 -0.0103333333,10.5013333 0.00966666667,10.403 C0.0296666667,10.3063333 0.0746666667,10.2213333 0.146333333,10.1496667 L10.1463333,0.149666667 C10.2313333,0.0646666667 10.333,0.0163333333 10.4546667,0.003 C10.5746667,-0.0103333333 10.683,0.0196666667 10.7813333,0.0913333333 C10.8846667,0.156333333 10.953,0.246333333 10.9863333,0.364666667 C11.0196667,0.481333333 11.0096667,0.594666667 10.9563333,0.706333333 L7.71466667,8.00133333 L12.4996667,8.00133333 C12.6046667,8.00133333 12.698,8.028 12.783,8.08466667 C12.868,8.13966667 12.9263333,8.21633333 12.9596667,8.313 C12.9980626,8.40466667 13.008,8.49966667 12.988,8.59633333 C12.968,8.69466667 12.923,8.77966667 12.8513333,8.85133333 L2.85133333,18.8513333 C2.80633333,18.903 2.753,18.9396667 2.68966667,18.963 C2.628,18.9863333 2.56466667,18.9963333 2.49966667,18.9963333 C2.45466667,18.9963333 2.408,18.9913333 2.358,18.978 L2.358,18.978 Z" id="Fill-1" fill="#1D1D1B" mask="url(#mask-2)"></path>
            </g>
        </g>
    </g>
</svg>