<?xml version="1.0" encoding="UTF-8"?>
<svg width="16px" height="12px" viewBox="0 0 16 12" version="1.1" xmlns="http://www.w3.org/2000/svg" xmlns:xlink="http://www.w3.org/1999/xlink">
    <title>Fill 1 Copy</title>
    <g id="Page-1" stroke="none" stroke-width="1" fill="none" fill-rule="evenodd">
        <g id="08-formation-en-ligne" transform="translate(-188.000000, -787.000000)" fill="#FFFFFF">
            <path d="M192.246133,798.972667 C192.1968,798.954 192.154133,798.924667 192.1168,798.883333 L188.1168,794.883333 C188.039467,794.804667 187.999467,794.711333 187.999467,794.602 C187.999467,794.492667 188.039467,794.398 188.1168,794.320667 C188.195467,794.242 188.2888,794.203333 188.398133,794.203333 C188.507467,794.203333 188.602133,794.242 188.679467,794.320667 L192.398133,798.039333 L203.3208,787.116667 C203.398133,787.039333 203.4928,787.000667 203.602133,787.000667 C203.711467,787.000667 203.8048,787.039333 203.883467,787.116667 C203.9608,787.195333 203.999467,787.29 203.999467,787.402 C203.999467,787.514 203.9608,787.61 203.883467,787.687333 L192.679467,798.883333 C192.643467,798.924667 192.6008,798.954 192.551467,798.972667 C192.5008,798.991333 192.450133,799.000667 192.398133,799.000667 C192.346133,799.000667 192.295467,798.991333 192.246133,798.972667" id="Fill-1-Copy"></path>
        </g>
    </g>
</svg>