<?xml version="1.0" encoding="UTF-8"?>
<svg width="27px" height="24px" viewBox="0 0 27 24" version="1.1" xmlns="http://www.w3.org/2000/svg" xmlns:xlink="http://www.w3.org/1999/xlink">
    <title>Group 3</title>
    <defs>
        <polygon id="path-1" points="0 0.000436363636 24.8792727 0.000436363636 24.8792727 22.2569455 0 22.2569455"></polygon>
    </defs>
    <g id="Symbols" stroke="none" stroke-width="1" fill="none" fill-rule="evenodd">
        <g id="footer" transform="translate(-1184.000000, -221.000000)">
            <g id="Group-3" transform="translate(1184.000000, 221.000000)">
                <mask id="mask-2" fill="white">
                    <use xlink:href="#path-1"></use>
                </mask>
                <g id="Clip-2"></g>
                <path d="M17.2095273,9.35803636 C17.0808,9.48676364 17.0175273,9.63949091 17.0175273,9.8184 C17.0175273,9.99730909 17.0808,10.1500364 17.2095273,10.2787636 C17.3382545,10.4053091 17.4909818,10.4707636 17.6698909,10.4707636 C17.8575273,10.4707636 18.0146182,10.4053091 18.1433455,10.2787636 C18.2698909,10.1500364 18.3353455,9.99730909 18.3353455,9.8184 C18.3353455,9.63949091 18.2698909,9.48676364 18.1433455,9.35803636 C18.0146182,9.22930909 17.8575273,9.16603636 17.6698909,9.16603636 C17.4909818,9.16603636 17.3382545,9.22930909 17.2095273,9.35803636 M16.2888,11.2125818 C15.9048,10.8285818 15.7128,10.3638545 15.7128,9.8184 C15.7128,9.28167273 15.9048,8.82130909 16.2888,8.43730909 C16.6728,8.05330909 17.1331636,7.86130909 17.6698909,7.86130909 C18.2153455,7.86130909 18.6800727,8.05330909 19.0640727,8.43730909 C19.4458909,8.82130909 19.6378909,9.28167273 19.6378909,9.8184 C19.6378909,10.3638545 19.4458909,10.8285818 19.0640727,11.2125818 C18.6800727,11.5944 18.2153455,11.7864 17.6698909,11.7864 C17.1331636,11.7864 16.6728,11.5944 16.2888,11.2125818 M11.9818909,9.35803636 C11.8531636,9.48676364 11.7898909,9.63949091 11.7898909,9.8184 C11.7898909,9.99730909 11.8531636,10.1500364 11.9818909,10.2787636 C12.1084364,10.4053091 12.2611636,10.4707636 12.4400727,10.4707636 C12.6189818,10.4707636 12.7738909,10.4053091 12.9004364,10.2787636 C13.0291636,10.1500364 13.0924364,9.99730909 13.0924364,9.8184 C13.0924364,9.63949091 13.0291636,9.48676364 12.9004364,9.35803636 C12.7738909,9.22930909 12.6189818,9.16603636 12.4400727,9.16603636 C12.2611636,9.16603636 12.1084364,9.22930909 11.9818909,9.35803636 M11.0480727,11.2125818 C10.6640727,10.8285818 10.4720727,10.3638545 10.4720727,9.8184 C10.4720727,9.28167273 10.6640727,8.82130909 11.0480727,8.43730909 C11.4320727,8.05330909 11.8946182,7.86130909 12.4400727,7.86130909 C12.9789818,7.86130909 13.4371636,8.05330909 13.8211636,8.43730909 C14.2051636,8.82130909 14.3971636,9.28167273 14.3971636,9.8184 C14.3971636,10.3638545 14.2051636,10.8285818 13.8211636,11.2125818 C13.4371636,11.5944 12.9789818,11.7864 12.4400727,11.7864 C11.8946182,11.7864 11.4320727,11.5944 11.0480727,11.2125818 M6.73898182,9.35803636 C6.61243636,9.48676364 6.54698182,9.63949091 6.54698182,9.8184 C6.54698182,9.99730909 6.61243636,10.1500364 6.73898182,10.2787636 C6.86770909,10.4053091 7.02043636,10.4707636 7.19934545,10.4707636 C7.37825455,10.4707636 7.53098182,10.4053091 7.65970909,10.2787636 C7.78843636,10.1500364 7.85170909,9.99730909 7.85170909,9.8184 C7.85170909,9.63949091 7.78843636,9.48676364 7.65970909,9.35803636 C7.53098182,9.22930909 7.37825455,9.16603636 7.19934545,9.16603636 C7.02043636,9.16603636 6.86770909,9.22930909 6.73898182,9.35803636 M5.81825455,11.2125818 C5.43643636,10.8285818 5.24443636,10.3638545 5.24443636,9.8184 C5.24443636,9.28167273 5.43643636,8.82130909 5.81825455,8.43730909 C6.20225455,8.05330909 6.66261818,7.86130909 7.19934545,7.86130909 C7.7448,7.86130909 8.20952727,8.05330909 8.59352727,8.43730909 C8.97752727,8.82130909 9.16734545,9.28167273 9.16734545,9.8184 C9.16734545,10.3638545 8.97752727,10.8285818 8.59352727,11.2125818 C8.20952727,11.5944 7.7448,11.7864 7.19934545,11.7864 C6.66261818,11.7864 6.20225455,11.5944 5.81825455,11.2125818 M8.11352727,1.98130909 C6.76298182,2.42421818 5.58261818,3.03294545 4.57243636,3.80312727 C3.56225455,4.57549091 2.76589091,5.47876364 2.18116364,6.51294545 C1.59861818,7.54930909 1.30625455,8.65112727 1.30625455,9.8184 C1.30625455,10.4140364 1.38698182,11.0009455 1.54843636,11.5769455 C1.70989091,12.1507636 1.94552727,12.7071273 2.25316364,13.2438545 C2.55861818,13.7805818 2.93607273,14.2911273 3.38334545,14.7711273 C3.83061818,15.2533091 4.34552727,15.6940364 4.92370909,16.0954909 C5.03498182,16.1718545 5.11352727,16.2765818 5.16152727,16.4074909 C5.20734545,16.5405818 5.21389091,16.6714909 5.17898182,16.7980364 C5.13752727,16.9442182 5.07207273,17.1427636 4.98261818,17.4002182 C4.89098182,17.6554909 4.76661818,17.9456727 4.60516364,18.2685818 C4.44152727,18.5914909 4.2408,18.9427636 3.99643636,19.3158545 C3.75425455,19.6911273 3.45752727,20.0707636 3.10843636,20.4547636 C3.53389091,20.3020364 3.96589091,20.1274909 4.40007273,19.9311273 C4.83425455,19.7347636 5.26189091,19.5231273 5.68516364,19.2984 C6.10625455,19.0714909 6.51425455,18.8380364 6.9048,18.5936727 C7.29752727,18.3514909 7.66407273,18.1158545 8.00443636,17.8845818 C8.0808,17.8256727 8.16807273,17.7885818 8.26625455,17.7754909 C8.36443636,17.7645818 8.46043636,17.7689455 8.55425455,17.7951273 C9.17607273,17.9740364 9.81098182,18.1093091 10.4589818,18.1987636 C11.1069818,18.2882182 11.7680727,18.3318545 12.4400727,18.3318545 C13.9760727,18.3318545 15.4182545,18.1093091 16.7688,17.6620364 C18.1193455,17.2147636 19.2975273,16.6038545 20.3033455,15.8336727 C21.3091636,15.0613091 22.1033455,14.1602182 22.6880727,13.1304 C23.2706182,12.0984 23.5629818,10.9944 23.5629818,9.8184 C23.5629818,8.65112727 23.2706182,7.54930909 22.6880727,6.51294545 C22.1033455,5.47876364 21.3091636,4.57549091 20.3033455,3.80312727 C19.2975273,3.03294545 18.1193455,2.42421818 16.7688,1.98130909 C15.4182545,1.5384 13.9760727,1.31585455 12.4400727,1.31585455 C10.9062545,1.31585455 9.46407273,1.5384 8.11352727,1.98130909 M0.2568,22.1238545 C0.138981818,22.0344 0.0626181818,21.9165818 0.0277090909,21.7704 C-0.0159272727,21.6351273 -0.00938181818,21.4976727 0.0473454545,21.3624 C0.101890909,21.2249455 0.193527273,21.1202182 0.322254545,21.0416727 C0.876436364,20.7100364 1.34989091,20.3478545 1.74698182,19.9551273 C2.14407273,19.5645818 2.48007273,19.1784 2.75716364,18.7987636 C3.03425455,18.4191273 3.25461818,18.0613091 3.41607273,17.7253091 C3.57752727,17.3893091 3.69752727,17.1056727 3.77389091,16.8744 C3.17607273,16.4140364 2.64370909,15.9144 2.17461818,15.3733091 C1.70770909,14.8322182 1.31061818,14.2605818 0.985527273,13.6605818 C0.662618182,13.0584 0.418254545,12.4344 0.252436364,11.7864 C0.0844363636,11.1384 0.00152727273,10.4838545 0.00152727273,9.8184 C0.00152727273,9.14421818 0.0866181818,8.48530909 0.2568,7.83730909 C0.429163636,7.18930909 0.680072727,6.55876364 1.01170909,5.94567273 C1.16443636,5.64676364 1.34116364,5.35876364 1.53534545,5.08167273 C1.73170909,4.80458182 1.94116364,4.53621818 2.16370909,4.27658182 C2.38407273,4.01694545 2.62407273,3.76603636 2.88589091,3.52167273 C3.14552727,3.27949091 3.42043636,3.04603636 3.71061818,2.82567273 C4.2888,2.37403636 4.91716364,1.9704 5.59570909,1.61694545 C6.27207273,1.26349091 6.98116364,0.966763636 7.71643636,0.728945455 C8.45389091,0.491127273 9.21970909,0.310036364 10.0117091,0.185672727 C10.8037091,0.0613090909 11.6153455,0.000218181818 12.4400727,0.000218181818 C13.2582545,0.000218181818 14.0655273,0.0613090909 14.8575273,0.185672727 C15.6495273,0.310036364 16.4175273,0.491127273 17.1593455,0.728945455 C17.8989818,0.966763636 18.6080727,1.26349091 19.2800727,1.61694545 C19.9542545,1.9704 20.5848,2.37403636 21.1717091,2.82567273 C21.4618909,3.04603636 21.7346182,3.27949091 21.9898909,3.52167273 C22.2473455,3.76603636 22.4873455,4.01694545 22.7120727,4.27658182 C22.9389818,4.53621818 23.1484364,4.80458182 23.3404364,5.08167273 C23.5302545,5.35876364 23.7091636,5.64676364 23.8706182,5.94567273 C24.2022545,6.55876364 24.4531636,7.18930909 24.6233455,7.83730909 C24.7957091,8.48530909 24.8808,9.14421818 24.8808,9.8184 C24.8808,10.4925818 24.7957091,11.1536727 24.6233455,11.8060364 C24.4531636,12.4584 24.2022545,13.0911273 23.8706182,13.7042182 C23.7091636,13.9944 23.5302545,14.2780364 23.3404364,14.5551273 C23.1484364,14.8322182 22.9389818,15.1005818 22.7120727,15.3602182 C22.4873455,15.6198545 22.2473455,15.8707636 21.9898909,16.1151273 C21.7346182,16.3573091 21.4618909,16.5885818 21.1717091,16.8111273 C20.5848,17.2714909 19.9542545,17.6773091 19.2800727,18.0264 C18.6080727,18.3754909 17.9011636,18.6700364 17.1637091,18.9078545 C16.4284364,19.1456727 15.6604364,19.3267636 14.8640727,19.4511273 C14.0677091,19.5754909 13.2582545,19.6365818 12.4400727,19.6365818 C11.7593455,19.6365818 11.0873455,19.5929455 10.4284364,19.5078545 C9.76734545,19.4227636 9.12152727,19.3005818 8.49098182,19.1369455 C8.20952727,19.3245818 7.8168,19.5711273 7.31498182,19.8722182 C6.81098182,20.1754909 6.25025455,20.4853091 5.62625455,20.7994909 C5.14189091,21.0394909 4.6728,21.2489455 4.22116364,21.4322182 C3.76952727,21.6154909 3.33534545,21.7682182 2.91643636,21.8925818 C2.49970909,22.0169455 2.10261818,22.1085818 1.72734545,22.1674909 C1.35207273,22.2264 0.994254545,22.2569455 0.653890909,22.2569455 C0.509890909,22.2569455 0.3768,22.2133091 0.2568,22.1238545" id="Fill-1" fill="#1D1D1B" mask="url(#mask-2)"></path>
            </g>
        </g>
    </g>
</svg>