<?xml version="1.0" encoding="UTF-8"?>
<svg width="19px" height="20px" viewBox="0 0 19 20" version="1.1" xmlns="http://www.w3.org/2000/svg" xmlns:xlink="http://www.w3.org/1999/xlink">
    <title>Group 3</title>
    <defs>
        <polygon id="path-1" points="0.0005 0.0005 17.0016667 0.0005 17.0016667 20 0.0005 20"></polygon>
    </defs>
    <g id="Page-1" stroke="none" stroke-width="1" fill="none" fill-rule="evenodd">
        <g id="03-formation-detail" transform="translate(-76.000000, -1027.000000)">
            <g id="Group-3" transform="translate(76.000000, 1027.000000)">
                <mask id="mask-2" fill="white">
                    <use xlink:href="#path-1"></use>
                </mask>
                <g id="Clip-2"></g>
                <path d="M8.3155,2.96883333 C8.25383333,2.94216667 8.2005,2.90716667 8.15383333,2.86216667 C8.10216667,2.80883333 8.0655,2.75383333 8.04216667,2.6955 C8.01883333,2.63716667 8.00716667,2.57216667 8.00716667,2.5005 C8.00716667,2.4355 8.01883333,2.37216667 8.04216667,2.30883333 C8.0655,2.24716667 8.10216667,2.19383333 8.15383333,2.14883333 C8.2005,2.10216667 8.25383333,2.06716667 8.3155,2.0405 C8.37716667,2.0155 8.4405,2.00216667 8.5055,2.00216667 C8.5705,2.00216667 8.63383333,2.0155 8.69716667,2.0405 C8.75883333,2.06716667 8.81216667,2.10216667 8.85716667,2.14883333 C8.90383333,2.19383333 8.93883333,2.24716667 8.9655,2.30883333 C8.9905,2.37216667 9.00383333,2.4355 9.00383333,2.5005 C9.00383333,2.57216667 8.9905,2.63716667 8.9655,2.6955 C8.93883333,2.75383333 8.90383333,2.80883333 8.85716667,2.86216667 C8.81216667,2.90716667 8.75883333,2.94216667 8.69716667,2.96883333 C8.63383333,2.9955 8.5705,3.00716667 8.5055,3.00716667 C8.4405,3.00716667 8.37716667,2.9955 8.3155,2.96883333 L8.3155,2.96883333 Z M11.9438333,4.00383333 C11.8971667,3.82883333 11.8221667,3.67383333 11.7138333,3.5405 C11.6071667,3.40716667 11.4721667,3.29716667 11.3088333,3.21216667 C11.1138333,3.1155 10.9305,3.05716667 10.7621667,3.03716667 C10.5921667,3.01716667 10.5038333,3.00716667 10.4988333,3.00716667 C10.3621667,3.00716667 10.2438333,2.95883333 10.1471667,2.86216667 C10.0488333,2.76383333 10.0005,2.64383333 10.0005,2.5005 C10.0005,2.0905 9.85383333,1.73883333 9.5605,1.4455 C9.26716667,1.15216667 8.9155,1.0055 8.5055,1.0055 C8.08883333,1.0055 7.73383333,1.15216667 7.44216667,1.4455 C7.14883333,1.73883333 7.00216667,2.0905 7.00216667,2.5005 C7.00216667,2.64383333 6.95383333,2.76383333 6.8555,2.86216667 C6.75716667,2.95883333 6.6405,3.00716667 6.50383333,3.00716667 C6.1655,3.04716667 5.89883333,3.1155 5.70383333,3.21216667 C5.53383333,3.29716667 5.39716667,3.40716667 5.29383333,3.5405 C5.18883333,3.67383333 5.11383333,3.82883333 5.06883333,4.00383333 L11.9438333,4.00383333 Z M4.50216667,5.0005 C4.3655,5.0005 4.24883333,4.9505 4.1505,4.85383333 C4.05216667,4.7555 4.00383333,4.63883333 4.00383333,4.50216667 C4.00383333,4.0005 4.11383333,3.5605 4.3305,3.18383333 C4.54883333,2.8055 4.86716667,2.51383333 5.28383333,2.3055 C5.4205,2.2405 5.55383333,2.1855 5.68383333,2.14383333 C5.81383333,2.1005 5.93383333,2.0705 6.0455,2.0505 C6.09716667,1.76383333 6.19716667,1.4955 6.34716667,1.2455 C6.49716667,0.993833333 6.6805,0.777166667 6.89383333,0.5905 C7.10883333,0.4055 7.3555,0.2605 7.63216667,0.157166667 C7.90883333,0.0521666667 8.2005,0.0005 8.5055,0.0005 C8.81216667,0.0005 9.10216667,0.0521666667 9.3755,0.157166667 C9.64883333,0.2605 9.89383333,0.4055 10.1121667,0.5905 C10.3305,0.777166667 10.5121667,0.993833333 10.6588333,1.2455 C10.8055,1.4955 10.9088333,1.76383333 10.9671667,2.0505 C11.0705,2.0705 11.1905,2.1005 11.3238333,2.14383333 C11.4571667,2.1855 11.5921667,2.2405 11.7288333,2.3055 C12.1388333,2.51383333 12.4521667,2.80216667 12.6705,3.17383333 C12.8888333,3.5455 13.0021667,3.97716667 13.0071667,4.47216667 L13.0071667,4.48716667 L13.0071667,4.50216667 C13.0071667,4.63883333 12.9588333,4.7555 12.8621667,4.85383333 C12.7638333,4.9505 12.6438333,5.0005 12.5005,5.0005 L4.50216667,5.0005 Z M3.5055,17.0021667 C3.36883333,17.0021667 3.25216667,16.9538333 3.15383333,16.8555 C3.05716667,16.7571667 3.00716667,16.6405 3.00716667,16.5038333 C3.00716667,16.3671667 3.05716667,16.2505 3.15383333,16.1521667 C3.25216667,16.0555 3.36883333,16.0055 3.5055,16.0055 L8.5055,16.0055 C8.64216667,16.0055 8.7605,16.0555 8.85716667,16.1521667 C8.9555,16.2505 9.00383333,16.3671667 9.00383333,16.5038333 C9.00383333,16.6405 8.9555,16.7571667 8.85716667,16.8555 C8.7605,16.9538333 8.64216667,17.0021667 8.5055,17.0021667 L3.5055,17.0021667 Z M3.5055,15.0005 C3.36883333,15.0005 3.25216667,14.9505 3.15383333,14.8538333 C3.05716667,14.7555 3.00716667,14.6388333 3.00716667,14.5021667 C3.00716667,14.3655 3.05716667,14.2488333 3.15383333,14.1505 C3.25216667,14.0521667 3.36883333,14.0038333 3.5055,14.0038333 L13.5055,14.0038333 C13.6421667,14.0038333 13.7605,14.0521667 13.8571667,14.1505 C13.9555,14.2488333 14.0038333,14.3655 14.0038333,14.5021667 C14.0038333,14.6388333 13.9555,14.7555 13.8571667,14.8538333 C13.7605,14.9505 13.6421667,15.0005 13.5055,15.0005 L3.5055,15.0005 Z M3.5055,13.0071667 C3.36883333,13.0071667 3.25216667,12.9588333 3.15383333,12.8621667 C3.05716667,12.7638333 3.00716667,12.6438333 3.00716667,12.5005 C3.00716667,12.3638333 3.05716667,12.2455 3.15383333,12.1488333 C3.25216667,12.0505 3.36883333,12.0021667 3.5055,12.0021667 L13.5055,12.0021667 C13.6421667,12.0021667 13.7605,12.0505 13.8571667,12.1488333 C13.9555,12.2455 14.0038333,12.3638333 14.0038333,12.5005 C14.0038333,12.6438333 13.9555,12.7638333 13.8571667,12.8621667 C13.7605,12.9588333 13.6421667,13.0071667 13.5055,13.0071667 L3.5055,13.0071667 Z M3.5055,11.0055 C3.36883333,11.0055 3.25216667,10.9571667 3.15383333,10.8588333 C3.05716667,10.7621667 3.00716667,10.6438333 3.00716667,10.5071667 C3.00716667,10.3638333 3.05716667,10.2438333 3.15383333,10.1471667 C3.25216667,10.0488333 3.36883333,10.0005 3.5055,10.0005 L11.5038333,10.0005 C11.6405,10.0005 11.7571667,10.0488333 11.8555,10.1471667 C11.9538333,10.2438333 12.0021667,10.3638333 12.0021667,10.5071667 C12.0021667,10.6438333 11.9538333,10.7621667 11.8555,10.8588333 C11.7571667,10.9571667 11.6405,11.0055 11.5038333,11.0055 L3.5055,11.0055 Z M3.5055,8.00716667 C3.36883333,8.00716667 3.25216667,7.95883333 3.15383333,7.86216667 C3.05716667,7.76383333 3.00716667,7.64383333 3.00716667,7.5005 C3.00716667,7.36383333 3.05716667,7.2455 3.15383333,7.14883333 C3.25216667,7.0505 3.36883333,7.00216667 3.5055,7.00216667 L13.5055,7.00216667 C13.6421667,7.00216667 13.7605,7.0505 13.8571667,7.14883333 C13.9555,7.2455 14.0038333,7.36383333 14.0038333,7.5005 C14.0038333,7.64383333 13.9555,7.76383333 13.8571667,7.86216667 C13.7605,7.95883333 13.6421667,8.00716667 13.5055,8.00716667 L3.5055,8.00716667 Z M1.50383333,20.0005 C1.08716667,20.0005 0.732166667,19.8538333 0.438833333,19.5605 C0.147166667,19.2671667 0.0005,18.9155 0.0005,18.5055 L0.0005,4.50216667 C0.0005,4.09216667 0.147166667,3.7405 0.438833333,3.44716667 C0.732166667,3.15383333 1.08716667,3.00716667 1.50383333,3.00716667 L2.5005,3.00716667 C2.64383333,3.00716667 2.76383333,3.05716667 2.86216667,3.15383333 C2.95883333,3.25216667 3.00716667,3.36883333 3.00716667,3.5055 C3.00716667,3.64216667 2.95883333,3.7605 2.86216667,3.85716667 C2.76383333,3.9555 2.64383333,4.00383333 2.5005,4.00383333 L1.50383333,4.00383333 C1.36716667,4.00383333 1.2505,4.05216667 1.15216667,4.1505 C1.0555,4.24883333 1.0055,4.3655 1.0055,4.50216667 L1.0055,18.5055 C1.0055,18.6421667 1.0555,18.7605 1.15216667,18.8571667 C1.2505,18.9555 1.36716667,19.0038333 1.50383333,19.0038333 L15.5071667,19.0038333 C15.6438333,19.0038333 15.7621667,18.9555 15.8588333,18.8571667 C15.9571667,18.7605 16.0055,18.6421667 16.0055,18.5055 L16.0055,4.50216667 C16.0055,4.3655 15.9571667,4.24883333 15.8588333,4.1505 C15.7621667,4.05216667 15.6438333,4.00383333 15.5071667,4.00383333 L14.5021667,4.00383333 C14.3655,4.00383333 14.2488333,3.9555 14.1505,3.85716667 C14.0521667,3.7605 14.0038333,3.64216667 14.0038333,3.5055 C14.0038333,3.36883333 14.0521667,3.25216667 14.1505,3.15383333 C14.2488333,3.05716667 14.3655,3.00716667 14.5021667,3.00716667 L15.5071667,3.00716667 C15.9188333,3.00716667 16.2688333,3.15383333 16.5621667,3.44716667 C16.8555,3.7405 17.0021667,4.09216667 17.0021667,4.50216667 L17.0021667,18.5055 C17.0021667,18.9155 16.8555,19.2671667 16.5621667,19.5605 C16.2688333,19.8538333 15.9188333,20.0005 15.5071667,20.0005 L1.50383333,20.0005 Z" id="Fill-1" fill="#1D1D1B" mask="url(#mask-2)"></path>
            </g>
        </g>
    </g>
</svg>