<?xml version="1.0" encoding="UTF-8"?>
<svg width="20px" height="20px" viewBox="0 0 20 20" version="1.1" xmlns="http://www.w3.org/2000/svg" xmlns:xlink="http://www.w3.org/1999/xlink">
    <title>Group 3</title>
    <defs>
        <polygon id="path-1" points="0 0.000666666667 18.87 0.000666666667 18.87 20 0 20"></polygon>
    </defs>
    <g id="Page-1" stroke="none" stroke-width="1" fill="none" fill-rule="evenodd">
        <g id="03-formation-detail" transform="translate(-855.000000, -1108.000000)">
            <g id="Group-3" transform="translate(855.000000, 1108.000000)">
                <mask id="mask-2" fill="white">
                    <use xlink:href="#path-1"></use>
                </mask>
                <g id="Clip-2"></g>
                <path d="M8.8565,11.4306667 C8.82983333,11.394 8.80983333,11.3523333 8.79316667,11.3073333 C8.77816667,11.2623333 8.76983333,11.2173333 8.76816667,11.1706667 L8.45483333,4.64733333 C8.4465,4.51066667 8.48983333,4.39233333 8.58483333,4.289 C8.67983333,4.18566667 8.79316667,4.134 8.92816667,4.134 C9.06483333,4.124 9.1865,4.16733333 9.2915,4.25733333 C9.39483333,4.34733333 9.4465,4.46066667 9.44983333,4.60233333 L9.75316667,10.8206667 L14.1215,12.9256667 C14.2465,12.9806667 14.3331667,13.0723333 14.3765,13.204 C14.4215,13.3373333 14.4148333,13.4673333 14.3548333,13.5973333 C14.2965,13.7173333 14.2031667,13.8006667 14.0698333,13.8456667 C13.9381667,13.8906667 13.8131667,13.884 13.6931667,13.8256667 L9.05316667,11.5906667 C9.01483333,11.569 8.97816667,11.5456667 8.94316667,11.519 C8.90816667,11.4923333 8.87983333,11.4623333 8.8565,11.4306667 M2.92983333,2.929 C2.45483333,3.40566667 2.03816667,3.914 1.6765,4.45733333 C1.31483333,5.00233333 1.00983333,5.57233333 0.758166667,6.17233333 C0.508166667,6.77066667 0.318166667,7.39233333 0.1915,8.03733333 C0.0648333333,8.68233333 -0.000166666667,9.33566667 -0.000166666667,10.0006667 C-0.000166666667,10.6706667 0.0648333333,11.3273333 0.1915,11.9673333 C0.318166667,12.609 0.508166667,13.229 0.758166667,13.8273333 C1.00983333,14.4273333 1.31483333,15.0006667 1.6765,15.5473333 C2.03816667,16.094 2.45483333,16.6023333 2.92983333,17.0706667 C3.39816667,17.5456667 3.9065,17.9656667 4.45316667,18.3306667 C4.99983333,18.694 5.57316667,19.0006667 6.1715,19.2473333 C6.7715,19.4956667 7.3915,19.6823333 8.03316667,19.809 C8.67483333,19.9373333 9.32983333,20.0006667 10.0015,20.0006667 C10.9181667,20.0006667 11.8131667,19.8773333 12.6815,19.634 C13.5515,19.389 14.3665,19.0406667 15.1281667,18.589 C15.8898333,18.1356667 16.5848333,17.584 17.2131667,16.934 C17.8415,16.2823333 18.3731667,15.5506667 18.8098333,14.7356667 C18.8748333,14.619 18.8881667,14.494 18.8498333,14.3606667 C18.8098333,14.2273333 18.7281667,14.1273333 18.6048333,14.0623333 C18.4881667,13.9973333 18.3631667,13.984 18.2298333,14.024 C18.0948333,14.0623333 17.9965,14.144 17.9315,14.2673333 C17.5348333,14.9973333 17.0531667,15.654 16.4915,16.2406667 C15.9281667,16.8256667 15.3048333,17.324 14.6198333,17.734 C13.9365,18.144 13.2031667,18.459 12.4181667,18.6773333 C11.6331667,18.8956667 10.8281667,19.004 10.0015,19.004 C8.7565,19.004 7.58983333,18.7673333 6.49983333,18.2956667 C5.40983333,17.824 4.4565,17.1806667 3.63983333,16.3673333 C2.8215,15.554 2.17816667,14.599 1.70483333,13.5056667 C1.23316667,12.4123333 0.9965,11.244 0.9965,10.0006667 C0.9965,8.76233333 1.23316667,7.59733333 1.70483333,6.504 C2.17816667,5.41066667 2.8215,4.45566667 3.63983333,3.64233333 C4.4565,2.829 5.40983333,2.18566667 6.49983333,1.714 C7.58983333,1.24233333 8.7565,1.00566667 10.0015,1.00566667 C10.7098333,1.00566667 11.4015,1.08566667 12.0765,1.24566667 C12.7498333,1.404 13.3931667,1.63733333 14.0048333,1.944 C14.6181667,2.249 15.1881667,2.62066667 15.7198333,3.05733333 C16.2498333,3.49233333 16.7265,3.98733333 17.1498333,4.54066667 L15.6648333,4.034 C15.5348333,3.98733333 15.4081667,3.99566667 15.2848333,4.05733333 C15.1615,4.119 15.0765,4.21566667 15.0315,4.34566667 C14.9848333,4.47566667 14.9931667,4.60233333 15.0548333,4.72733333 C15.1165,4.85066667 15.2131667,4.93566667 15.3431667,4.98066667 L18.1948333,5.94733333 C18.2398333,5.96733333 18.2881667,5.97733333 18.3365,5.97733333 C18.3848333,5.97733333 18.4331667,5.97066667 18.4781667,5.95733333 C18.5881667,5.93066667 18.6798333,5.87233333 18.7515,5.78066667 C18.8231667,5.69066667 18.8581667,5.589 18.8581667,5.479 L18.8581667,2.50066667 C18.8581667,2.364 18.8098333,2.24566667 18.7131667,2.149 C18.6148333,2.05066667 18.4948333,2.00233333 18.3515,2.00233333 C18.2148333,2.00233333 18.0965,2.05066667 17.9998333,2.149 C17.9015,2.24566667 17.8531667,2.364 17.8531667,2.50066667 L17.8531667,3.809 C17.3848333,3.21566667 16.8565,2.684 16.2715,2.21233333 C15.6848333,1.74066667 15.0565,1.34066667 14.3865,1.01566667 C13.7165,0.690666667 13.0115,0.439 12.2715,0.264 C11.5315,0.0873333333 10.7748333,0.000666666667 10.0015,0.000666666667 C9.32983333,0.000666666667 8.67483333,0.0656666667 8.03316667,0.195666667 C7.3915,0.325666667 6.7715,0.514 6.1715,0.762333333 C5.57316667,1.009 4.99983333,1.31566667 4.45316667,1.679 C3.9065,2.044 3.39816667,2.46066667 2.92983333,2.929" id="Fill-1" fill="#1D1D1B" mask="url(#mask-2)"></path>
            </g>
        </g>
    </g>
</svg>