<?xml version="1.0" encoding="UTF-8"?>
<svg width="21px" height="19px" viewBox="0 0 21 19" version="1.1" xmlns="http://www.w3.org/2000/svg" xmlns:xlink="http://www.w3.org/1999/xlink">
    <title>Group 3</title>
    <defs>
        <polygon id="path-1" points="0 0.000909090909 20.7309091 0.000909090909 20.7309091 18.7607273 0 18.7607273"></polygon>
    </defs>
    <g id="Page-1" stroke="none" stroke-width="1" fill="none" fill-rule="evenodd">
        <g id="05-contact" transform="translate(-854.000000, -867.000000)">
            <g id="Group-3" transform="translate(854.000000, 867.000000)">
                <mask id="mask-2" fill="white">
                    <use xlink:href="#path-1"></use>
                </mask>
                <g id="Clip-2"></g>
                <path d="M1.75781818,6.10454545 C1.67236364,6.16090909 1.59054545,6.23181818 1.51236364,6.31727273 C1.43418182,6.40272727 1.36690909,6.49909091 1.31054545,6.60454545 L9.75781818,12.2409091 C9.91418182,12.3481818 10.116,12.4009091 10.3596364,12.4009091 C10.6050909,12.4009091 10.8105455,12.3481818 10.9723636,12.2409091 L19.4214545,6.60454545 C19.3578182,6.49909091 19.2869091,6.40272727 19.2087273,6.31727273 C19.1305455,6.23181818 19.0487273,6.16090909 18.9632727,6.10454545 L11.0050909,1.24636364 C10.9269091,1.19727273 10.8305455,1.15727273 10.7178182,1.13 C10.6032727,1.10090909 10.4869091,1.08636364 10.3650909,1.08636364 C10.2378182,1.08636364 10.1178182,1.10090909 10.0032727,1.13 C9.89054545,1.15727273 9.79418182,1.19727273 9.716,1.24636364 L1.75781818,6.10454545 Z M19.0905455,17.6627273 C19.2396364,17.6627273 19.3687273,17.61 19.4741818,17.5045455 C19.5814545,17.3972727 19.6341818,17.27 19.6341818,17.1209091 L19.6341818,7.77727273 L11.5687273,13.1463636 C11.4069091,13.2609091 11.2178182,13.3445455 11.0050909,13.4027273 C10.7923636,13.4590909 10.5796364,13.4881818 10.3650909,13.4881818 C10.1450909,13.4881818 9.93054545,13.4590909 9.72145455,13.4027273 C9.51236364,13.3445455 9.32145455,13.2609091 9.15054545,13.1463636 L1.08690909,7.77727273 L1.08690909,17.1209091 C1.08690909,17.27 1.13963636,17.3972727 1.24690909,17.5045455 C1.35236364,17.61 1.48509091,17.6627273 1.64145455,17.6627273 L19.0905455,17.6627273 Z M19.5378182,5.17727273 C19.8796364,5.38454545 20.1632727,5.68818182 20.3905455,6.09363636 C20.6178182,6.49909091 20.7323636,6.89909091 20.7323636,7.29727273 L20.7323636,17.1209091 C20.7323636,17.5754545 20.5723636,17.9609091 20.2523636,18.2809091 C19.9323636,18.6009091 19.5450909,18.7609091 19.0905455,18.7609091 L1.64145455,18.7609091 C1.18690909,18.7609091 0.799636364,18.6009091 0.479636364,18.2809091 C0.159636364,17.9609091 -0.000363636364,17.5754545 -0.000363636364,17.1209091 L-0.000363636364,7.29727273 C-0.000363636364,6.89909091 0.114181818,6.49909091 0.341454545,6.09363636 C0.568727273,5.68818182 0.852363636,5.38454545 1.19236364,5.17727273 L9.15054545,0.319090909 C9.31418182,0.213636364 9.50145455,0.133636364 9.71054545,0.0809090909 C9.91963636,0.0263636364 10.1378182,0.000909090909 10.3650909,0.000909090909 C10.5923636,0.000909090909 10.8105455,0.0263636364 11.016,0.0809090909 C11.2214545,0.133636364 11.4105455,0.213636364 11.5796364,0.319090909 L19.5378182,5.17727273 Z" id="Fill-1" fill="#1D1D1B" mask="url(#mask-2)"></path>
            </g>
        </g>
    </g>
</svg>