<?xml version="1.0" encoding="UTF-8"?>
<svg width="16px" height="4px" viewBox="0 0 16 4" version="1.1" xmlns="http://www.w3.org/2000/svg" xmlns:xlink="http://www.w3.org/1999/xlink">
    <title>Group 3</title>
    <defs>
        <polygon id="path-1" points="0 0.0004 15.2026667 0.0004 15.2026667 4 0 4"></polygon>
    </defs>
    <g id="Page-1" stroke="none" stroke-width="1" fill="none" fill-rule="evenodd">
        <g id="08-formation-en-ligne" transform="translate(-188.000000, -891.000000)">
            <g id="Group-3" transform="translate(188.000000, 891.000000)">
                <mask id="mask-2" fill="white">
                    <use xlink:href="#path-1"></use>
                </mask>
                <g id="Clip-2"></g>
                <path d="M12.3516,1.1484 C12.1169333,1.38306667 11.9996,1.66706667 11.9996,2.0004 C11.9996,2.3284 12.1169333,2.60973333 12.3516,2.84306667 C12.5862667,3.07773333 12.8702667,3.19506667 13.2036,3.19506667 C13.5316,3.19506667 13.8129333,3.07773333 14.0462667,2.84306667 C14.2809333,2.60973333 14.3982667,2.3284 14.3982667,2.0004 C14.3982667,1.66706667 14.2809333,1.38306667 14.0462667,1.1484 C13.8129333,0.913733333 13.5316,0.7964 13.2036,0.7964 C12.8702667,0.7964 12.5862667,0.913733333 12.3516,1.1484 M12.4222667,3.8404 C12.1769333,3.7324 11.9649333,3.58973333 11.7849333,3.40973333 C11.6049333,3.23106667 11.4636,3.01906667 11.3596,2.77773333 C11.2556,2.53506667 11.2036,2.2764 11.2036,2.0004 C11.2036,1.7244 11.2556,1.46306667 11.3596,1.21906667 C11.4636,0.973733333 11.6049333,0.761733333 11.7849333,0.581733333 C11.9649333,0.401733333 12.1769333,0.2604 12.4222667,0.1564 C12.6662667,0.0524 12.9276,0.0004 13.2036,0.0004 C13.4796,0.0004 13.7382667,0.0524 13.9809333,0.1564 C14.2222667,0.2604 14.4342667,0.401733333 14.6129333,0.581733333 C14.7929333,0.761733333 14.9356,0.973733333 15.0436,1.21906667 C15.1502667,1.46306667 15.2036,1.7244 15.2036,2.0004 C15.2036,2.2764 15.1502667,2.53506667 15.0436,2.77773333 C14.9356,3.01906667 14.7929333,3.23106667 14.6129333,3.40973333 C14.4342667,3.58973333 14.2222667,3.7324 13.9809333,3.8404 C13.7382667,3.94706667 13.4796,4.0004 13.2036,4.0004 C12.9276,4.0004 12.6662667,3.94706667 12.4222667,3.8404 M6.75026667,1.1484 C6.5156,1.38306667 6.39826667,1.66706667 6.39826667,2.0004 C6.39826667,2.3284 6.5156,2.60973333 6.75026667,2.84306667 C6.98493333,3.07773333 7.2676,3.19506667 7.60093333,3.19506667 C7.93026667,3.19506667 8.2116,3.07773333 8.44493333,2.84306667 C8.6796,2.60973333 8.79693333,2.3284 8.79693333,2.0004 C8.79693333,1.66706667 8.6796,1.38306667 8.44493333,1.1484 C8.2116,0.913733333 7.93026667,0.7964 7.60093333,0.7964 C7.2676,0.7964 6.98493333,0.913733333 6.75026667,1.1484 M6.8236,3.8404 C6.58226667,3.7324 6.37026667,3.58973333 6.1876,3.40973333 C6.00493333,3.23106667 5.86226667,3.01906667 5.75826667,2.77773333 C5.65426667,2.53506667 5.60226667,2.2764 5.60226667,2.0004 C5.60226667,1.7244 5.65426667,1.46306667 5.75826667,1.21906667 C5.86226667,0.973733333 6.00493333,0.761733333 6.1876,0.581733333 C6.37026667,0.401733333 6.58226667,0.2604 6.8236,0.1564 C7.06626667,0.0524 7.32493333,0.0004 7.60093333,0.0004 C7.87826667,0.0004 8.13693333,0.0524 8.3796,0.1564 C8.62093333,0.2604 8.83293333,0.401733333 9.0156,0.581733333 C9.19826667,0.761733333 9.34093333,0.973733333 9.44493333,1.21906667 C9.54893333,1.46306667 9.60093333,1.7244 9.60093333,2.0004 C9.60093333,2.2764 9.54893333,2.53506667 9.44493333,2.77773333 C9.34093333,3.01906667 9.19826667,3.23106667 9.0156,3.40973333 C8.83293333,3.58973333 8.62093333,3.7324 8.3796,3.8404 C8.13693333,3.94706667 7.87826667,4.0004 7.60093333,4.0004 C7.32493333,4.0004 7.06626667,3.94706667 6.8236,3.8404 M1.14893333,1.1484 C0.914266667,1.38306667 0.796933333,1.66706667 0.796933333,2.0004 C0.796933333,2.3284 0.914266667,2.60973333 1.14893333,2.84306667 C1.38226667,3.07773333 1.66626667,3.19506667 1.9996,3.19506667 C2.33293333,3.19506667 2.61693333,3.07773333 2.8516,2.84306667 C3.08626667,2.60973333 3.2036,2.3284 3.2036,2.0004 C3.2036,1.66706667 3.08626667,1.38306667 2.8516,1.1484 C2.61693333,0.913733333 2.33293333,0.7964 1.9996,0.7964 C1.66626667,0.7964 1.38226667,0.913733333 1.14893333,1.1484 M1.22226667,3.8404 C0.980933333,3.7324 0.7676,3.58973333 0.586266667,3.40973333 C0.4036,3.23106667 0.260933333,3.01906667 0.156933333,2.77773333 C0.0516,2.53506667 -0.0004,2.2764 -0.0004,2.0004 C-0.0004,1.7244 0.0516,1.46306667 0.156933333,1.21906667 C0.260933333,0.973733333 0.4036,0.761733333 0.586266667,0.581733333 C0.7676,0.401733333 0.980933333,0.2604 1.22226667,0.1564 C1.46493333,0.0524 1.7236,0.0004 1.9996,0.0004 C2.2756,0.0004 2.5356,0.0524 2.77693333,0.1564 C3.0196,0.2604 3.2316,0.401733333 3.41426667,0.581733333 C3.59693333,0.761733333 3.7396,0.973733333 3.8436,1.21906667 C3.9476,1.46306667 3.9996,1.7244 3.9996,2.0004 C3.9996,2.2764 3.9476,2.53506667 3.8436,2.77773333 C3.7396,3.01906667 3.59693333,3.23106667 3.41426667,3.40973333 C3.2316,3.58973333 3.0196,3.7324 2.77693333,3.8404 C2.5356,3.94706667 2.2756,4.0004 1.9996,4.0004 C1.7236,4.0004 1.46493333,3.94706667 1.22226667,3.8404" id="Fill-1" fill="#1D1D1B" mask="url(#mask-2)"></path>
            </g>
        </g>
    </g>
</svg>