<?xml version="1.0" encoding="UTF-8"?>
<svg width="27px" height="20px" viewBox="0 0 27 20" version="1.1" xmlns="http://www.w3.org/2000/svg" xmlns:xlink="http://www.w3.org/1999/xlink">
    <title>Group 3</title>
    <defs>
        <polygon id="path-1" points="0 0.000666666667 26.6657778 0.000666666667 26.6657778 20 0 20"></polygon>
    </defs>
    <g id="Page-1" stroke="none" stroke-width="1" fill="none" fill-rule="evenodd">
        <g id="01-accueil" transform="translate(-72.000000, -2145.000000)">
            <g id="Group-3" transform="translate(72.000000, 2145.000000)">
                <mask id="mask-2" fill="white">
                    <use xlink:href="#path-1"></use>
                </mask>
                <g id="Clip-2"></g>
                <path d="M15.7813333,1.64066667 C15.2946667,1.84955556 14.8702222,2.13622222 14.5057778,2.50066667 C14.1413333,2.86511111 13.8546667,3.28955556 13.6457778,3.77622222 C13.4368889,4.26288889 13.3324444,4.77844444 13.3324444,5.32511111 C13.3324444,5.88066667 13.4368889,6.40288889 13.6457778,6.88733333 C13.8546667,7.374 14.1413333,7.79844444 14.5057778,8.15844444 C14.8702222,8.51844444 15.2946667,8.80288889 15.7813333,9.00955556 C16.268,9.21844444 16.7835556,9.32288889 17.3302222,9.32288889 C17.8857778,9.32288889 18.408,9.21844444 18.8924444,9.00955556 C19.3791111,8.80288889 19.8035556,8.51844444 20.1635556,8.15844444 C20.5235556,7.79844444 20.808,7.374 21.0146667,6.88733333 C21.2235556,6.40288889 21.328,5.88066667 21.328,5.32511111 C21.328,4.77844444 21.2235556,4.26288889 21.0146667,3.77622222 C20.808,3.28955556 20.5235556,2.86511111 20.1635556,2.50066667 C19.8035556,2.13622222 19.3791111,1.84955556 18.8924444,1.64066667 C18.408,1.43177778 17.8857778,1.32733333 17.3302222,1.32733333 C16.7835556,1.32733333 16.268,1.43177778 15.7813333,1.64066667 L15.7813333,1.64066667 Z M15.2613333,10.2406667 C14.6102222,9.95844444 14.0435556,9.57622222 13.5613333,9.094 C13.0791111,8.614 12.6991111,8.04955556 12.4213333,7.40288889 C12.1435556,6.75622222 12.0057778,6.06288889 12.0057778,5.32511111 C12.0057778,4.59622222 12.1435556,3.90733333 12.4213333,3.25622222 C12.6991111,2.60511111 13.0791111,2.03844444 13.5613333,1.55622222 C14.0435556,1.074 14.6102222,0.694 15.2613333,0.416222222 C15.9124444,0.138444444 16.6013333,0.000666666667 17.3302222,0.000666666667 C18.068,0.000666666667 18.7613333,0.138444444 19.408,0.416222222 C20.0546667,0.694 20.6191111,1.074 21.1013333,1.55622222 C21.5813333,2.03844444 21.9635556,2.60511111 22.2457778,3.25622222 C22.528,3.90733333 22.6702222,4.59622222 22.6702222,5.32511111 C22.6702222,6.06288889 22.528,6.75622222 22.2457778,7.40288889 C21.9635556,8.04955556 21.5813333,8.614 21.1013333,9.094 C20.6191111,9.57622222 20.0546667,9.95844444 19.408,10.2406667 C18.7613333,10.5228889 18.068,10.6651111 17.3302222,10.6651111 C16.6013333,10.6651111 15.9124444,10.5228889 15.2613333,10.2406667 L15.2613333,10.2406667 Z M9.53022222,18.4628889 C9.66133333,18.594 9.81688889,18.6584444 9.99911111,18.6584444 L24.6613333,18.6584444 C24.8524444,18.6584444 25.0102222,18.594 25.1368889,18.4628889 C25.2635556,18.334 25.3302222,18.1762222 25.3391111,17.994 C25.3391111,17.9784444 25.2902222,17.7273333 25.1946667,17.2451111 C25.0991111,16.7651111 24.8168889,16.2451111 24.348,15.6895556 C24.0191111,15.2984444 23.6235556,14.9584444 23.1635556,14.6673333 C22.7035556,14.3762222 22.1791111,14.1317778 21.588,13.9317778 C20.9991111,13.7317778 20.348,13.5828889 19.6346667,13.4828889 C18.9235556,13.3828889 18.1546667,13.334 17.3302222,13.334 C16.5057778,13.334 15.7368889,13.3828889 15.0257778,13.4828889 C14.3146667,13.5828889 13.6657778,13.7317778 13.0791111,13.9317778 C12.4946667,14.1317778 11.968,14.3762222 11.5035556,14.6673333 C11.0391111,14.9584444 10.6457778,15.2984444 10.3257778,15.6895556 C9.848,16.2451111 9.56355556,16.7651111 9.47244444,17.2451111 C9.38133333,17.7273333 9.33688889,17.9784444 9.33688889,17.994 C9.33688889,18.1762222 9.40133333,18.334 9.53022222,18.4628889 L9.53022222,18.4628889 Z M9.99911111,20.0006667 C9.44355556,20.0006667 8.97244444,19.8051111 8.58133333,19.414 C8.19022222,19.0228889 7.99466667,18.5495556 7.99466667,17.994 C7.99466667,17.9606667 8.05022222,17.6228889 8.15688889,16.9851111 C8.26577778,16.3473333 8.62355556,15.6562222 9.23244444,14.9095556 C9.57911111,14.474 9.99244444,14.0895556 10.468,13.7495556 C10.9457778,13.4117778 11.4791111,13.1206667 12.0702222,12.8784444 C12.4257778,12.7295556 12.8035556,12.6028889 13.2035556,12.494 C13.6035556,12.3851111 14.0213333,12.294 14.4591111,12.2206667 C14.8991111,12.1473333 15.3591111,12.0895556 15.8391111,12.0517778 C16.3213333,12.0117778 16.8191111,11.9917778 17.3302222,11.9917778 C17.8524444,11.9917778 18.3502222,12.0117778 18.828,12.0517778 C19.3057778,12.0895556 19.7635556,12.1473333 20.2013333,12.2206667 C20.6413333,12.294 21.0591111,12.3851111 21.4591111,12.494 C21.8568889,12.6028889 22.2346667,12.7295556 22.5902222,12.8784444 C23.1902222,13.1206667 23.7257778,13.4117778 24.1991111,13.7495556 C24.6724444,14.0895556 25.0835556,14.474 25.4302222,14.9095556 C26.0457778,15.6562222 26.4057778,16.3473333 26.5102222,16.9851111 C26.6146667,17.6228889 26.6657778,17.9606667 26.6657778,17.994 C26.6657778,18.5495556 26.4724444,19.0228889 26.0813333,19.414 C25.6902222,19.8051111 25.2168889,20.0006667 24.6613333,20.0006667 L9.99911111,20.0006667 Z M5.63244444,5.534 C5.30577778,5.67177778 5.02133333,5.86288889 4.77911111,6.10733333 C4.53466667,6.34955556 4.34577778,6.634 4.20577778,6.96066667 C4.068,7.28511111 3.99688889,7.62955556 3.99688889,7.994 C3.99688889,8.35844444 4.068,8.70511111 4.20577778,9.02955556 C4.34577778,9.35622222 4.53466667,9.64066667 4.77911111,9.88288889 C5.02133333,10.1251111 5.30577778,10.3162222 5.63244444,10.4562222 C5.95688889,10.594 6.30133333,10.6651111 6.66577778,10.6651111 C7.03022222,10.6651111 7.37688889,10.594 7.70133333,10.4562222 C8.028,10.3162222 8.31244444,10.1251111 8.55466667,9.88288889 C8.79688889,9.64066667 8.988,9.35622222 9.128,9.02955556 C9.26577778,8.70511111 9.33688889,8.35844444 9.33688889,7.994 C9.33688889,7.62955556 9.26577778,7.28511111 9.128,6.96066667 C8.988,6.634 8.79688889,6.34955556 8.55466667,6.10733333 C8.31244444,5.86288889 8.028,5.67177778 7.70133333,5.534 C7.37688889,5.394 7.03022222,5.32511111 6.66577778,5.32511111 C6.30133333,5.32511111 5.95688889,5.394 5.63244444,5.534 L5.63244444,5.534 Z M5.11022222,11.6806667 C4.628,11.4717778 4.20577778,11.1851111 3.84133333,10.8206667 C3.47688889,10.4562222 3.19022222,10.0317778 2.98133333,9.55177778 C2.77244444,9.06955556 2.67022222,8.54955556 2.67022222,7.994 C2.67022222,7.43844444 2.77244444,6.92066667 2.98133333,6.43844444 C3.19022222,5.95622222 3.47688889,5.534 3.84133333,5.16955556 C4.20577778,4.80511111 4.628,4.51844444 5.11022222,4.30955556 C5.59244444,4.10066667 6.11022222,3.99844444 6.66577778,3.99844444 C7.22133333,3.99844444 7.74133333,4.10066667 8.22355556,4.30955556 C8.70355556,4.51844444 9.128,4.80511111 9.49244444,5.16955556 C9.85688889,5.534 10.1435556,5.95622222 10.3524444,6.43844444 C10.5591111,6.92066667 10.6635556,7.43844444 10.6635556,7.994 C10.6635556,8.54955556 10.5591111,9.06955556 10.3524444,9.55177778 C10.1435556,10.0317778 9.85688889,10.4562222 9.49244444,10.8206667 C9.128,11.1851111 8.70355556,11.4717778 8.22355556,11.6806667 C7.74133333,11.8873333 7.22133333,11.9917778 6.66577778,11.9917778 C6.11022222,11.9917778 5.59244444,11.8873333 5.11022222,11.6806667 L5.11022222,11.6806667 Z M2.00577778,20.0006667 C1.45022222,20.0006667 0.976888889,19.8051111 0.585777778,19.414 C0.194666667,19.0228889 -0.000888888889,18.5495556 -0.000888888889,17.994 C-0.000888888889,17.9695556 0.0391111111,17.7073333 0.116888889,17.214 C0.194666667,16.7184444 0.452444444,16.1806667 0.885777778,15.5984444 C1.13688889,15.2606667 1.43466667,14.9584444 1.77688889,14.694 C2.12133333,14.4295556 2.50355556,14.2006667 2.93022222,14.0095556 C3.43244444,13.7851111 3.99911111,13.6162222 4.628,13.5028889 C5.25911111,13.3895556 5.93688889,13.334 6.66577778,13.334 L7.02577778,13.334 C7.14133333,13.334 7.25688889,13.3384444 7.37022222,13.3473333 C7.55244444,13.354 7.70355556,13.4295556 7.82577778,13.5673333 C7.948,13.7073333 8.00355556,13.8673333 7.99466667,14.0495556 C7.98577778,14.2317778 7.91466667,14.3828889 7.77911111,14.5051111 C7.64577778,14.6273333 7.48355556,14.6828889 7.29244444,14.674 C7.19688889,14.674 7.09466667,14.6717778 6.98577778,14.6673333 C6.87688889,14.6628889 6.77022222,14.6606667 6.66577778,14.6606667 C5.36577778,14.6606667 4.35466667,14.8295556 3.63911111,15.1628889 C2.92355556,15.4962222 2.39466667,15.8651111 2.05022222,16.2695556 C1.708,16.674 1.50355556,17.054 1.43911111,17.4095556 C1.37466667,17.7651111 1.33688889,17.9606667 1.328,17.994 C1.33688889,18.1762222 1.40355556,18.334 1.53022222,18.4628889 C1.65688889,18.594 1.81466667,18.6584444 2.00577778,18.6584444 L6.00355556,18.6584444 C6.18577778,18.6584444 6.34133333,18.7228889 6.47244444,18.854 C6.60133333,18.9851111 6.66577778,19.1406667 6.66577778,19.3228889 C6.66577778,19.514 6.60133333,19.674 6.47244444,19.8051111 C6.34133333,19.934 6.18577778,20.0006667 6.00355556,20.0006667 L2.00577778,20.0006667 Z" id="Fill-1" fill="#1D1D1B" mask="url(#mask-2)"></path>
            </g>
        </g>
    </g>
</svg>