<?xml version="1.0" encoding="UTF-8"?>
<svg width="18px" height="18px" viewBox="0 0 18 18" version="1.1" xmlns="http://www.w3.org/2000/svg" xmlns:xlink="http://www.w3.org/1999/xlink">
    <title>Group 3</title>
    <defs>
        <polygon id="path-1" points="0.0003 0.00045 18 0.00045 18 18 0.0003 18"></polygon>
    </defs>
    <g id="Page-1" stroke="none" stroke-width="1" fill="none" fill-rule="evenodd">
        <g id="09-formationenligne-detail" transform="translate(-832.000000, -910.000000)">
            <g id="Group-3" transform="translate(832.000000, 910.000000)">
                <mask id="mask-2" fill="white">
                    <use xlink:href="#path-1"></use>
                </mask>
                <g id="Clip-2"></g>
                <path d="M17.5518,12.60345 C17.6748,12.60345 17.7798,12.64695 17.8683,12.73545 C17.9568,12.82245 18.0003,12.92895 18.0003,13.05195 L18.0003,17.55195 C18.0003,17.67495 17.9568,17.77995 17.8683,17.86845 C17.7798,17.95545 17.6748,18.00045 17.5518,18.00045 L13.0518,18.00045 C12.9288,18.00045 12.8238,17.95545 12.7353,17.86845 C12.6468,17.77995 12.6033,17.67495 12.6033,17.55195 C12.6033,17.42895 12.6468,17.32245 12.7353,17.23545 C12.8238,17.14695 12.9288,17.10345 13.0518,17.10345 L16.4613,17.10345 L10.9338,11.57445 C10.8453,11.48745 10.8018,11.38095 10.8018,11.25495 C10.8018,11.12895 10.8453,11.02095 10.9338,10.93395 C11.0208,10.84545 11.1273,10.80195 11.2503,10.80195 C11.3733,10.80195 11.4783,10.84545 11.5668,10.93395 L17.1033,16.47045 L17.1033,13.05195 C17.1033,12.92895 17.1468,12.82245 17.2353,12.73545 C17.3238,12.64695 17.4288,12.60345 17.5518,12.60345 L17.5518,12.60345 Z M17.5518,0.00045 C17.6748,0.00045 17.7798,0.04395 17.8683,0.13245 C17.9568,0.21945 18.0003,0.32745 18.0003,0.45645 L18.0003,4.95645 C18.0003,5.07945 17.9568,5.18595 17.8683,5.27295 C17.7798,5.36145 17.6748,5.40495 17.5518,5.40495 C17.4288,5.40495 17.3238,5.36145 17.2353,5.27295 C17.1468,5.18595 17.1033,5.07945 17.1033,4.95645 L17.1033,1.53795 L11.5668,7.07445 C11.5248,7.11645 11.4768,7.14795 11.4213,7.17195 C11.3658,7.19595 11.3088,7.20645 11.2503,7.20645 C11.1918,7.20645 11.1348,7.19595 11.0793,7.17195 C11.0223,7.14795 10.9743,7.11645 10.9338,7.07445 C10.8453,6.98745 10.8018,6.88095 10.8018,6.75495 C10.8018,6.62895 10.8453,6.52095 10.9338,6.43395 L16.4613,0.90495 L13.0518,0.90495 C12.9288,0.90495 12.8238,0.86145 12.7353,0.77295 C12.6468,0.68595 12.6033,0.57945 12.6033,0.45645 C12.6033,0.32745 12.6468,0.21945 12.7353,0.13245 C12.8238,0.04395 12.9288,0.00045 13.0518,0.00045 L17.5518,0.00045 Z M7.0668,10.93395 C7.1538,11.02095 7.1988,11.12895 7.1988,11.25495 C7.1988,11.38095 7.1538,11.48745 7.0668,11.57445 L1.5378,17.10345 L4.9488,17.10345 C5.0718,17.10345 5.1768,17.14695 5.2653,17.23545 C5.3523,17.32245 5.3958,17.42895 5.3958,17.55195 C5.3958,17.67495 5.3523,17.77995 5.2653,17.86845 C5.1768,17.95545 5.0718,18.00045 4.9488,18.00045 L0.4488,18.00045 C0.3258,18.00045 0.2193,17.95545 0.1323,17.86845 C0.0438,17.77995 0.0003,17.67495 0.0003,17.55195 L0.0003,13.05195 C0.0003,12.92895 0.0438,12.82245 0.1323,12.73545 C0.2193,12.64695 0.3258,12.60345 0.4488,12.60345 C0.5718,12.60345 0.6768,12.64695 0.7653,12.73545 C0.8523,12.82245 0.8958,12.92895 0.8958,13.05195 L0.8958,16.47045 L6.4338,10.93395 C6.5208,10.84545 6.6273,10.80195 6.7503,10.80195 C6.8733,10.80195 6.9783,10.84545 7.0668,10.93395 L7.0668,10.93395 Z M7.0668,6.43395 C7.1538,6.52095 7.1988,6.62895 7.1988,6.75495 C7.1988,6.88095 7.1538,6.98745 7.0668,7.07445 C7.0248,7.11645 6.9768,7.14795 6.9213,7.17195 C6.8658,7.19595 6.8088,7.20645 6.7503,7.20645 C6.6918,7.20645 6.6348,7.19595 6.5793,7.17195 C6.5223,7.14795 6.4743,7.11645 6.4338,7.07445 L0.8958,1.53795 L0.8958,4.95645 C0.8958,5.07945 0.8523,5.18595 0.7653,5.27295 C0.6768,5.36145 0.5718,5.40495 0.4488,5.40495 C0.3258,5.40495 0.2193,5.36145 0.1323,5.27295 C0.0438,5.18595 0.0003,5.07945 0.0003,4.95645 L0.0003,0.45645 C0.0003,0.32745 0.0438,0.21945 0.1323,0.13245 C0.2193,0.04395 0.3258,0.00045 0.4488,0.00045 L4.9488,0.00045 C5.0718,0.00045 5.1768,0.04395 5.2653,0.13245 C5.3523,0.21945 5.3958,0.32745 5.3958,0.45645 C5.3958,0.57945 5.3523,0.68595 5.2653,0.77295 C5.1768,0.86145 5.0718,0.90495 4.9488,0.90495 L1.5378,0.90495 L7.0668,6.43395 Z" id="Fill-1" fill="#1D1D1B" mask="url(#mask-2)"></path>
            </g>
        </g>
    </g>
</svg>