<?xml version="1.0" encoding="UTF-8"?>
<svg width="20px" height="14px" viewBox="0 0 20 14" version="1.1" xmlns="http://www.w3.org/2000/svg" xmlns:xlink="http://www.w3.org/1999/xlink">
    <title>Group 3</title>
    <defs>
        <polygon id="path-1" points="0 -0.000283333333 18.506 -0.000283333333 18.506 12.99755 0 12.99755"></polygon>
    </defs>
    <g id="Page-1" stroke="none" stroke-width="1" fill="none" fill-rule="evenodd">
        <g id="09-formationenligne-detail" transform="translate(-865.000000, -1138.000000)">
            <g id="Group-3" transform="translate(865.000000, 1138.000000)">
                <mask id="mask-2" fill="white">
                    <use xlink:href="#path-1"></use>
                </mask>
                <g id="Clip-2"></g>
                <path d="M18.3593333,6.14255 C18.4576667,6.24088333 18.506,6.35921667 18.506,6.49921667 C18.506,6.63921667 18.4576667,6.75755 18.3593333,6.85588333 L12.3526667,12.8508833 C12.3076667,12.9042167 12.2543333,12.9408833 12.1926667,12.9642167 C12.131,12.9858833 12.0676667,12.99755 12.0026667,12.99755 C11.936,12.99755 11.8726667,12.9858833 11.811,12.9642167 C11.7493333,12.9408833 11.696,12.9042167 11.651,12.8508833 C11.5526667,12.7542167 11.5043333,12.6358833 11.5043333,12.4992167 C11.5043333,12.36255 11.5526667,12.2458833 11.651,12.1492167 L16.7976667,7.00255 L0.507666667,7.00255 C0.364333333,7.00255 0.244333333,6.95255 0.146,6.85588333 C0.0493333333,6.75755 -0.000666666667,6.64088333 -0.000666666667,6.50421667 C-0.000666666667,6.36088333 0.0493333333,6.24088333 0.146,6.14255 C0.244333333,6.04421667 0.364333333,5.99588333 0.507666667,5.99588333 L16.7976667,5.99588333 L11.651,0.849216667 C11.5526667,0.75255 11.5043333,0.634216667 11.5043333,0.49755 C11.5043333,0.360883333 11.5526667,0.244216667 11.651,0.145883333 C11.7476667,0.0492166667 11.866,-0.000783333333 12.0026667,-0.000783333333 C12.1393333,-0.000783333333 12.256,0.0492166667 12.3526667,0.145883333 L18.3593333,6.14255 Z" id="Fill-1" fill="#1D1D1B" mask="url(#mask-2)"></path>
            </g>
        </g>
    </g>
</svg>