<svg
  width="24"
  height="23"
><path
      d="M22.818 9.297c.122.128.182.28.182.457 0 .178-.06.33-.182.457l-3.729 3.913a.616.616 0 01-.437.188.565.565 0 01-.236-.05.664.664 0 01-.201-.138.653.653 0 01-.183-.464.65.65 0 01.183-.464l2.671-2.794h-7.832a.59.59 0 01-.437-.19.645.645 0 01-.182-.458c0-.178.062-.33.182-.457a.582.582 0 01.437-.191h7.832l-2.671-2.794a.645.645 0 01-.183-.457c0-.178.063-.33.183-.458a.59.59 0 01.437-.19c.17 0 .317.065.437.19l3.729 3.9zM7.942 4.637l-6.63-2.972a.633.633 0 00-.073.29v15.609c0 .23.08.466.237.713.157.245.333.41.528.494l6.425 2.883a.353.353 0 00.145.039h.072c.017-.009.031-.033.044-.07a.636.636 0 00.016-.16V5.855c0-.228-.078-.466-.236-.711-.157-.245-.334-.414-.528-.508zm6.364 3.173a.599.599 0 01-.45-.189.653.653 0 01-.182-.47V1.955c0-.178-.06-.33-.182-.457a.59.59 0 00-.438-.191H3.656l4.773 2.135c.429.195.79.525 1.08.99.292.467.437.94.437 1.423v12.357h3.108c.17 0 .315-.063.438-.19a.633.633 0 00.182-.458v-5.207c0-.177.06-.33.182-.457a.6.6 0 01.45-.19.59.59 0 01.437.19c.12.128.18.28.18.457v5.207c0 .535-.18.99-.544 1.372a1.765 1.765 0 01-1.325.572H9.946v1.955c0 .28-.052.533-.158.763a1.34 1.34 0 01-.45.546c-.114.076-.23.133-.352.172-.12.036-.25.056-.387.056-.106 0-.216-.013-.33-.037a1.64 1.64 0 01-.327-.115l-6.423-2.883c-.42-.186-.78-.511-1.075-.977-.295-.466-.444-.94-.444-1.424V1.955C0 1.413.182.952.547.572A1.765 1.765 0 011.871 0h11.183c.518 0 .96.19 1.325.572.364.38.545.841.545 1.383v5.196a.66.66 0 01-.18.47.588.588 0 01-.438.189z"
      fill="currentColor"
    /></svg>
