<?xml version="1.0" encoding="UTF-8"?>
<svg width="12px" height="20px" viewBox="0 0 12 20" version="1.1" xmlns="http://www.w3.org/2000/svg" xmlns:xlink="http://www.w3.org/1999/xlink">
    <title>Group 3</title>
    <defs>
        <polygon id="path-1" points="0 -0.000166666667 10.5863333 -0.000166666667 10.5863333 19.0676667 0 19.0676667"></polygon>
    </defs>
    <g id="Page-1" stroke="none" stroke-width="1" fill="none" fill-rule="evenodd">
        <g id="03-formation-detail" transform="translate(-79.000000, -510.000000)">
            <g id="Group-3" transform="translate(79.000000, 510.000000)">
                <mask id="mask-2" fill="white">
                    <use xlink:href="#path-1"></use>
                </mask>
                <g id="Clip-2"></g>
                <path d="M5.293,8.0665 C5.42966667,8.0665 5.54633333,8.01816667 5.64466667,7.91983333 C5.743,7.82316667 5.79133333,7.70483333 5.79133333,7.56816667 L5.79133333,3.56483333 C5.79133333,3.42816667 5.743,3.30983333 5.64466667,3.21316667 C5.54633333,3.11483333 5.42966667,3.0665 5.293,3.0665 L4.28633333,3.0665 C4.14966667,3.0665 4.033,3.11483333 3.93633333,3.21316667 C3.838,3.30983333 3.78966667,3.42816667 3.78966667,3.56483333 C3.78966667,3.7015 3.838,3.81816667 3.93633333,3.9165 C4.033,4.01316667 4.14966667,4.06316667 4.28633333,4.06316667 L4.79466667,4.06316667 L4.79466667,7.56816667 C4.79466667,7.70483333 4.843,7.82316667 4.94133333,7.91983333 C5.03966667,8.01816667 5.15633333,8.0665 5.293,8.0665 L5.293,8.0665 Z M5.56633333,16.1531667 L7.793,17.6365 L7.793,10.0681667 L6.758,10.0681667 L5.293,11.1331667 L3.828,10.0681667 L2.793,10.0681667 L2.793,17.6365 L5.00966667,16.1531667 C5.09466667,16.0931667 5.188,16.0648333 5.288,16.0648333 C5.38966667,16.0648333 5.48133333,16.0931667 5.56633333,16.1531667 L5.56633333,16.1531667 Z M9.41466667,6.90483333 L8.97466667,5.5665 L9.41466667,4.22816667 L8.27133333,3.39816667 L7.84133333,2.05983333 L6.42633333,2.05983333 L5.293,1.22983333 L4.14966667,2.05983333 L2.74466667,2.05983333 L2.31466667,3.39816667 L1.17133333,4.22816667 L1.60133333,5.5665 L1.17133333,6.90483333 L2.31466667,7.73483333 L2.74466667,9.07316667 L4.14966667,9.07316667 L5.293,9.90316667 L6.42633333,9.07316667 L7.793,9.07316667 L7.793,9.06316667 L7.84133333,9.06316667 L8.27133333,7.73483333 L9.41466667,6.90483333 Z M10.5863333,3.84816667 L10.0296667,5.5665 L10.5863333,7.28483333 L9.12133333,8.34983333 L8.78966667,9.37483333 L8.78966667,18.5648333 C8.78966667,18.6565 8.76633333,18.7415 8.72133333,18.8231667 C8.67466667,18.9048333 8.60966667,18.9648333 8.52466667,19.0031667 C8.48633333,19.0231667 8.448,19.0381667 8.408,19.0481667 C8.36966667,19.0581667 8.32966667,19.0631667 8.29133333,19.0631667 C8.24466667,19.0631667 8.198,19.0565 8.14966667,19.0431667 C8.10133333,19.0298333 8.05633333,19.0098333 8.018,18.9848333 L5.293,17.1681667 L2.568,18.9848333 C2.48966667,19.0365 2.40633333,19.0648333 2.31466667,19.0681667 C2.223,19.0715 2.13466667,19.0498333 2.05133333,19.0031667 C1.973,18.9648333 1.90966667,18.9048333 1.85966667,18.8231667 C1.81133333,18.7415 1.78633333,18.6565 1.78633333,18.5648333 L1.78633333,9.37483333 L1.45466667,8.34983333 L-0.000333333333,7.28483333 L0.556333333,5.5665 L-0.000333333333,3.84816667 L1.45466667,2.78316667 L2.02133333,1.06483333 L3.828,1.06483333 L5.293,-0.000166666667 L6.758,1.06483333 L8.56466667,1.06483333 L9.12133333,2.78316667 L10.5863333,3.84816667 Z" id="Fill-1" fill="#1D1D1B" mask="url(#mask-2)"></path>
            </g>
        </g>
    </g>
</svg>