<?xml version="1.0" encoding="UTF-8"?>
<svg width="27px" height="20px" viewBox="0 0 27 20" version="1.1" xmlns="http://www.w3.org/2000/svg" xmlns:xlink="http://www.w3.org/1999/xlink">
    <title>Group 3</title>
    <defs>
        <polygon id="path-1" points="0 0 26.666 0 26.666 20 0 20"></polygon>
    </defs>
    <g id="Page-1" stroke="none" stroke-width="1" fill="none" fill-rule="evenodd">
        <g id="03-formation-detail" transform="translate(-852.000000, -575.000000)">
            <g id="Group-3" transform="translate(852.000000, 575.000000)">
                <mask id="mask-2" fill="white">
                    <use xlink:href="#path-1"></use>
                </mask>
                <g id="Clip-2"></g>
                <path d="M21.3282222,13.3333333 L21.3282222,11.3288889 C21.3282222,11.1466667 21.2637778,10.9888889 21.1326667,10.86 C21.0037778,10.7288889 20.846,10.6644444 20.6637778,10.6644444 C20.4815556,10.6644444 20.326,10.7288889 20.1948889,10.86 C20.066,10.9888889 19.9993333,11.1466667 19.9993333,11.3288889 L19.9993333,13.3333333 L17.9948889,13.3333333 C17.8126667,13.3333333 17.6571111,13.3977778 17.526,13.5288889 C17.3948889,13.6577778 17.3304444,13.8155556 17.3304444,13.9977778 C17.3304444,14.18 17.3948889,14.3355556 17.526,14.4666667 C17.6571111,14.5955556 17.8126667,14.6622222 17.9948889,14.6622222 L19.9993333,14.6622222 L19.9993333,16.6666667 C19.9993333,16.8488889 20.066,17.0044444 20.1948889,17.1355556 C20.326,17.2666667 20.4815556,17.3311111 20.6637778,17.3311111 C20.846,17.3311111 21.0037778,17.2666667 21.1326667,17.1355556 C21.2637778,17.0044444 21.3282222,16.8488889 21.3282222,16.6666667 L21.3282222,14.6622222 L23.3326667,14.6622222 C23.5148889,14.6622222 23.6726667,14.5955556 23.8015556,14.4666667 C23.9326667,14.3355556 23.9971111,14.18 23.9971111,13.9977778 C23.9971111,13.8155556 23.9326667,13.6577778 23.8015556,13.5288889 C23.6726667,13.3977778 23.5148889,13.3333333 23.3326667,13.3333333 L21.3282222,13.3333333 Z M18.8548889,9.69333333 C18.2904444,9.94222222 17.7948889,10.2755556 17.3704444,10.6955556 C16.9437778,11.1177778 16.6104444,11.6133333 16.3682222,12.18 C16.1237778,12.7488889 16.0037778,13.3555556 16.0037778,13.9977778 C16.0037778,14.64 16.1237778,15.2422222 16.3682222,15.8066667 C16.6104444,16.3711111 16.9437778,16.8666667 17.3704444,17.2911111 C17.7948889,17.7177778 18.2904444,18.0511111 18.8548889,18.2933333 C19.4193333,18.5377778 20.0215556,18.6577778 20.6637778,18.6577778 C21.306,18.6577778 21.9126667,18.5377778 22.4815556,18.2933333 C23.0482222,18.0511111 23.5437778,17.7177778 23.966,17.2911111 C24.386,16.8666667 24.7193333,16.3711111 24.9682222,15.8066667 C25.2148889,15.2422222 25.3393333,14.64 25.3393333,13.9977778 C25.3393333,13.3555556 25.2148889,12.7488889 24.9682222,12.18 C24.7193333,11.6133333 24.386,11.1177778 23.966,10.6955556 C23.5437778,10.2755556 23.0482222,9.94222222 22.4815556,9.69333333 C21.9126667,9.44666667 21.306,9.32222222 20.6637778,9.32222222 C20.0215556,9.32222222 19.4193333,9.44666667 18.8548889,9.69333333 L18.8548889,9.69333333 Z M18.3326667,19.5244444 C17.6037778,19.2088889 16.9682222,18.7777778 16.426,18.2355556 C15.8837778,17.6933333 15.4526667,17.0577778 15.1371111,16.3288889 C14.8193333,15.6 14.6615556,14.8222222 14.6615556,13.9977778 C14.6615556,13.1733333 14.8193333,12.3955556 15.1371111,11.6666667 C15.4526667,10.9377778 15.8837778,10.3022222 16.426,9.76 C16.9682222,9.21555556 17.6037778,8.78666667 18.3326667,8.47111111 C19.0615556,8.15333333 19.8393333,7.99555556 20.6637778,7.99555556 C21.4882222,7.99555556 22.266,8.15333333 22.9948889,8.47111111 C23.7237778,8.78666667 24.3593333,9.21555556 24.9015556,9.76 C25.446,10.3022222 25.8748889,10.9377778 26.1904444,11.6666667 C26.5082222,12.3955556 26.666,13.1733333 26.666,13.9977778 C26.666,14.8222222 26.5082222,15.6 26.1904444,16.3288889 C25.8748889,17.0577778 25.446,17.6933333 24.9015556,18.2355556 C24.3593333,18.7777778 23.7237778,19.2088889 22.9948889,19.5244444 C22.266,19.8422222 21.4882222,20 20.6637778,20 C19.8393333,20 19.0615556,19.8422222 18.3326667,19.5244444 L18.3326667,19.5244444 Z M13.7815556,9.24444444 C13.6993333,9.21111111 13.6282222,9.16222222 13.5682222,9.10222222 C13.3171111,8.84888889 13.0926667,8.57777778 12.8971111,8.28666667 C12.7015556,7.99777778 12.5371111,7.69111111 12.4015556,7.36888889 C12.2682222,7.04888889 12.1682222,6.71555556 12.1037778,6.37333333 C12.0371111,6.03111111 12.006,5.68222222 12.006,5.32444444 C12.006,4.59555556 12.1437778,3.90666667 12.4215556,3.25555556 C12.6993333,2.60444444 13.0793333,2.03777778 13.5615556,1.55555556 C14.0437778,1.07333333 14.6104444,0.695555556 15.2615556,0.417777778 C15.9104444,0.14 16.6015556,0 17.3304444,0 C18.0682222,0 18.7615556,0.14 19.4082222,0.417777778 C20.0548889,0.695555556 20.6193333,1.07333333 21.0993333,1.55555556 C21.5815556,2.03777778 21.9637778,2.60444444 22.246,3.25555556 C22.5282222,3.90666667 22.6704444,4.59555556 22.6704444,5.32444444 C22.6704444,5.45555556 22.666,5.58444444 22.6571111,5.70888889 C22.6482222,5.83555556 22.6348889,5.96444444 22.6171111,6.09333333 C22.5904444,6.27555556 22.5037778,6.42222222 22.3571111,6.52888889 C22.2082222,6.63777778 22.0437778,6.68 21.8615556,6.65333333 C21.6793333,6.62666667 21.5326667,6.54 21.4193333,6.39333333 C21.306,6.24666667 21.2637778,6.08 21.2882222,5.89777778 C21.306,5.80222222 21.3171111,5.70666667 21.3215556,5.61111111 C21.326,5.51555556 21.3282222,5.42 21.3282222,5.32444444 C21.3282222,4.77777778 21.2237778,4.26222222 21.0148889,3.77555556 C20.8082222,3.28888889 20.5237778,2.86444444 20.1637778,2.5 C19.8015556,2.13555556 19.3793333,1.84888889 18.8926667,1.64 C18.4082222,1.43333333 17.886,1.32888889 17.3304444,1.32888889 C16.7837778,1.32888889 16.2682222,1.43333333 15.7815556,1.64 C15.2948889,1.84888889 14.8704444,2.13555556 14.506,2.5 C14.1415556,2.86444444 13.8548889,3.28888889 13.646,3.77555556 C13.4371111,4.26222222 13.3326667,4.77777778 13.3326667,5.32444444 C13.3326667,5.86444444 13.4326667,6.37555556 13.6326667,6.86222222 C13.8326667,7.34888889 14.1237778,7.77777778 14.506,8.15111111 C14.6348889,8.28222222 14.7015556,8.44 14.7015556,8.62666667 C14.7015556,8.81333333 14.6348889,8.97111111 14.506,9.10222222 C14.4348889,9.16222222 14.3615556,9.21111111 14.2837778,9.24444444 C14.206,9.28 14.1237778,9.29777778 14.0371111,9.29777778 C13.9504444,9.29777778 13.866,9.28 13.7815556,9.24444444 L13.7815556,9.24444444 Z M9.99933333,20 C9.44377778,20 8.97044444,19.8044444 8.58155556,19.4133333 C8.19044444,19.0244444 7.99488889,18.5511111 7.99488889,17.9955556 C7.99488889,17.9422222 8.02155556,17.72 8.07266667,17.3244444 C8.126,16.9288889 8.29044444,16.4577778 8.56822222,15.9111111 C8.69711111,15.6688889 8.86822222,15.4044444 9.07488889,15.1177778 C9.28377778,14.8311111 9.54155556,14.5444444 9.85044444,14.2577778 C10.1593333,13.9711111 10.526,13.6977778 10.9504444,13.4377778 C11.3748889,13.1777778 11.8704444,12.9422222 12.4348889,12.7333333 C12.6082222,12.6733333 12.7793333,12.6822222 12.9482222,12.76 C13.1193333,12.8377778 13.2326667,12.9644444 13.2948889,13.1377778 C13.3548889,13.3111111 13.346,13.48 13.2682222,13.6466667 C13.1904444,13.8111111 13.0637778,13.9244444 12.8904444,13.9844444 C12.0304444,14.2977778 11.3615556,14.6755556 10.8793333,15.1244444 C10.3971111,15.5711111 10.0437778,16 9.81711111,16.4133333 C9.59266667,16.8244444 9.45488889,17.1822222 9.40822222,17.4866667 C9.35933333,17.7911111 9.33711111,17.96 9.33711111,17.9955556 C9.33711111,18.1777778 9.40155556,18.3333333 9.53044444,18.4644444 C9.66155556,18.5933333 9.81711111,18.6577778 9.99933333,18.6577778 L15.3393333,18.6577778 C15.5215556,18.6577778 15.6771111,18.7244444 15.8082222,18.8533333 C15.9371111,18.9844444 16.0037778,19.14 16.0037778,19.3222222 C16.0037778,19.5133333 15.9371111,19.6755556 15.8082222,19.8044444 C15.6771111,19.9355556 15.5215556,20 15.3393333,20 L9.99933333,20 Z M5.63266667,5.53333333 C5.306,5.67333333 5.02155556,5.86444444 4.77933333,6.10666667 C4.53488889,6.34888889 4.34377778,6.63333333 4.206,6.96 C4.066,7.28444444 3.99711111,7.63111111 3.99711111,7.99555556 C3.99711111,8.36 4.066,8.70444444 4.206,9.02888889 C4.34377778,9.35555556 4.53488889,9.64 4.77933333,9.88222222 C5.02155556,10.1266667 5.306,10.3177778 5.63266667,10.4555556 C5.95711111,10.5955556 6.30155556,10.6644444 6.666,10.6644444 C7.03044444,10.6644444 7.37711111,10.5955556 7.70155556,10.4555556 C8.02822222,10.3177778 8.31266667,10.1266667 8.55488889,9.88222222 C8.79711111,9.64 8.98822222,9.35555556 9.12822222,9.02888889 C9.266,8.70444444 9.33711111,8.36 9.33711111,7.99555556 C9.33711111,7.63111111 9.266,7.28444444 9.12822222,6.96 C8.98822222,6.63333333 8.79711111,6.34888889 8.55488889,6.10666667 C8.31266667,5.86444444 8.02822222,5.67333333 7.70155556,5.53333333 C7.37711111,5.39555556 7.03044444,5.32444444 6.666,5.32444444 C6.30155556,5.32444444 5.95711111,5.39555556 5.63266667,5.53333333 L5.63266667,5.53333333 Z M5.11044444,11.68 C4.62822222,11.4711111 4.206,11.1844444 3.84155556,10.82 C3.47711111,10.4555556 3.19044444,10.0333333 2.98155556,9.55111111 C2.77266667,9.06888889 2.67044444,8.55111111 2.67044444,7.99555556 C2.67044444,7.44 2.77266667,6.92 2.98155556,6.43777778 C3.19044444,5.95777778 3.47711111,5.53333333 3.84155556,5.16888889 C4.206,4.80444444 4.62822222,4.51777778 5.11044444,4.30888889 C5.59266667,4.10222222 6.11044444,3.99777778 6.666,3.99777778 C7.22155556,3.99777778 7.74155556,4.10222222 8.22377778,4.30888889 C8.70377778,4.51777778 9.12822222,4.80444444 9.49266667,5.16888889 C9.85711111,5.53333333 10.1437778,5.95777778 10.3526667,6.43777778 C10.5593333,6.92 10.6637778,7.44 10.6637778,7.99555556 C10.6637778,8.55111111 10.5593333,9.06888889 10.3526667,9.55111111 C10.1437778,10.0333333 9.85711111,10.4555556 9.49266667,10.82 C9.12822222,11.1844444 8.70377778,11.4711111 8.22377778,11.68 C7.74155556,11.8888889 7.22155556,11.9911111 6.666,11.9911111 C6.11044444,11.9911111 5.59266667,11.8888889 5.11044444,11.68 L5.11044444,11.68 Z M2.006,20 C1.45044444,20 0.977111111,19.8044444 0.586,19.4133333 C0.194888889,19.0244444 -0.000666666667,18.5511111 -0.000666666667,17.9955556 C-0.000666666667,17.9688889 0.0393333333,17.7088889 0.117111111,17.2133333 C0.194888889,16.7177778 0.450444444,16.18 0.886,15.6 C1.13711111,15.26 1.43488889,14.9577778 1.77711111,14.6933333 C2.11933333,14.4288889 2.50377778,14.2022222 2.93044444,14.0111111 C3.43266667,13.7844444 3.99933333,13.6155556 4.62822222,13.5022222 C5.25933333,13.3888889 5.93711111,13.3333333 6.666,13.3333333 L7.02377778,13.3333333 C7.14155556,13.3333333 7.25711111,13.3377778 7.37044444,13.3466667 C7.55266667,13.3555556 7.70377778,13.4288889 7.826,13.5666667 C7.94822222,13.7066667 8.00377778,13.8666667 7.99488889,14.0488889 C7.986,14.2311111 7.91488889,14.3844444 7.77933333,14.5044444 C7.646,14.6266667 7.48377778,14.6822222 7.29266667,14.6755556 C7.19711111,14.6755556 7.09488889,14.6733333 6.986,14.6688889 C6.87711111,14.6644444 6.77044444,14.6622222 6.666,14.6622222 C5.36377778,14.6622222 4.35488889,14.8288889 3.63933333,15.1622222 C2.92377778,15.4977778 2.39266667,15.8666667 2.05044444,16.2688889 C1.70822222,16.6733333 1.50155556,17.0533333 1.43266667,17.4088889 C1.36377778,17.7644444 1.32822222,17.96 1.32822222,17.9955556 C1.33711111,18.1777778 1.40377778,18.3333333 1.53044444,18.4644444 C1.65488889,18.5933333 1.81488889,18.6577778 2.006,18.6577778 L6.00377778,18.6577778 C6.186,18.6577778 6.34155556,18.7244444 6.47044444,18.8533333 C6.60155556,18.9844444 6.666,19.14 6.666,19.3222222 C6.666,19.5133333 6.60155556,19.6755556 6.47044444,19.8044444 C6.34155556,19.9355556 6.186,20 6.00377778,20 L2.006,20 Z" id="Fill-1" fill="#1D1D1B" mask="url(#mask-2)"></path>
            </g>
        </g>
    </g>
</svg>