<?xml version="1.0" encoding="UTF-8"?>
<svg width="27px" height="20px" viewBox="0 0 27 20" version="1.1" xmlns="http://www.w3.org/2000/svg" xmlns:xlink="http://www.w3.org/1999/xlink">
    <title>Group 3</title>
    <defs>
        <polygon id="path-1" points="0.000666666667 0.00106666667 26.6666667 0.00106666667 26.6666667 18.6588444 0.000666666667 18.6588444"></polygon>
    </defs>
    <g id="Page-1" stroke="none" stroke-width="1" fill="none" fill-rule="evenodd">
        <g id="03-formation-detail" transform="translate(-852.000000, -717.000000)">
            <g id="Group-3" transform="translate(852.000000, 717.000000)">
                <mask id="mask-2" fill="white">
                    <use xlink:href="#path-1"></use>
                </mask>
                <g id="Clip-2"></g>
                <path d="M15.3384444,14.6615111 C15.1473333,14.6615111 14.9873333,14.5970667 14.8562222,14.4659556 C14.7273333,14.3370667 14.6606667,14.1792889 14.6606667,13.9970667 C14.6606667,13.8148444 14.7273333,13.6592889 14.8562222,13.5281778 C14.9873333,13.3992889 15.1473333,13.3326222 15.3384444,13.3326222 L22.0051111,13.3326222 C22.1873333,13.3326222 22.3428889,13.3992889 22.474,13.5281778 C22.6051111,13.6592889 22.6695556,13.8148444 22.6695556,13.9970667 C22.6695556,14.1792889 22.6051111,14.3370667 22.474,14.4659556 C22.3428889,14.5970667 22.1873333,14.6615111 22.0051111,14.6615111 L15.3384444,14.6615111 Z M15.3384444,11.9926222 C15.1473333,11.9926222 14.9873333,11.9281778 14.8562222,11.7970667 C14.7273333,11.6659556 14.6606667,11.5104 14.6606667,11.3281778 C14.6606667,11.1459556 14.7273333,10.9904 14.8562222,10.8592889 C14.9873333,10.7281778 15.1473333,10.6637333 15.3384444,10.6637333 L20.6628889,10.6637333 C20.8473333,10.6637333 21.0028889,10.7281778 21.1317778,10.8592889 C21.2628889,10.9904 21.3273333,11.1459556 21.3273333,11.3281778 C21.3273333,11.5104 21.2628889,11.6659556 21.1317778,11.7970667 C21.0028889,11.9281778 20.8473333,11.9926222 20.6628889,11.9926222 L15.3384444,11.9926222 Z M15.3384444,9.32373333 C15.1473333,9.32373333 14.9873333,9.25706667 14.8562222,9.12817778 C14.7273333,8.99706667 14.6606667,8.84151111 14.6606667,8.65928889 C14.6606667,8.47706667 14.7273333,8.31928889 14.8562222,8.1904 C14.9873333,8.05928889 15.1473333,7.99484444 15.3384444,7.99484444 L20.6628889,7.99484444 C20.8473333,7.99484444 21.0028889,8.05928889 21.1317778,8.1904 C21.2628889,8.31928889 21.3273333,8.47706667 21.3273333,8.65928889 C21.3273333,8.84151111 21.2628889,8.99706667 21.1317778,9.12817778 C21.0028889,9.25706667 20.8473333,9.32373333 20.6628889,9.32373333 L15.3384444,9.32373333 Z M15.3384444,6.66595556 C15.1473333,6.66595556 14.9873333,6.60151111 14.8562222,6.4704 C14.7273333,6.34151111 14.6606667,6.18151111 14.6606667,5.9904 C14.6606667,5.80817778 14.7273333,5.6504 14.8562222,5.52151111 C14.9873333,5.3904 15.1473333,5.32595556 15.3384444,5.32595556 L22.0051111,5.32595556 C22.1873333,5.32595556 22.3428889,5.3904 22.474,5.52151111 C22.6051111,5.6504 22.6695556,5.80817778 22.6695556,5.9904 C22.6695556,6.18151111 22.6051111,6.34151111 22.474,6.4704 C22.3428889,6.60151111 22.1873333,6.66595556 22.0051111,6.66595556 L15.3384444,6.66595556 Z M7.05622222,5.71706667 C6.79622222,5.97706667 6.66733333,6.29262222 6.66733333,6.66595556 C6.66733333,7.0304 6.79622222,7.34373333 7.05622222,7.60373333 C7.31844444,7.86373333 7.62955556,7.99484444 7.994,7.99484444 C8.36733333,7.99484444 8.68511111,7.86373333 8.94511111,7.60373333 C9.20511111,7.34373333 9.33622222,7.0304 9.33622222,6.66595556 C9.33622222,6.29262222 9.20511111,5.97706667 8.94511111,5.71706667 C8.68511111,5.45484444 8.36733333,5.32595556 7.994,5.32595556 C7.62955556,5.32595556 7.31844444,5.45484444 7.05622222,5.71706667 L7.05622222,5.71706667 Z M10.5073333,13.3326222 C10.4895556,13.2726222 10.4651111,13.2126222 10.4295556,13.1504 L10.3251111,12.9681778 C10.1073333,12.6481778 9.80733333,12.4037333 9.42066667,12.2392889 C9.034,12.0748444 8.55844444,11.9926222 7.994,11.9926222 C7.43844444,11.9926222 6.96733333,12.0748444 6.58288889,12.2392889 C6.19622222,12.4037333 5.894,12.6481778 5.67622222,12.9681778 C5.634,13.0304 5.59622222,13.0904 5.56733333,13.1504 C5.53622222,13.2126222 5.51177778,13.2726222 5.494,13.3326222 L10.5073333,13.3326222 Z M6.95844444,9.11484444 C6.634,8.97484444 6.35177778,8.78595556 6.114,8.54817778 C5.874,8.3104 5.68511111,8.02817778 5.54733333,7.70151111 C5.40733333,7.37706667 5.33844444,7.0304 5.33844444,6.66595556 C5.33844444,6.29262222 5.40733333,5.94595556 5.54733333,5.62595556 C5.68511111,5.30373333 5.874,5.02151111 6.114,4.77928889 C6.35177778,4.53484444 6.634,4.34373333 6.95844444,4.20595556 C7.28511111,4.06595556 7.62955556,3.99706667 7.994,3.99706667 C8.36733333,3.99706667 8.71622222,4.06595556 9.03622222,4.20595556 C9.35844444,4.34373333 9.64066667,4.53484444 9.88288889,4.77928889 C10.1251111,5.02151111 10.3162222,5.30373333 10.4562222,5.62595556 C10.594,5.94595556 10.6628889,6.29262222 10.6628889,6.66595556 C10.6628889,7.0304 10.594,7.37706667 10.4562222,7.70151111 C10.3162222,8.02817778 10.1251111,8.3104 9.88288889,8.54817778 C9.64066667,8.78595556 9.35844444,8.97484444 9.03622222,9.11484444 C8.71622222,9.25262222 8.36733333,9.32373333 7.994,9.32373333 C7.62955556,9.32373333 7.28511111,9.25262222 6.95844444,9.11484444 L6.95844444,9.11484444 Z M4.66066667,14.6615111 C4.47844444,14.6615111 4.32288889,14.5970667 4.19177778,14.4659556 C4.06288889,14.3370667 3.99622222,14.1792889 3.99622222,13.9970667 C3.99622222,13.9548444 4.02066667,13.7637333 4.06955556,13.4237333 C4.11622222,13.0859556 4.26733333,12.7126222 4.51844444,12.3037333 C4.75177778,11.9304 5.13844444,11.5637333 5.67622222,11.2037333 C6.21622222,10.8437333 6.98733333,10.6637333 7.994,10.6637333 C9.00955556,10.6637333 9.78733333,10.8437333 10.3251111,11.2037333 C10.8628889,11.5637333 11.2495556,11.9304 11.4851111,12.3037333 C11.7095556,12.6704 11.8517778,13.0081778 11.9073333,13.3192889 C11.9628889,13.6326222 11.9962222,13.8415111 12.0051111,13.9459556 L12.0051111,13.9704 L12.0051111,13.9970667 C12.0051111,14.1792889 11.9406667,14.3370667 11.8095556,14.4659556 C11.6806667,14.5970667 11.5184444,14.6615111 11.3273333,14.6615111 L4.66066667,14.6615111 Z M1.52288889,1.52373333 C1.394,1.65262222 1.32733333,1.8104 1.32733333,1.99262222 L1.32733333,16.6659556 C1.32733333,16.8481778 1.394,17.0059556 1.52288889,17.1348444 C1.654,17.2659556 1.814,17.3304 2.00511111,17.3304 L24.6606667,17.3304 C24.8517778,17.3304 25.014,17.2659556 25.1428889,17.1348444 C25.274,17.0059556 25.3384444,16.8481778 25.3384444,16.6659556 L25.3384444,1.99262222 C25.3384444,1.8104 25.274,1.65262222 25.1428889,1.52373333 C25.014,1.39262222 24.8517778,1.32817778 24.6606667,1.32817778 L2.00511111,1.32817778 C1.814,1.32817778 1.654,1.39262222 1.52288889,1.52373333 L1.52288889,1.52373333 Z M2.00511111,18.6592889 C1.44955556,18.6592889 0.976222222,18.4637333 0.585111111,18.0726222 C0.196222222,17.6815111 0.000666666667,17.2126222 0.000666666667,16.6659556 L0.000666666667,1.99262222 C0.000666666667,1.44595556 0.196222222,0.977066667 0.585111111,0.585955556 C0.976222222,0.194844444 1.44955556,-0.000711111111 2.00511111,-0.000711111111 L24.6606667,-0.000711111111 C25.2162222,-0.000711111111 25.6895556,0.194844444 26.0806667,0.585955556 C26.4717778,0.977066667 26.6673333,1.44595556 26.6673333,1.99262222 L26.6673333,16.6659556 C26.6673333,17.2126222 26.4717778,17.6815111 26.0806667,18.0726222 C25.6895556,18.4637333 25.2162222,18.6592889 24.6606667,18.6592889 L2.00511111,18.6592889 Z" id="Fill-1" fill="#1D1D1B" mask="url(#mask-2)"></path>
            </g>
        </g>
    </g>
</svg>