<?xml version="1.0" encoding="UTF-8"?>
<svg width="14px" height="20px" viewBox="0 0 14 20" version="1.1" xmlns="http://www.w3.org/2000/svg" xmlns:xlink="http://www.w3.org/1999/xlink">
    <title>Group 3</title>
    <defs>
        <polygon id="path-1" points="0.0005 0.000833333333 12.9971667 0.000833333333 12.9971667 18.9941667 0.0005 18.9941667"></polygon>
    </defs>
    <g id="Page-1" stroke="none" stroke-width="1" fill="none" fill-rule="evenodd">
        <g id="08-formation-en-ligne" transform="translate(-379.000000, -679.000000)">
            <g id="Group-3" transform="translate(379.000000, 679.000000)">
                <mask id="mask-2" fill="white">
                    <use xlink:href="#path-1"></use>
                </mask>
                <g id="Clip-2"></g>
                <path d="M6.50383333,15.9961667 C6.9405,15.9961667 7.36383333,15.9761667 7.77383333,15.9378333 C8.18383333,15.8978333 8.5705,15.8495 8.9355,15.7911667 C8.60383333,15.5828333 8.29383333,15.3461667 8.00716667,15.0828333 C7.7205,14.8195 7.4605,14.5311667 7.22716667,14.2195 C7.08383333,14.0228333 6.9505,13.8211667 6.8255,13.6128333 C6.70216667,13.4045 6.5955,13.1895 6.50383333,12.9695 C6.4055,13.1895 6.29716667,13.4045 6.17716667,13.6128333 C6.0555,13.8211667 5.9205,14.0228333 5.77216667,14.2195 C5.54383333,14.5311667 5.2855,14.8195 4.9955,15.0828333 C4.7055,15.3461667 4.39383333,15.5828333 4.06216667,15.7911667 C4.43383333,15.8495 4.82216667,15.8978333 5.22883333,15.9378333 C5.6355,15.9761667 6.0605,15.9961667 6.50383333,15.9961667 L6.50383333,15.9961667 Z M10.6638333,15.5278333 C10.7755,15.5661667 10.8605,15.6311667 10.9221667,15.7228333 C10.9838333,15.8145 11.0121667,15.9145 11.0055,16.0261667 C10.9921667,16.1361667 10.9505,16.2345 10.8788333,16.3178333 C10.8071667,16.4028333 10.7188333,16.4578333 10.6155,16.4845 C10.3671667,16.5428333 10.0905,16.6011667 9.7855,16.6595 C9.47883333,16.7195 9.1505,16.7745 8.79883333,16.8261667 C8.44716667,16.8778333 8.07716667,16.9211667 7.6905,16.9528333 C7.30216667,16.9861667 6.90716667,17.0028333 6.50383333,17.0028333 C6.09383333,17.0028333 5.6955,16.9861667 5.30716667,16.9528333 C4.9205,16.9211667 4.55216667,16.8778333 4.20383333,16.8261667 C3.8555,16.7745 3.52883333,16.7195 3.22216667,16.6595 C2.91716667,16.6011667 2.6405,16.5428333 2.39216667,16.4845 C2.28216667,16.4578333 2.1905,16.4028333 2.11883333,16.3178333 C2.04716667,16.2345 2.00883333,16.1361667 2.00216667,16.0261667 C1.9955,15.9145 2.02383333,15.8145 2.0855,15.7228333 C2.14716667,15.6311667 2.2305,15.5661667 2.33383333,15.5278333 C2.9005,15.3261667 3.4105,15.0595 3.86216667,14.7261667 C4.3155,14.3945 4.69883333,14.0111667 5.01383333,13.5745 C5.3305,13.1378333 5.57383333,12.6595 5.74716667,12.1395 C5.91883333,11.6178333 6.0055,11.0711667 6.0055,10.4978333 L6.0055,7.47116667 C5.7005,7.4445 5.40383333,7.3895 5.11716667,7.3045 C4.8305,7.2195 4.5505,7.11283333 4.27716667,6.98283333 C4.15383333,6.91783333 4.0705,6.8195 4.02883333,6.6895 C3.9855,6.5595 3.99383333,6.43283333 4.05216667,6.3095 C4.11716667,6.1845 4.2155,6.10116667 4.3455,6.0545 C4.4755,6.0095 4.60216667,6.0195 4.72716667,6.0845 C5.0005,6.22116667 5.28716667,6.32283333 5.5855,6.39116667 C5.8855,6.4595 6.19216667,6.4945 6.50383333,6.4945 C6.8155,6.4945 7.1205,6.4595 7.41716667,6.39116667 C7.71383333,6.32283333 8.0005,6.22116667 8.2805,6.0845 C8.4055,6.0195 8.53216667,6.0095 8.66216667,6.0545 C8.79216667,6.10116667 8.88716667,6.1845 8.9455,6.3095 C9.0105,6.43283333 9.0205,6.5595 8.97383333,6.6895 C8.92883333,6.8195 8.84383333,6.91783333 8.7205,6.98283333 C8.45383333,7.11283333 8.1755,7.2195 7.8855,7.3045 C7.5955,7.3895 7.30216667,7.4445 7.00216667,7.47116667 L7.00216667,10.4978333 C7.00216667,11.0711667 7.08716667,11.6178333 7.2555,12.1395 C7.4255,12.6595 7.66883333,13.1378333 7.98883333,13.5745 C8.30716667,14.0111667 8.69216667,14.3945 9.1455,14.7261667 C9.59716667,15.0595 10.1038333,15.3261667 10.6638333,15.5278333 L10.6638333,15.5278333 Z M2.61716667,1.36783333 C2.03716667,1.49783333 1.63883333,1.62283333 1.4205,1.74283333 C1.20216667,1.8645 1.0705,1.9495 1.0255,2.00283333 C1.0705,2.04783333 1.20216667,2.13116667 1.4205,2.25116667 C1.63883333,2.37116667 2.03716667,2.49616667 2.61716667,2.62783333 C2.88383333,2.68616667 3.16883333,2.73783333 3.47216667,2.78283333 C3.77383333,2.8295 4.0905,2.86783333 4.41883333,2.90116667 C4.74716667,2.93283333 5.0855,2.95783333 5.43383333,2.9745 C5.78216667,2.9895 6.13883333,2.99783333 6.50383333,2.99783333 C6.86216667,2.99783333 7.21716667,2.9895 7.56883333,2.9745 C7.9205,2.95783333 8.2605,2.93283333 8.58883333,2.90116667 C8.91716667,2.86783333 9.23383333,2.8295 9.5355,2.78283333 C9.83883333,2.73783333 10.1238333,2.68616667 10.3905,2.62783333 C10.9638333,2.49616667 11.3605,2.37116667 11.5821667,2.25116667 C11.8038333,2.13116667 11.9371667,2.04783333 11.9821667,2.00283333 C11.9371667,1.9495 11.8038333,1.8645 11.5821667,1.74283333 C11.3605,1.62283333 10.9638333,1.49783333 10.3905,1.36783333 C10.1238333,1.30783333 9.83883333,1.25616667 9.5355,1.21116667 C9.23383333,1.16616667 8.91716667,1.12616667 8.58883333,1.0945 C8.2605,1.06116667 7.9205,1.03616667 7.56883333,1.02116667 C7.21716667,1.0045 6.86216667,0.996166667 6.50383333,0.996166667 C6.13883333,0.996166667 5.78216667,1.0045 5.43383333,1.02116667 C5.0855,1.03616667 4.74716667,1.06116667 4.41883333,1.0945 C4.0905,1.12616667 3.77383333,1.16616667 3.47216667,1.21116667 C3.16883333,1.25616667 2.88383333,1.30783333 2.61716667,1.36783333 L2.61716667,1.36783333 Z M8.3405,11.3078333 C8.2355,11.2761667 8.15216667,11.2161667 8.0905,11.1278333 C8.02883333,11.0395 7.99716667,10.9445 7.99716667,10.8395 L7.99716667,8.1545 C7.99716667,8.0495 8.02883333,7.9545 8.0905,7.86616667 C8.15216667,7.77783333 8.2355,7.71783333 8.3405,7.68616667 C8.82883333,7.5095 9.2805,7.27283333 9.69716667,6.97283333 C10.1138333,6.67283333 10.4788333,6.32783333 10.7905,5.93783333 C11.1038333,5.54616667 11.3605,5.11783333 11.5621667,4.64783333 C11.7638333,4.1795 11.8971667,3.69116667 11.9621667,3.1845 C11.8138333,3.2495 11.6471667,3.31283333 11.4655,3.3745 C11.2821667,3.43616667 11.0838333,3.49283333 10.8688333,3.5445 C10.5755,3.61616667 10.2605,3.6795 9.92216667,3.73616667 C9.58383333,3.79116667 9.2305,3.83783333 8.86216667,3.87783333 C8.49383333,3.91616667 8.11216667,3.94616667 7.7155,3.9645 C7.31716667,3.9845 6.91383333,3.9945 6.50383333,3.9945 C6.09383333,3.9945 5.6905,3.9845 5.29216667,3.9645 C4.8955,3.94616667 4.51383333,3.91616667 4.1455,3.87783333 C3.77716667,3.83783333 3.42383333,3.79116667 3.0855,3.73616667 C2.74716667,3.6795 2.43216667,3.61616667 2.13883333,3.5445 C1.92383333,3.49283333 1.7255,3.43616667 1.54216667,3.3745 C1.3605,3.31283333 1.19383333,3.2495 1.0455,3.1845 C1.1105,3.69116667 1.24216667,4.1795 1.4405,4.64783333 C1.63883333,5.11783333 1.8955,5.54616667 2.21216667,5.93783333 C2.52716667,6.32783333 2.89216667,6.67283333 3.3055,6.97283333 C3.71883333,7.27283333 4.17383333,7.5095 4.66716667,7.68616667 C4.7655,7.71783333 4.8455,7.77783333 4.90716667,7.86616667 C4.96883333,7.9545 5.0005,8.0495 5.0005,8.1545 L5.0005,10.8395 C5.0005,10.9445 4.96883333,11.0395 4.90716667,11.1278333 C4.8455,11.2161667 4.7655,11.2761667 4.66716667,11.3078333 C4.1205,11.5045 3.62216667,11.7745 3.16883333,12.1195 C2.71716667,12.4645 2.3305,12.8645 2.01216667,13.3211667 C1.69216667,13.7761667 1.4455,14.2745 1.26883333,14.8145 C1.09383333,15.3545 1.0055,15.9145 1.0055,16.4945 L1.0055,16.9728333 C1.0255,16.9995 1.13716667,17.0778333 1.34216667,17.2111667 C1.54716667,17.3461667 1.97216667,17.4845 2.61716667,17.6278333 C2.88383333,17.6861667 3.16883333,17.7378333 3.47216667,17.7828333 C3.77383333,17.8295 4.0905,17.8678333 4.41883333,17.9011667 C4.74716667,17.9328333 5.0855,17.9578333 5.43383333,17.9745 C5.78216667,17.9895 6.13883333,17.9978333 6.50383333,17.9978333 C6.86216667,17.9978333 7.21716667,17.9895 7.56883333,17.9745 C7.9205,17.9578333 8.2605,17.9328333 8.58883333,17.9011667 C8.91716667,17.8678333 9.23383333,17.8295 9.5355,17.7828333 C9.83883333,17.7378333 10.1238333,17.6861667 10.3905,17.6278333 C11.0355,17.4845 11.4605,17.3461667 11.6655,17.2111667 C11.8705,17.0778333 11.9821667,16.9995 12.0021667,16.9728333 L12.0021667,16.4945 C12.0021667,15.9145 11.9138333,15.3545 11.7388333,14.8145 C11.5621667,14.2745 11.3138333,13.7761667 10.9905,13.3211667 C10.6688333,12.8645 10.2838333,12.4645 9.83383333,12.1195 C9.3855,11.7745 8.88716667,11.5045 8.3405,11.3078333 L8.3405,11.3078333 Z M12.9971667,2.4995 C12.9971667,3.15783333 12.9038333,3.79283333 12.7155,4.4045 C12.5255,5.01616667 12.2555,5.5845 11.9038333,6.10783333 C11.5521667,6.63283333 11.1305,7.0995 10.6388333,7.5095 C10.1488333,7.9195 9.60216667,8.2495 9.00383333,8.49616667 L9.00383333,10.4978333 C9.60216667,10.7461667 10.1488333,11.0745 10.6388333,11.4845 C11.1305,11.8945 11.5521667,12.3611667 11.9038333,12.8861667 C12.2555,13.4095 12.5255,13.9778333 12.7155,14.5895 C12.9038333,15.2011667 12.9971667,15.8361667 12.9971667,16.4945 L12.9971667,17.0028333 C12.9971667,17.1978333 12.9388333,17.3795 12.8221667,17.5495 C12.7055,17.7178333 12.5255,17.8711667 12.2855,18.0078333 C12.1155,18.1128333 11.9121667,18.2078333 11.6755,18.2961667 C11.4371667,18.3845 11.1688333,18.4661667 10.8688333,18.5445 C10.5755,18.6161667 10.2605,18.6795 9.92216667,18.7361667 C9.58383333,18.7911667 9.2305,18.8378333 8.86216667,18.8778333 C8.49383333,18.9161667 8.11216667,18.9461667 7.7155,18.9645 C7.31716667,18.9845 6.91383333,18.9945 6.50383333,18.9945 C6.09383333,18.9945 5.6905,18.9845 5.29216667,18.9645 C4.8955,18.9461667 4.51383333,18.9161667 4.1455,18.8778333 C3.77716667,18.8378333 3.42383333,18.7911667 3.0855,18.7361667 C2.74716667,18.6795 2.43216667,18.6161667 2.13883333,18.5445 C1.83883333,18.4661667 1.5705,18.3845 1.33216667,18.2961667 C1.0955,18.2078333 0.892166667,18.1128333 0.722166667,18.0078333 C0.482166667,17.8711667 0.3005,17.7178333 0.1805,17.5495 C0.0605,17.3795 0.0005,17.1978333 0.0005,17.0028333 L0.0005,16.4945 C0.0005,15.8361667 0.0955,15.2011667 0.288833333,14.5895 C0.4805,13.9778333 0.7505,13.4095 1.09883333,12.8861667 C1.44716667,12.3611667 1.86716667,11.8945 2.35883333,11.4845 C2.8505,11.0745 3.39883333,10.7461667 4.00383333,10.4978333 L4.00383333,8.49616667 C3.39883333,8.2495 2.8505,7.9195 2.35883333,7.5095 C1.86716667,7.0995 1.44716667,6.63283333 1.09883333,6.10783333 C0.7505,5.5845 0.4805,5.01616667 0.288833333,4.4045 C0.0955,3.79283333 0.0005,3.15783333 0.0005,2.4995 L0.0005,2.00283333 C0.0005,1.80616667 0.0605,1.62283333 0.1805,1.4495 C0.3005,1.27783333 0.482166667,1.12283333 0.722166667,0.986166667 C0.892166667,0.882833333 1.0955,0.786166667 1.33216667,0.697833333 C1.5705,0.611166667 1.83883333,0.527833333 2.13883333,0.4495 C2.43216667,0.377833333 2.74716667,0.3145 3.0855,0.2595 C3.42383333,0.202833333 3.77716667,0.156166667 4.1455,0.117833333 C4.51383333,0.0778333333 4.8955,0.0495 5.29216667,0.0295 C5.6905,0.0095 6.09383333,-0.0005 6.50383333,-0.0005 C6.91383333,-0.0005 7.31716667,0.0095 7.7155,0.0295 C8.11216667,0.0495 8.49383333,0.0778333333 8.86216667,0.117833333 C9.2305,0.156166667 9.58383333,0.202833333 9.92216667,0.2595 C10.2605,0.3145 10.5755,0.377833333 10.8688333,0.4495 C11.1688333,0.527833333 11.4371667,0.611166667 11.6755,0.697833333 C11.9121667,0.786166667 12.1155,0.882833333 12.2855,0.986166667 C12.5255,1.12283333 12.7055,1.27783333 12.8221667,1.4495 C12.9388333,1.62283333 12.9971667,1.80616667 12.9971667,2.00283333 L12.9971667,2.4995 Z" id="Fill-1" fill="#1D1D1B" mask="url(#mask-2)"></path>
            </g>
        </g>
    </g>
</svg>