<?xml version="1.0" encoding="UTF-8"?>
<svg width="20px" height="20px" viewBox="0 0 20 20" version="1.1" xmlns="http://www.w3.org/2000/svg" xmlns:xlink="http://www.w3.org/1999/xlink">
    <title>Group 3</title>
    <defs>
        <polygon id="path-1" points="0 0.000166666667 19.6098333 0.000166666667 19.6098333 20 0 20"></polygon>
    </defs>
    <g id="Page-1" stroke="none" stroke-width="1" fill="none" fill-rule="evenodd">
        <g id="01-accueil" transform="translate(-75.000000, -1752.000000)">
            <g id="Group-3" transform="translate(75.000000, 1752.000000)">
                <mask id="mask-2" fill="white">
                    <use xlink:href="#path-1"></use>
                </mask>
                <g id="Clip-2"></g>
                <path d="M18.3398333,10.2735 C18.4248333,10.1035 18.4915,9.91183333 18.5398333,9.69683333 C18.5881667,9.48183333 18.6131667,9.26683333 18.6131667,9.0535 C18.6131667,8.8835 18.5965,8.7285 18.5648333,8.5885 C18.5315,8.4485 18.4865,8.3335 18.4281667,8.24183333 C18.3748333,8.15683333 18.3148333,8.09683333 18.2465,8.06183333 C18.1781667,8.02516667 18.0965,8.0085 17.9981667,8.0085 L14.5215,8.0085 C14.4298333,8.0085 14.3465,7.98516667 14.2681667,7.94016667 C14.1898333,7.8935 14.1281667,7.83183333 14.0815,7.7535 C14.0365,7.67516667 14.0148333,7.59183333 14.0181667,7.50016667 C14.0215,7.4085 14.0465,7.3235 14.0915,7.24683333 C14.6065,6.38016667 14.9898333,5.63183333 15.2448333,5.00016667 C15.4981667,4.3685 15.6648333,3.83183333 15.7415,3.3885 C15.8198333,2.94683333 15.8331667,2.59016667 15.7815,2.32016667 C15.7298333,2.0485 15.6648333,1.8385 15.5865,1.69016667 C15.4815,1.5135 15.3598333,1.37683333 15.2198333,1.28016667 C15.0798333,1.18183333 14.9415,1.1135 14.8048333,1.0735 C14.7131667,1.43183333 14.5815,1.79683333 14.4098333,2.1685 C14.2365,2.5385 14.0248333,2.91183333 13.7748333,3.28683333 C13.5231667,3.66016667 13.2348333,4.0335 12.9048333,4.40516667 C12.5765,4.77516667 12.2131667,5.14016667 11.8165,5.4985 C11.3998333,5.8685 10.9598333,6.22183333 10.4981667,6.5585 C10.0365,6.8935 9.55816667,7.20183333 9.06816667,7.48516667 C8.5765,7.7685 8.07316667,8.02683333 7.55816667,8.26183333 C7.04483333,8.49683333 6.52316667,8.6985 5.9965,8.86683333 L5.9965,17.0601667 C6.5365,17.1251667 7.0015,17.2018333 7.39316667,17.2901667 C7.78316667,17.3785 8.12316667,17.4718333 8.41316667,17.5735 C8.70316667,17.6735 8.95483333,17.7768333 9.16983333,17.8801667 C9.38483333,17.9851667 9.58983333,18.0885 9.78483333,18.1935 C9.9865,18.3035 10.1915,18.4085 10.3998333,18.5051667 C10.6081667,18.6035 10.8615,18.6901667 11.1565,18.7651667 C11.4531667,18.8401667 11.8131667,18.8985 12.2365,18.9401667 C12.6598333,18.9835 13.1831667,19.0035 13.8081667,19.0035 C14.2648333,19.0035 14.6915,18.9001667 15.0881667,18.6918333 C15.4848333,18.4835 15.6831667,18.1601667 15.6831667,17.7251667 C15.6831667,17.5885 15.7331667,17.4701667 15.8298333,17.3735 C15.9281667,17.2751667 16.0481667,17.2268333 16.1915,17.2268333 C16.2498333,17.2268333 16.3148333,17.1968333 16.3865,17.1385 C16.4581667,17.0801667 16.5298333,16.9985 16.6015,16.8951667 C16.7965,16.6151667 16.9331667,16.2968333 17.0115,15.9418333 C17.0898333,15.5868333 17.1231667,15.3318333 17.1098333,15.1751667 C17.0381667,15.1301667 16.9815,15.0701667 16.9381667,14.9951667 C16.8965,14.9201667 16.8748333,14.8401667 16.8748333,14.7551667 C16.8748333,14.6185 16.9231667,14.5018333 17.0215,14.4051667 C17.1198333,14.3068333 17.2365,14.2585 17.3731667,14.2585 C17.4181667,14.2585 17.4865,14.2168333 17.5781667,14.1351667 C17.6698333,14.0551667 17.7631667,13.9135 17.8615,13.7118333 C17.9648333,13.5085 18.0465,13.2851667 18.1048333,13.0368333 C18.1648333,12.7901667 18.1931667,12.5518333 18.1931667,12.3235 C18.1931667,12.2068333 18.1831667,12.1001667 18.1648333,12.0018333 C18.1448333,11.9051667 18.1181667,11.8268333 18.0865,11.7668333 C18.0665,11.7285 18.0465,11.7051667 18.0281667,11.6985 C18.0081667,11.6935 17.9881667,11.6901667 17.9681667,11.6901667 C17.8315,11.6901667 17.7148333,11.6401667 17.6165,11.5435 C17.5198333,11.4451667 17.4715,11.3285 17.4715,11.1918333 C17.4715,11.0551667 17.5198333,10.9368333 17.6165,10.8401667 C17.7148333,10.7418333 17.8315,10.6935 17.9681667,10.6935 C18.0015,10.6935 18.0515,10.6618333 18.1198333,10.6001667 C18.1881667,10.5385 18.2615,10.4301667 18.3398333,10.2735 L18.3398333,10.2735 Z M4.5015,18.0085 C4.63816667,18.0085 4.7565,17.9585 4.85316667,17.8618333 C4.9515,17.7635 4.99983333,17.6435 4.99983333,17.5001667 L4.99983333,8.50516667 C4.99983333,8.3685 4.9515,8.25183333 4.85316667,8.15516667 C4.7565,8.05683333 4.63816667,8.0085 4.5015,8.0085 L1.50316667,8.0085 C1.35983333,8.0085 1.23983333,8.05683333 1.14316667,8.15516667 C1.04483333,8.25183333 0.9965,8.3685 0.9965,8.50516667 L0.9965,17.5001667 C0.9965,17.6435 1.04483333,17.7635 1.14316667,17.8618333 C1.23983333,17.9585 1.35983333,18.0085 1.50316667,18.0085 L4.5015,18.0085 Z M18.9165,11.2101667 C18.9231667,11.2235 18.9298333,11.2351667 18.9348333,11.2451667 C18.9415,11.2551667 18.9481667,11.2668333 18.9548333,11.2801667 C19.0331667,11.4168333 19.0915,11.5718333 19.1315,11.7485 C19.1698333,11.9235 19.1898333,12.1151667 19.1898333,12.3235 C19.1898333,12.6235 19.1515,12.9351667 19.0765,13.2568333 C19.0015,13.5785 18.8965,13.8768333 18.7598333,14.1501667 C18.6615,14.3385 18.5581667,14.5051667 18.4465,14.6485 C18.3365,14.7918333 18.2165,14.9118333 18.0865,15.0101667 C18.0931667,15.0485 18.0965,15.0918333 18.0998333,15.1368333 C18.1031667,15.1818333 18.1048333,15.2318333 18.1048333,15.2835 C18.1048333,15.5435 18.0665,15.8335 17.9881667,16.1518333 C17.9098333,16.4718333 17.8065,16.7668333 17.6765,17.0418333 C17.5398333,17.3218333 17.3831667,17.5518333 17.2065,17.7351667 C17.0315,17.9168333 16.8465,18.0501667 16.6498333,18.1351667 C16.5981667,18.4018333 16.4931667,18.6501667 16.3331667,18.8818333 C16.1731667,19.1135 15.9698333,19.3101667 15.7231667,19.4735 C15.4681667,19.6418333 15.1781667,19.7718333 14.8481667,19.8635 C14.5198333,19.9551667 14.1731667,20.0001667 13.8081667,20.0001667 C13.1181667,20.0001667 12.5381667,19.9735 12.0648333,19.9218333 C11.5931667,19.8701667 11.1915,19.8018333 10.8598333,19.7168333 C10.5281667,19.6318333 10.2431667,19.5351667 10.0048333,19.4235 C9.7665,19.3135 9.53483333,19.1968333 9.3065,19.0718333 C8.94816667,18.8835 8.53483333,18.6968333 8.0665,18.5101667 C7.59816667,18.3251667 6.87483333,18.1735 5.89816667,18.0568333 C5.78816667,18.3301667 5.60483333,18.5568333 5.3515,18.7351667 C5.09816667,18.9151667 4.81483333,19.0035 4.5015,19.0035 L1.50316667,19.0035 C1.0865,19.0035 0.733166667,18.8568333 0.439833333,18.5651667 C0.1465,18.2718333 -0.000166666667,17.9168333 -0.000166666667,17.5001667 L-0.000166666667,8.50516667 C-0.000166666667,8.0885 0.1465,7.73516667 0.439833333,7.44183333 C0.733166667,7.1485 1.0865,7.00183333 1.50316667,7.00183333 L4.5015,7.00183333 C4.8015,7.00183333 5.0715,7.08183333 5.31316667,7.24183333 C5.55316667,7.40016667 5.7365,7.60683333 5.85983333,7.86183333 C6.33483333,7.6985 6.8065,7.51016667 7.27483333,7.29516667 C7.74483333,7.08016667 8.2015,6.84016667 8.64816667,6.57683333 C9.09316667,6.3135 9.5265,6.0285 9.9465,5.7235 C10.3665,5.41683333 10.7648333,5.09516667 11.1431667,4.75516667 C11.5398333,4.3985 11.8981667,4.0335 12.2165,3.66183333 C12.5365,3.29183333 12.8148333,2.92183333 13.0515,2.5535 C13.2898333,2.18516667 13.4815,1.8235 13.6281667,1.46516667 C13.7748333,1.10683333 13.8665,0.765166667 13.9065,0.440166667 C13.9265,0.315166667 13.9831667,0.211833333 14.0765,0.126833333 C14.1715,0.0418333333 14.2798333,0.000166666667 14.4048333,0.000166666667 C14.7231667,0.000166666667 15.0815,0.0901666667 15.4781667,0.2685 C15.8748333,0.446833333 16.2015,0.7585 16.4548333,1.20183333 C16.6315,1.5135 16.7415,1.87016667 16.7865,2.27016667 C16.8331667,2.67016667 16.8098333,3.1135 16.7181667,3.5985 C16.6281667,4.0835 16.4715,4.61183333 16.2498333,5.18016667 C16.0281667,5.75016667 15.7381667,6.35683333 15.3815,7.00183333 L17.9981667,7.00183333 C18.2715,7.00183333 18.5165,7.06183333 18.7348333,7.1835 C18.9531667,7.3035 19.1348333,7.47683333 19.2765,7.70516667 C19.3881667,7.88016667 19.4715,8.0835 19.5265,8.31016667 C19.5815,8.5385 19.6098333,8.78516667 19.6098333,9.0535 C19.6098333,9.45683333 19.5498333,9.8535 19.4281667,10.2435 C19.3081667,10.6351667 19.1381667,10.9568333 18.9165,11.2101667 L18.9165,11.2101667 Z" id="Fill-1" fill="#1D1D1B" mask="url(#mask-2)"></path>
            </g>
        </g>
    </g>
</svg>