<?xml version="1.0" encoding="UTF-8"?>
<svg width="24px" height="20px" viewBox="0 0 24 20" version="1.1" xmlns="http://www.w3.org/2000/svg" xmlns:xlink="http://www.w3.org/1999/xlink">
    <title>Group 3</title>
    <defs>
        <polygon id="path-1" points="0 -0.00036 24 -0.00036 24 19.20704 0 19.20704"></polygon>
    </defs>
    <g id="Page-1" stroke="none" stroke-width="1" fill="none" fill-rule="evenodd">
        <g id="01-accueil" transform="translate(-73.000000, -1920.000000)">
            <g id="Group-3" transform="translate(73.000000, 1920.000000)">
                <mask id="mask-2" fill="white">
                    <use xlink:href="#path-1"></use>
                </mask>
                <g id="Clip-2"></g>
                <path d="M18,12.59764 C17.836,12.59764 17.696,12.65564 17.578,12.77364 L16.804,13.55764 L16.804,9.60964 L17.028,9.60964 L18,10.31164 L18.972,9.60964 L19.196,9.60964 L19.196,13.55764 L18.422,12.77364 C18.304,12.65564 18.164,12.59764 18,12.59764 L18,12.59764 Z M16.464,5.48364 L16.688,4.79364 L17.414,4.79364 L18,4.37164 L18.586,4.79364 L19.312,4.79364 L19.536,5.48364 L20.122,5.91764 L19.898,6.59764 L20.122,7.28964 L19.536,7.72164 L19.312,8.40164 L18.586,8.40164 L18,8.83564 L17.414,8.40164 L16.688,8.40164 L16.464,7.72164 L15.878,7.28964 L16.102,6.59764 L15.878,5.91764 L16.464,5.48364 Z M20.554,4.74564 L20.18,3.59764 L18.972,3.59764 L18,2.89364 L17.028,3.59764 L15.82,3.59764 L15.446,4.74564 L14.472,5.44964 L14.836,6.59764 L14.472,7.74564 L15.446,8.46164 L15.598,8.94164 L15.598,8.97564 L15.598,8.99964 L15.598,14.99964 C15.598,15.12564 15.63,15.23764 15.698,15.33964 C15.764,15.44164 15.856,15.51564 15.972,15.56164 C16.082,15.60164 16.198,15.60964 16.318,15.58564 C16.44,15.56164 16.542,15.50764 16.628,15.42164 L18,14.05164 L19.372,15.42164 C19.434,15.48364 19.502,15.52964 19.576,15.55564 C19.65,15.58364 19.726,15.59764 19.804,15.59764 C19.844,15.59764 19.88,15.59364 19.916,15.58564 C19.952,15.57764 19.988,15.56964 20.028,15.56164 C20.144,15.51564 20.236,15.44164 20.302,15.33964 C20.37,15.23764 20.402,15.12564 20.402,14.99964 L20.402,8.99964 L20.402,8.97564 L20.402,8.94164 L20.554,8.46164 L21.528,7.74564 L21.164,6.59764 L21.528,5.44964 L20.554,4.74564 Z M4.196,15.59764 C4.032,15.59764 3.89,15.53964 3.774,15.42164 C3.656,15.30564 3.598,15.16364 3.598,14.99964 C3.598,14.83564 3.656,14.69564 3.774,14.57764 C3.89,14.46164 4.032,14.40164 4.196,14.40164 L10.196,14.40164 C10.368,14.40164 10.512,14.46164 10.628,14.57764 C10.746,14.69564 10.804,14.83564 10.804,14.99964 C10.804,15.16364 10.746,15.30564 10.628,15.42164 C10.512,15.53964 10.368,15.59764 10.196,15.59764 L4.196,15.59764 Z M4.196,13.20764 C4.032,13.20764 3.89,13.14764 3.774,13.03164 C3.656,12.91364 3.598,12.76964 3.598,12.59764 C3.598,12.43364 3.656,12.29364 3.774,12.17564 C3.89,12.05764 4.032,11.99964 4.196,11.99964 L11.402,11.99964 C11.566,11.99964 11.708,12.05764 11.824,12.17564 C11.942,12.29364 12,12.43364 12,12.59764 C12,12.76964 11.942,12.91364 11.824,13.03164 C11.708,13.14764 11.566,13.20764 11.402,13.20764 L4.196,13.20764 Z M4.196,10.80564 C4.032,10.80564 3.89,10.74564 3.774,10.62964 C3.656,10.51164 3.598,10.37164 3.598,10.20764 C3.598,10.03564 3.656,9.88964 3.774,9.77364 C3.89,9.65564 4.032,9.59764 4.196,9.59764 L11.402,9.59764 C11.566,9.59764 11.708,9.65564 11.824,9.77364 C11.942,9.88964 12,10.03564 12,10.20764 C12,10.37164 11.942,10.51164 11.824,10.62964 C11.708,10.74564 11.566,10.80564 11.402,10.80564 L4.196,10.80564 Z M4.196,8.40164 C4.032,8.40164 3.89,8.34364 3.774,8.22564 C3.656,8.10964 3.598,7.96964 3.598,7.80564 C3.598,7.63964 3.656,7.49964 3.774,7.38364 C3.89,7.26564 4.032,7.20764 4.196,7.20764 L11.402,7.20764 C11.566,7.20764 11.708,7.26564 11.824,7.38364 C11.942,7.49964 12,7.63964 12,7.80564 C12,7.96964 11.942,8.10964 11.824,8.22564 C11.708,8.34364 11.566,8.40164 11.402,8.40164 L4.196,8.40164 Z M4.196,4.80564 C4.032,4.80564 3.89,4.74564 3.774,4.62964 C3.656,4.51164 3.598,4.37164 3.598,4.20764 C3.598,4.03564 3.656,3.88964 3.774,3.77364 C3.89,3.65564 4.032,3.59764 4.196,3.59764 L11.402,3.59764 C11.566,3.59764 11.708,3.65564 11.824,3.77364 C11.942,3.88964 12,4.03564 12,4.20764 C12,4.37164 11.942,4.51164 11.824,4.62964 C11.708,4.74564 11.566,4.80564 11.402,4.80564 L4.196,4.80564 Z M1.372,1.38364 C1.254,1.49964 1.196,1.63964 1.196,1.80564 L1.196,17.40164 C1.196,17.56564 1.254,17.70764 1.372,17.82364 C1.488,17.94164 1.632,17.99964 1.804,17.99964 L22.196,17.99964 C22.368,17.99964 22.512,17.94164 22.628,17.82364 C22.746,17.70764 22.804,17.56564 22.804,17.40164 L22.804,1.80564 C22.804,1.63964 22.746,1.49964 22.628,1.38364 C22.512,1.26564 22.368,1.20764 22.196,1.20764 L1.804,1.20764 C1.632,1.20764 1.488,1.26564 1.372,1.38364 L1.372,1.38364 Z M1.804,19.20764 C1.304,19.20764 0.878,19.03164 0.528,18.67964 C0.176,18.32764 0,17.90164 0,17.40164 L0,1.80564 C0,1.30564 0.176,0.87964 0.528,0.52764 C0.878,0.17564 1.304,-0.00036 1.804,-0.00036 L22.196,-0.00036 C22.696,-0.00036 23.122,0.17564 23.472,0.52764 C23.824,0.87964 24,1.30564 24,1.80564 L24,17.40164 C24,17.90164 23.824,18.32764 23.472,18.67964 C23.122,19.03164 22.696,19.20764 22.196,19.20764 L1.804,19.20764 Z" id="Fill-1" fill="#1D1D1B" mask="url(#mask-2)"></path>
            </g>
        </g>
    </g>
</svg>