<?xml version="1.0" encoding="UTF-8"?>
<svg width="19px" height="20px" viewBox="0 0 19 20" version="1.1" xmlns="http://www.w3.org/2000/svg" xmlns:xlink="http://www.w3.org/1999/xlink">
    <title>Group 3</title>
    <defs>
        <polygon id="path-1" points="0 0.000166666667 17.0016667 0.000166666667 17.0016667 20.0045814 0 20.0045814"></polygon>
    </defs>
    <g id="Page-1" stroke="none" stroke-width="1" fill="none" fill-rule="evenodd">
        <g id="03-formation-detail" transform="translate(-856.000000, -1413.000000)">
            <g id="Group-3" transform="translate(856.000000, 1413.000000)">
                <mask id="mask-2" fill="white">
                    <use xlink:href="#path-1"></use>
                </mask>
                <g id="Clip-2"></g>
                <path d="M10.2326667,14.8191667 C10.116,14.8508333 10.026,14.9191667 9.96433333,15.0275 C9.856,15.2141667 9.686,15.3691667 9.451,15.4908333 C9.21433333,15.6125 8.97266667,15.6741667 8.72266667,15.6741667 C8.42266667,15.6741667 8.151,15.5908333 7.906,15.4275 C7.66266667,15.2625 7.48933333,15.0558333 7.38766667,14.8058333 L8.60433333,14.8058333 C8.72266667,14.8058333 8.826,14.7641667 8.911,14.6791667 C8.996,14.5941667 9.03766667,14.4908333 9.03766667,14.3725 C9.03766667,14.2541667 8.996,14.1508333 8.911,14.0658333 C8.826,13.9808333 8.72266667,13.9391667 8.60433333,13.9391667 L7.29433333,13.9391667 L7.29433333,13.0625 L8.60433333,13.0625 C8.72266667,13.0625 8.826,13.0208333 8.911,12.9358333 C8.996,12.8508333 9.03766667,12.7475 9.03766667,12.6291667 C9.03766667,12.5108333 8.996,12.4075 8.911,12.3225 C8.826,12.2375 8.72266667,12.1958333 8.60433333,12.1958333 L7.38766667,12.1958333 C7.48933333,11.9458333 7.66266667,11.7375 7.906,11.5708333 C8.151,11.4041667 8.42266667,11.3191667 8.72266667,11.3191667 C8.97266667,11.3191667 9.21433333,11.3825 9.451,11.5075 C9.686,11.6308333 9.856,11.7875 9.96433333,11.9741667 C10.026,12.0825 10.116,12.1508333 10.2326667,12.1825 C10.3493333,12.2141667 10.4576667,12.1991667 10.5593333,12.1358333 C10.6676667,12.0741667 10.7376667,11.9841667 10.7676667,11.8675 C10.7993333,11.7525 10.7843333,11.6425 10.721,11.5408333 C10.5343333,11.2175 10.256,10.9558333 9.88433333,10.7541667 C9.51266667,10.5525 9.126,10.4525 8.72266667,10.4525 C8.43433333,10.4525 8.151,10.5058333 7.87266667,10.6141667 C7.59433333,10.7225 7.34933333,10.8741667 7.13266667,11.0725 C6.96266667,11.2325 6.82266667,11.4058333 6.71266667,11.5958333 C6.601,11.7858333 6.521,11.9858333 6.46933333,12.1958333 L5.99433333,12.1958333 C5.86933333,12.1958333 5.76433333,12.2375 5.67933333,12.3225 C5.59433333,12.4075 5.551,12.5108333 5.551,12.6291667 C5.551,12.7475 5.59433333,12.8508333 5.67933333,12.9358333 C5.76433333,13.0208333 5.86933333,13.0625 5.99433333,13.0625 L6.42766667,13.0625 L6.42766667,13.9391667 L5.99433333,13.9391667 C5.86933333,13.9391667 5.76433333,13.9808333 5.67933333,14.0658333 C5.59433333,14.1508333 5.551,14.2541667 5.551,14.3725 C5.551,14.4908333 5.59433333,14.5941667 5.67933333,14.6791667 C5.76433333,14.7641667 5.86933333,14.8058333 5.99433333,14.8058333 L6.46933333,14.8058333 C6.521,15.0158333 6.601,15.2158333 6.71266667,15.4058333 C6.82266667,15.5958333 6.96266667,15.7675 7.13266667,15.9208333 C7.34933333,16.1175 7.59433333,16.2725 7.87266667,16.3825 C8.151,16.4941667 8.43433333,16.5491667 8.72266667,16.5491667 C9.126,16.5491667 9.51266667,16.4475 9.88433333,16.2425 C10.256,16.0391667 10.5343333,15.7775 10.721,15.4608333 C10.7843333,15.3525 10.7993333,15.2425 10.7676667,15.1291667 C10.7376667,15.0158333 10.6676667,14.9275 10.5593333,14.8658333 C10.4576667,14.8025 10.3493333,14.7875 10.2326667,14.8191667 L10.2326667,14.8191667 Z M5.50766667,4.99916667 C5.36433333,4.99916667 5.24433333,4.95083333 5.146,4.85416667 C5.04933333,4.75583333 4.99933333,4.63916667 4.99933333,4.5025 C4.99933333,4.36583333 5.04933333,4.2475 5.146,4.15083333 C5.24433333,4.0525 5.36433333,4.00416667 5.50766667,4.00416667 L11.5043333,4.00416667 C11.641,4.00416667 11.7576667,4.0525 11.856,4.15083333 C11.9526667,4.2475 12.0026667,4.36583333 12.0026667,4.5025 C12.0026667,4.63916667 11.9526667,4.75583333 11.856,4.85416667 C11.7576667,4.95083333 11.641,4.99916667 11.5043333,4.99916667 L5.50766667,4.99916667 Z M3.506,9.00416667 C3.36933333,9.00416667 3.25266667,8.95416667 3.15433333,8.8575 C3.056,8.75916667 3.00766667,8.6425 3.00766667,8.50583333 C3.00766667,8.36916667 3.056,8.2525 3.15433333,8.15416667 C3.25266667,8.05583333 3.36933333,8.0075 3.506,8.0075 L13.506,8.0075 C13.6426667,8.0075 13.7593333,8.05583333 13.8576667,8.15416667 C13.9543333,8.2525 14.0043333,8.36916667 14.0043333,8.50583333 C14.0043333,8.6425 13.9543333,8.75916667 13.8576667,8.8575 C13.7593333,8.95416667 13.6426667,9.00416667 13.506,9.00416667 L3.506,9.00416667 Z M3.506,7.0025 C3.36933333,7.0025 3.25266667,6.9525 3.15433333,6.85583333 C3.056,6.7575 3.00766667,6.64083333 3.00766667,6.50416667 C3.00766667,6.3675 3.056,6.24916667 3.15433333,6.1525 C3.25266667,6.05416667 3.36933333,6.00583333 3.506,6.00583333 L13.506,6.00583333 C13.6426667,6.00583333 13.7593333,6.05416667 13.8576667,6.1525 C13.9543333,6.24916667 14.0043333,6.3675 14.0043333,6.50416667 C14.0043333,6.64083333 13.9543333,6.7575 13.8576667,6.85583333 C13.7593333,6.9525 13.6426667,7.0025 13.506,7.0025 L3.506,7.0025 Z M10.6143333,18.0175 C10.6543333,18.0241667 10.6893333,18.0375 10.7226667,18.0558333 L12.4993333,18.9458333 L14.2776667,18.0558333 C14.3493333,18.0241667 14.4243333,18.0075 14.5026667,18.0075 C14.5793333,18.0075 14.6543333,18.0241667 14.726,18.0558333 L16.006,18.6908333 L16.006,1.81583333 L14.5026667,1.06416667 L12.7243333,1.9525 C12.6526667,1.98583333 12.5776667,2.0025 12.4993333,2.0025 C12.421,2.0025 12.351,1.98583333 12.2843333,1.9525 L10.5076667,1.06416667 L8.731,1.9525 C8.65933333,1.98583333 8.58433333,2.0025 8.506,2.0025 C8.42766667,2.0025 8.35266667,1.98583333 8.281,1.9525 L6.50433333,1.06416667 L4.726,1.9525 C4.65433333,1.98583333 4.57933333,2.0025 4.50266667,2.0025 C4.42433333,2.0025 4.34933333,1.98583333 4.27766667,1.9525 L2.49933333,1.06416667 L1.006,1.81583333 L1.006,18.6908333 L2.28433333,18.0558333 C2.351,18.0241667 2.421,18.0075 2.49933333,18.0075 C2.57766667,18.0075 2.65266667,18.0241667 2.72433333,18.0558333 L4.50266667,18.9458333 L6.27933333,18.0558333 C6.351,18.0241667 6.426,18.0075 6.50433333,18.0075 C6.58266667,18.0075 6.656,18.0241667 6.72766667,18.0558333 L8.506,18.9458333 L10.2826667,18.0558333 C10.316,18.0375 10.351,18.0241667 10.391,18.0175 C10.4293333,18.0108333 10.4693333,18.0075 10.5076667,18.0075 C10.541,18.0075 10.576,18.0108333 10.6143333,18.0175 L10.6143333,18.0175 Z M16.391,19.9908333 C16.356,19.9841667 16.3176667,19.9708333 16.2793333,19.9508333 L14.5026667,19.0625 L12.7243333,19.9508333 C12.6526667,19.9841667 12.5776667,19.9991667 12.4993333,19.9991667 C12.421,19.9991667 12.351,19.9841667 12.2843333,19.9508333 L10.5076667,19.0625 L8.731,19.9508333 C8.65933333,19.9841667 8.58433333,19.9991667 8.506,19.9991667 C8.42766667,19.9991667 8.35266667,19.9841667 8.281,19.9508333 L6.50433333,19.0625 L4.726,19.9508333 C4.65433333,19.9841667 4.57933333,19.9991667 4.50266667,19.9991667 C4.42433333,19.9991667 4.34933333,19.9841667 4.27766667,19.9508333 L2.49933333,19.0625 L0.722666667,19.9508333 C0.651,19.9908333 0.571,20.0075 0.482666667,20.0041667 C0.396,20.0008333 0.316,19.9775 0.244333333,19.9308333 C0.166,19.8858333 0.106,19.8258333 0.0626666667,19.7508333 C0.021,19.6758333 -0.000666666667,19.5925 -0.000666666667,19.5025 L-0.000666666667,1.50416667 C-0.000666666667,1.40583333 0.026,1.3175 0.0776666667,1.24083333 C0.129333333,1.1625 0.197666667,1.10083333 0.282666667,1.05416667 L2.28433333,0.0591666667 C2.351,0.0191666667 2.421,-0.000833333333 2.49933333,-0.000833333333 C2.57766667,-0.000833333333 2.65266667,0.0191666667 2.72433333,0.0591666667 L4.50266667,0.9475 L6.27933333,0.0591666667 C6.351,0.0191666667 6.426,-0.000833333333 6.50433333,-0.000833333333 C6.58266667,-0.000833333333 6.656,0.0191666667 6.72766667,0.0591666667 L8.506,0.9475 L10.2826667,0.0591666667 C10.3543333,0.0191666667 10.4293333,-0.000833333333 10.5076667,-0.000833333333 C10.586,-0.000833333333 10.6576667,0.0191666667 10.7226667,0.0591666667 L12.4993333,0.9475 L14.2776667,0.0591666667 C14.3493333,0.0191666667 14.4243333,-0.000833333333 14.5026667,-0.000833333333 C14.5793333,-0.000833333333 14.6543333,0.0191666667 14.726,0.0591666667 L16.7276667,1.05416667 C16.8126667,1.10083333 16.8793333,1.1625 16.9293333,1.24083333 C16.9776667,1.3175 17.0026667,1.40583333 17.0026667,1.50416667 L17.0026667,19.5025 C17.0026667,19.5925 16.981,19.6758333 16.9376667,19.7508333 C16.896,19.8258333 16.8393333,19.8858333 16.7676667,19.9308333 C16.7276667,19.9575 16.686,19.9758333 16.641,19.9858333 C16.5943333,19.9941667 16.5493333,19.9991667 16.5043333,19.9991667 C16.4643333,19.9991667 16.4276667,19.9958333 16.391,19.9908333 L16.391,19.9908333 Z" id="Fill-1" fill="#1D1D1B" mask="url(#mask-2)"></path>
            </g>
        </g>
    </g>
</svg>