<?xml version="1.0" encoding="UTF-8"?>
<svg width="20px" height="20px" viewBox="0 0 20 20" version="1.1" xmlns="http://www.w3.org/2000/svg" xmlns:xlink="http://www.w3.org/1999/xlink">
    <title>Group 3</title>
    <defs>
        <polygon id="path-1" points="0 0 19.99 0 19.99 19.9998333 0 19.9998333"></polygon>
    </defs>
    <g id="Page-1" stroke="none" stroke-width="1" fill="none" fill-rule="evenodd">
        <g id="05-contact" transform="translate(-854.000000, -754.000000)">
            <g id="Group-3" transform="translate(854.000000, 754.000000)">
                <mask id="mask-2" fill="white">
                    <use xlink:href="#path-1"></use>
                </mask>
                <g id="Clip-2"></g>
                <path d="M3.291,1.25983333 C2.966,1.42983333 2.60433333,1.6965 2.20766667,2.05983333 C1.836,2.40483333 1.54266667,2.75316667 1.32766667,3.09983333 C1.11266667,3.44816667 1.006,3.74983333 1.006,4.00316667 C1.006,5.68316667 1.471,7.40983333 2.40266667,9.18483333 C3.33266667,10.9581667 4.52433333,12.5731667 5.976,14.0281667 C7.42766667,15.4831667 9.03933333,16.6765 10.811,17.6081667 C12.581,18.5381667 14.306,19.0031667 15.986,19.0031667 C16.246,19.0031667 16.551,18.8948333 16.8993333,18.6765 C17.2476667,18.4581667 17.591,18.1648333 17.9293333,17.7931667 C18.2943333,17.3965 18.561,17.0331667 18.731,16.7048333 C18.8993333,16.3748333 18.9876667,16.1431667 18.9943333,16.0065 C18.9743333,15.9148333 18.816,15.6915 18.521,15.3365 C18.2243333,14.9815 17.7143333,14.5281667 16.9926667,13.9748333 C16.686,13.7331667 16.3943333,13.5215 16.1176667,13.3398333 C15.841,13.1581667 15.5943333,13.0048333 15.376,12.8815 C15.1576667,12.7565 14.9726667,12.6648333 14.8193333,12.6031667 C14.666,12.5415 14.5576667,12.5065 14.4926667,12.4998333 C14.486,12.5065 14.4526667,12.5298333 14.3943333,12.5681667 C14.336,12.6081667 14.251,12.6981667 14.141,12.8415 C14.0426667,12.9648333 13.9426667,13.1081667 13.8376667,13.2715 C13.7343333,13.4348333 13.6293333,13.5998333 13.526,13.7698333 C13.246,14.2248333 12.9626667,14.6331667 12.676,14.9948333 C12.3893333,15.3565 12.0543333,15.5365 11.6693333,15.5365 C11.6043333,15.5365 11.5426667,15.5315 11.4843333,15.5231667 C11.426,15.5131667 11.3676667,15.4948333 11.3093333,15.4681667 C10.651,15.2081667 9.97766667,14.8315 9.28766667,14.3365 C8.59766667,13.8415 7.94266667,13.2848333 7.32433333,12.6665 C6.706,12.0481667 6.151,11.3948333 5.65933333,10.7081667 C5.16766667,10.0215 4.78766667,9.34983333 4.521,8.6915 C4.46266667,8.53483333 4.44933333,8.33816667 4.48266667,8.09983333 C4.51433333,7.86316667 4.68766667,7.6015 4.99933333,7.31483333 C5.16266667,7.1715 5.35266667,7.02816667 5.571,6.88483333 C5.78933333,6.7415 6.00933333,6.6015 6.231,6.46483333 C6.39266667,6.3665 6.556,6.2665 6.71933333,6.1615 C6.881,6.05816667 7.02766667,5.9565 7.15766667,5.85983333 C7.301,5.7415 7.39266667,5.65483333 7.431,5.5965 C7.471,5.5365 7.491,5.50483333 7.491,5.49816667 C7.491,5.43316667 7.45766667,5.32316667 7.39266667,5.1715 C7.32766667,5.01816667 7.23266667,4.83316667 7.10933333,4.61483333 C6.986,4.3965 6.83266667,4.14983333 6.651,3.8765 C6.46766667,3.60316667 6.25933333,3.30983333 6.026,2.99816667 C5.466,2.2815 5.00933333,1.77483333 4.65766667,1.47483333 C4.306,1.17483333 4.08266667,1.01816667 3.98433333,1.0065 C3.84766667,1.0065 3.616,1.08983333 3.291,1.25983333 M14.6393333,19.9065 C14.1826667,19.8448333 13.721,19.7531667 13.2526667,19.6281667 C12.7826667,19.5048333 12.311,19.3498333 11.836,19.1648333 C11.361,18.9798333 10.8793333,18.7631667 10.391,18.5165 C9.941,18.2881667 9.496,18.0348333 9.05266667,17.7581667 C8.60933333,17.4815 8.17433333,17.1848333 7.74433333,16.8648333 C7.31433333,16.5465 6.891,16.2081667 6.47433333,15.8498333 C6.05766667,15.4915 5.65433333,15.1198333 5.26433333,14.7365 C4.87933333,14.3465 4.50766667,13.9415 4.151,13.5248333 C3.79266667,13.1081667 3.456,12.6848333 3.13933333,12.2565 C2.82433333,11.8265 2.52766667,11.3881667 2.251,10.9431667 C1.97433333,10.4965 1.72266667,10.0515 1.49433333,9.60983333 C1.246,9.1215 1.031,8.63816667 0.844333333,8.15983333 C0.659333333,7.6815 0.504333333,7.2065 0.381,6.73816667 C0.257666667,6.26983333 0.162666667,5.80816667 0.0976666667,5.3515 C0.0326666667,4.8965 -0.000666666667,4.4465 -0.000666666667,4.00316667 C-0.000666666667,3.71816667 0.0593333333,3.4365 0.176,3.15983333 C0.292666667,2.88316667 0.432666667,2.6265 0.596,2.39316667 C0.757666667,2.15816667 0.926,1.94816667 1.09933333,1.76316667 C1.271,1.5765 1.416,1.43316667 1.53266667,1.32816667 C1.696,1.1715 1.881,1.0165 2.08933333,0.859833333 C2.29766667,0.703166667 2.511,0.5615 2.72933333,0.434833333 C2.94766667,0.308166667 3.166,0.203166667 3.38433333,0.1215 C3.60266667,0.0415 3.806,-0.000166666667 3.99433333,-0.000166666667 C4.176,-0.000166666667 4.381,0.0631666667 4.60933333,0.189833333 C4.83766667,0.318166667 5.09433333,0.514833333 5.381,0.7815 C5.58933333,0.9765 5.811,1.20483333 6.04433333,1.46483333 C6.27933333,1.72483333 6.51766667,2.0115 6.75766667,2.32483333 C6.82933333,2.41483333 6.95933333,2.58983333 7.14766667,2.8465 C7.33766667,3.10316667 7.531,3.3915 7.72933333,3.7115 C7.92766667,4.02983333 8.10433333,4.3515 8.256,4.67816667 C8.40933333,5.00316667 8.486,5.27983333 8.486,5.50816667 C8.486,5.87816667 8.30933333,6.20483333 7.95433333,6.48483333 C7.59933333,6.76483333 7.19766667,7.04483333 6.74766667,7.32483333 C6.57933333,7.42816667 6.40933333,7.53483333 6.241,7.6415 C6.071,7.74983333 5.921,7.85483333 5.791,7.95983333 C5.65433333,8.06983333 5.56433333,8.15483333 5.52266667,8.21316667 C5.47933333,8.2715 5.45933333,8.30816667 5.45933333,8.31983333 C5.69266667,8.91316667 6.03766667,9.52483333 6.49433333,10.1565 C6.94933333,10.7881667 7.46266667,11.3881667 8.03266667,11.9581667 C8.60266667,12.5281667 9.20266667,13.0398333 9.83433333,13.4965 C10.466,13.9515 11.0776667,14.2998333 11.6693333,14.5415 C11.6826667,14.5348333 11.7193333,14.5115 11.7776667,14.4731667 C11.836,14.4331667 11.921,14.3465 12.031,14.2098333 C12.136,14.0781667 12.241,13.9298333 12.3493333,13.7598333 C12.456,13.5898333 12.5643333,13.4181667 12.676,13.2415 C12.9493333,12.7931667 13.226,12.3915 13.506,12.0365 C13.786,11.6815 14.1143333,11.5031667 14.4926667,11.5031667 C14.7193333,11.5031667 14.996,11.5798333 15.3226667,11.7331667 C15.6476667,11.8865 15.9676667,12.0615 16.2843333,12.2615 C16.5993333,12.4598333 16.886,12.6531667 17.1443333,12.8415 C17.401,13.0298333 17.5776667,13.1615 17.676,13.2331667 C17.981,13.4731667 18.266,13.7115 18.531,13.9448333 C18.7943333,14.1798333 19.0226667,14.4048333 19.2193333,14.6198333 C19.4793333,14.9065 19.6726667,15.1615 19.7993333,15.3865 C19.926,15.6098333 19.991,15.8165 19.991,16.0065 C19.991,16.1948333 19.9493333,16.3981667 19.8676667,16.6165 C19.786,16.8348333 19.6826667,17.0531667 19.556,17.2698333 C19.4293333,17.4881667 19.2876667,17.7015 19.131,17.9098333 C18.9743333,18.1181667 18.821,18.3048333 18.6726667,18.4665 C18.5676667,18.5848333 18.4226667,18.7281667 18.2376667,18.9015 C18.051,19.0731667 17.8393333,19.2431667 17.6026667,19.4098333 C17.3643333,19.5748333 17.1076667,19.7148333 16.831,19.8298333 C16.5543333,19.9431667 16.2726667,19.9998333 15.986,19.9998333 C15.5443333,19.9998333 15.0943333,19.9698333 14.6393333,19.9065" id="Fill-1" fill="#1D1D1B" mask="url(#mask-2)"></path>
            </g>
        </g>
    </g>
</svg>