<?xml version="1.0" encoding="UTF-8"?>
<svg width="24px" height="24px" viewBox="0 0 24 24" version="1.1" xmlns="http://www.w3.org/2000/svg" xmlns:xlink="http://www.w3.org/1999/xlink">
    <title>Group 3</title>
    <defs>
        <polygon id="path-1" points="0.0006 0.001 22.804 0.001 22.804 24 0.0006 24"></polygon>
    </defs>
    <g id="Symbols" stroke="none" stroke-width="1" fill="none" fill-rule="evenodd">
        <g id="header" transform="translate(-1148.000000, -29.000000)">
            <g id="Group-3" transform="translate(1148.000000, 29.000000)">
                <mask id="mask-2" fill="white">
                    <use xlink:href="#path-1"></use>
                </mask>
                <g id="Clip-2"></g>
                <path d="M9.3046,1.629 C8.6486,1.911 8.0766,2.295 7.5886,2.783 C7.0986,3.271 6.7126,3.843 6.4286,4.501 C6.1426,5.157 6.0006,5.859 6.0006,6.609 C6.0006,7.351 6.1426,8.051 6.4286,8.707 C6.7126,9.363 7.0986,9.935 7.5886,10.423 C8.0766,10.913 8.6486,11.297 9.3046,11.579 C9.9606,11.859 10.6606,12.001 11.4026,12.001 C12.1446,12.001 12.8446,11.859 13.5006,11.579 C14.1566,11.297 14.7286,10.913 15.2166,10.423 C15.7046,9.935 16.0926,9.363 16.3766,8.707 C16.6626,8.051 16.8046,7.351 16.8046,6.609 C16.8046,5.859 16.6626,5.157 16.3766,4.501 C16.0926,3.843 15.7046,3.271 15.2166,2.783 C14.7286,2.295 14.1566,1.911 13.5006,1.629 C12.8446,1.347 12.1446,1.207 11.4026,1.207 C10.6606,1.207 9.9606,1.347 9.3046,1.629 L9.3046,1.629 Z M8.8306,12.685 C8.0286,12.337 7.3306,11.865 6.7326,11.267 C6.1346,10.671 5.6646,9.971 5.3206,9.171 C4.9766,8.369 4.8046,7.515 4.8046,6.609 C4.8046,5.695 4.9766,4.837 5.3206,4.037 C5.6646,3.237 6.1346,2.537 6.7326,1.939 C7.3306,1.341 8.0286,0.869 8.8306,0.521 C9.6306,0.173 10.4886,0.001 11.4026,0.001 C12.3086,0.001 13.1626,0.173 13.9626,0.521 C14.7626,0.869 15.4626,1.341 16.0606,1.939 C16.6586,2.537 17.1306,3.237 17.4786,4.037 C17.8266,4.837 18.0006,5.695 18.0006,6.609 C18.0006,7.515 17.8266,8.369 17.4786,9.171 C17.1306,9.971 16.6586,10.671 16.0606,11.267 C15.4626,11.865 14.7626,12.337 13.9626,12.685 C13.1626,13.033 12.3086,13.207 11.4026,13.207 C10.4886,13.207 9.6306,13.033 8.8306,12.685 L8.8306,12.685 Z M8.4726,15.821 C7.5666,15.961 6.7386,16.171 5.9886,16.447 C5.2386,16.725 4.5686,17.071 3.9786,17.485 C3.3886,17.899 2.8866,18.375 2.4726,18.915 C2.1606,19.321 1.9186,19.719 1.7466,20.109 C1.5746,20.501 1.4466,20.849 1.3646,21.159 C1.2826,21.467 1.2346,21.717 1.2186,21.909 C1.2026,22.099 1.1946,22.199 1.1946,22.207 C1.1946,22.371 1.2546,22.511 1.3706,22.629 C1.4886,22.747 1.6326,22.805 1.8046,22.805 L21.0006,22.805 C21.1646,22.805 21.3046,22.747 21.4226,22.629 C21.5386,22.511 21.5966,22.371 21.5966,22.207 C21.5966,22.199 21.5906,22.099 21.5746,21.909 C21.5586,21.717 21.5106,21.467 21.4286,21.159 C21.3466,20.849 21.2206,20.501 21.0526,20.109 C20.8846,19.719 20.6446,19.321 20.3326,18.915 C19.9186,18.375 19.4166,17.899 18.8266,17.485 C18.2366,17.071 17.5646,16.725 16.8106,16.447 C16.0566,16.171 15.2286,15.961 14.3266,15.821 C13.4246,15.679 12.4486,15.609 11.4026,15.609 C10.3546,15.609 9.3786,15.679 8.4726,15.821 L8.4726,15.821 Z M1.8046,24.001 C1.3046,24.001 0.8786,23.825 0.5266,23.473 C0.1766,23.121 0.0006,22.699 0.0006,22.207 C0.0006,22.183 0.0086,22.055 0.0226,21.821 C0.0386,21.587 0.0946,21.285 0.1866,20.919 C0.2806,20.551 0.4286,20.135 0.6266,19.671 C0.8266,19.205 1.1046,18.731 1.4646,18.247 C1.6826,17.965 1.9186,17.697 2.1686,17.443 C2.4186,17.189 2.6846,16.951 2.9706,16.729 C3.2566,16.505 3.5606,16.299 3.8846,16.107 C4.2086,15.917 4.5506,15.743 4.9106,15.587 C5.3466,15.391 5.8126,15.219 6.3046,15.071 C6.7966,14.921 7.3146,14.799 7.8566,14.701 C8.4006,14.603 8.9666,14.529 9.5566,14.479 C10.1466,14.427 10.7626,14.403 11.4026,14.403 C12.0346,14.403 12.6486,14.427 13.2426,14.479 C13.8366,14.529 14.4026,14.603 14.9406,14.701 C15.4806,14.799 15.9966,14.921 16.4886,15.071 C16.9806,15.219 17.4446,15.391 17.8826,15.587 C18.2426,15.743 18.5846,15.917 18.9086,16.107 C19.2326,16.299 19.5386,16.505 19.8286,16.729 C20.1166,16.951 20.3866,17.189 20.6366,17.443 C20.8866,17.697 21.1166,17.965 21.3286,18.247 C21.6946,18.731 21.9766,19.205 22.1726,19.671 C22.3666,20.135 22.5126,20.551 22.6046,20.919 C22.6986,21.285 22.7566,21.587 22.7746,21.821 C22.7946,22.055 22.8046,22.183 22.8046,22.207 C22.8046,22.699 22.6286,23.121 22.2766,23.473 C21.9266,23.825 21.5006,24.001 21.0006,24.001 L1.8046,24.001 Z" id="Fill-1" fill="#1D1D1B" mask="url(#mask-2)"></path>
            </g>
        </g>
    </g>
</svg>