<svg
  width="12"
  height="20"
><path
      d="M5.22 4.16a2.003 2.003 0 00-1.07 2.622c.105.245.248.457.43.635.183.18.396.322.64.43.243.106.503.161.776.161.274 0 .532-.054.777-.161a2.12 2.12 0 00.638-.43c.184-.178.327-.39.43-.635.105-.244.157-.503.157-.777a1.981 1.981 0 00-.587-1.415 1.978 1.978 0 00-.638-.43 1.977 1.977 0 00-.777-.157c-.273 0-.533.054-.776.157m-.39 4.61a3.013 3.013 0 01-1.832-2.765c0-.417.078-.806.235-1.171.155-.364.37-.682.643-.952.274-.27.592-.484.954-.64.36-.157.75-.233 1.166-.233a2.9 2.9 0 011.167.233c.362.156.678.37.952.64.273.27.488.588.645.951.156.365.235.755.235 1.172 0 .412-.079.798-.235 1.163A3.045 3.045 0 017.163 8.77c-.362.155-.75.234-1.167.234-.416 0-.806-.079-1.166-.234m-.777-7.373a5.031 5.031 0 00-1.587 1.068 5.08 5.08 0 00-1.075 1.592 4.86 4.86 0 00-.395 1.948c0 .815.084 1.632.249 2.452.166.82.38 1.616.64 2.388.26.772.548 1.507.865 2.207.315.7.63 1.333.941 1.9.222.423.444.822.664 1.195a34.251 34.251 0 001.196 1.885c.174.252.322.462.445.63.124-.175.272-.389.444-.64.173-.25.36-.534.561-.848.202-.317.415-.664.64-1.04.225-.379.449-.776.669-1.192.306-.574.62-1.209.938-1.905.318-.697.607-1.43.865-2.202a20.26 20.26 0 00.633-2.383c.167-.817.25-1.632.25-2.447a4.86 4.86 0 00-.395-1.948 5.138 5.138 0 00-1.075-1.592A5.031 5.031 0 007.94 1.397a4.872 4.872 0 00-1.944-.392c-.69 0-1.338.132-1.943.392m1.723 18.555a.492.492 0 01-.171-.137c-.012-.02-.102-.138-.269-.357-.165-.218-.378-.52-.638-.903-.262-.385-.555-.84-.885-1.368a32.854 32.854 0 01-1.587-2.885 27.582 27.582 0 01-.961-2.217c-.14-.362-.269-.718-.385-1.07-.144-.448-.272-.89-.382-1.323C.388 9.26.295 8.834.22 8.414A13.494 13.494 0 010 6.006c0-.828.156-1.604.468-2.334a6.054 6.054 0 011.285-1.909A6.095 6.095 0 013.661.474 5.83 5.83 0 015.996 0C6.823 0 7.601.16 8.33.473a6.021 6.021 0 013.193 3.198c.313.73.468 1.507.468 2.334a13.837 13.837 0 01-.218 2.408c-.075.42-.168.847-.278 1.279a24.07 24.07 0 01-.382 1.323c-.117.352-.245.708-.385 1.07-.14.362-.29.727-.45 1.098-.16.372-.33.744-.512 1.119-.183.375-.375.75-.576 1.128-.345.643-.682 1.23-1.012 1.757-.328.528-.623.983-.883 1.368-.26.384-.474.685-.64.904l-.269.356a.471.471 0 01-.17.137.517.517 0 01-.44 0"
      fill="currentColor"
    /></svg>
