<svg
  width="19"
  height="20"
><path
      d="M8.316 2.969a.514.514 0 01-.273-.273.548.548 0 010-.387.393.393 0 01.11-.16.51.51 0 01.352-.147.485.485 0 01.352.147.485.485 0 01.147.352.49.49 0 01-.038.195.679.679 0 01-.109.166.508.508 0 01-.351.145.472.472 0 01-.19-.038zm3.628 1.035a1.223 1.223 0 00-.635-.792 1.698 1.698 0 00-.547-.175l-.263-.03a.48.48 0 01-.352-.145.49.49 0 01-.146-.361c0-.41-.147-.762-.44-1.055a1.439 1.439 0 00-1.056-.44c-.416 0-.771.146-1.063.44-.293.293-.44.645-.44 1.055a.49.49 0 01-.146.361.483.483 0 01-.352.145c-.338.04-.605.108-.8.205a1.172 1.172 0 00-.635.792h6.875zM4.502 5a.485.485 0 01-.351-.147.478.478 0 01-.147-.352c0-.502.11-.941.327-1.318.218-.379.536-.67.953-.879.136-.065.27-.12.4-.161.13-.044.25-.074.361-.094.052-.286.152-.554.302-.804.15-.252.333-.469.547-.655.215-.185.462-.33.738-.434C7.91.052 8.201 0 8.505 0c.307 0 .597.052.87.157a2.496 2.496 0 011.284 1.089c.146.25.25.518.308.804.103.02.223.05.357.094.133.042.268.096.405.161.41.209.723.497.942.869.218.372.331.803.336 1.298v.03A.497.497 0 0112.5 5H4.503zm-.996 12.001a.478.478 0 01-.352-.146.485.485 0 01-.147-.352c0-.137.05-.254.147-.352a.485.485 0 01.352-.146h5c.136 0 .255.05.351.146a.478.478 0 01.147.352.478.478 0 01-.147.351.476.476 0 01-.351.147h-5zm0-2.001a.485.485 0 01-.352-.147.485.485 0 01-.147-.352c0-.136.05-.253.147-.352a.478.478 0 01.352-.146h10c.136 0 .255.048.351.146a.478.478 0 01.147.352.478.478 0 01-.147.352.482.482 0 01-.351.147h-10zm0-1.994a.497.497 0 01-.498-.507c0-.136.05-.255.146-.351a.478.478 0 01.352-.147h10c.136 0 .255.048.351.147a.476.476 0 01.147.352.49.49 0 01-.147.361.48.48 0 01-.351.145h-10zm0-2.002a.478.478 0 01-.352-.146.482.482 0 01-.147-.352.49.49 0 01.147-.36.478.478 0 01.352-.146h7.998c.136 0 .253.048.351.146a.484.484 0 01.147.36.476.476 0 01-.147.352.478.478 0 01-.351.146H3.506zm0-2.998a.497.497 0 01-.498-.507c0-.136.05-.255.146-.351a.478.478 0 01.352-.147h10c.136 0 .255.049.351.147a.476.476 0 01.147.351.49.49 0 01-.147.362.48.48 0 01-.351.145h-10zM1.504 20a1.45 1.45 0 01-1.065-.44A1.444 1.444 0 010 18.507V4.502c0-.41.147-.761.439-1.055a1.45 1.45 0 011.065-.44H2.5a.497.497 0 01.506.498.48.48 0 01-.145.352.49.49 0 01-.361.147h-.997a.478.478 0 00-.352.147.485.485 0 00-.146.351v14.004c0 .136.05.255.146.351a.478.478 0 00.352.147h14.003a.476.476 0 00.352-.147.476.476 0 00.147-.351V4.502a.478.478 0 00-.147-.351.476.476 0 00-.352-.147h-1.005a.478.478 0 01-.352-.147.476.476 0 01-.146-.352c0-.136.048-.253.146-.351a.485.485 0 01.352-.147h1.005c.412 0 .762.147 1.055.44.293.293.44.645.44 1.055v14.004c0 .41-.146.761-.44 1.055-.293.293-.643.44-1.055.44H1.504z"
      fill="currentColor"
    /></svg>
