<svg
  width="12"
  height="20"
><path
      d="M5.293 8.066a.478.478 0 00.352-.146.476.476 0 00.146-.352V3.565a.476.476 0 00-.146-.352.478.478 0 00-.352-.147H4.286a.472.472 0 00-.35.147.476.476 0 00-.146.352c0 .136.048.253.146.352a.478.478 0 00.35.146h.509v3.505c0 .137.048.255.146.352a.478.478 0 00.352.146zm.273 8.087l2.227 1.484v-7.569H6.758l-1.465 1.065-1.465-1.065H2.793v7.569l2.217-1.484a.472.472 0 01.278-.088c.102 0 .193.028.278.088zm3.849-9.248l-.44-1.339.44-1.338-1.144-.83-.43-1.338H6.426l-1.133-.83-1.143.83H2.745l-.43 1.338-1.144.83.43 1.338-.43 1.339 1.144.83.43 1.338H4.15l1.143.83 1.133-.83h1.367v-.01h.048l.43-1.328 1.144-.83zm1.171-3.057l-.556 1.718.556 1.719L9.121 8.35 8.79 9.375v9.19a.525.525 0 01-.069.258.42.42 0 01-.196.18.527.527 0 01-.234.06.528.528 0 01-.273-.078l-2.725-1.817-2.725 1.817a.483.483 0 01-.517.018.497.497 0 01-.265-.438v-9.19L1.455 8.35 0 7.285l.556-1.719L0 3.848l1.455-1.065.566-1.718h1.807L5.293 0l1.465 1.065h1.807l.556 1.718 1.465 1.065z"
      fill="currentColor"
    /></svg>
