<svg
  width="20"
  height="20"
><path
      d="M3.291 1.26c-.325.17-.687.436-1.083.8a5.134 5.134 0 00-.88 1.04c-.215.348-.322.65-.322.903 0 1.68.465 3.407 1.397 5.182a19.95 19.95 0 003.573 4.843 19.859 19.859 0 004.835 3.58c1.77.93 3.495 1.395 5.175 1.395.26 0 .565-.108.913-.326a5.004 5.004 0 001.03-.884c.365-.396.632-.76.802-1.088.168-.33.257-.562.263-.698-.02-.092-.178-.316-.473-.67-.297-.355-.807-.809-1.528-1.362a13.306 13.306 0 00-1.617-1.093 4.636 4.636 0 00-.557-.279 1.448 1.448 0 00-.326-.103c-.007.007-.04.03-.099.068-.058.04-.143.13-.253.274a5.23 5.23 0 00-.303.43c-.104.163-.209.328-.312.498-.28.455-.563.863-.85 1.225-.287.362-.622.542-1.007.542-.065 0-.126-.006-.185-.014a.708.708 0 01-.175-.055c-.658-.26-1.331-.636-2.021-1.132a15.8 15.8 0 01-1.964-1.67 15.671 15.671 0 01-1.665-1.958 9.837 9.837 0 01-1.138-2.017c-.058-.156-.072-.353-.038-.591.031-.237.205-.498.516-.785.164-.144.354-.287.572-.43.218-.143.438-.284.66-.42.162-.098.325-.199.488-.303.162-.104.309-.205.439-.302a1.54 1.54 0 00.273-.264c.04-.06.06-.091.06-.098 0-.065-.033-.175-.098-.327a5.724 5.724 0 00-.284-.556 12.197 12.197 0 00-.458-.739 20.89 20.89 0 00-.625-.878c-.56-.717-1.017-1.223-1.368-1.523-.352-.3-.575-.457-.674-.469-.136 0-.368.084-.693.254m11.348 18.647a11.16 11.16 0 01-1.386-.279c-.47-.123-.942-.278-1.417-.463a16.462 16.462 0 01-2.783-1.407 19.326 19.326 0 01-1.309-.893c-.43-.318-.853-.657-1.27-1.015-.416-.358-.82-.73-1.21-1.114a23.206 23.206 0 01-2.125-2.48A19.803 19.803 0 011.494 9.61a16.135 16.135 0 01-.65-1.45C.66 7.682.504 7.207.381 6.74A12.19 12.19 0 01.098 5.35a9.533 9.533 0 01-.099-1.348c0-.285.06-.567.177-.843.117-.277.257-.534.42-.767a6.64 6.64 0 01.937-1.065A6.45 6.45 0 012.73.435c.218-.127.436-.232.654-.314.219-.08.422-.121.61-.121.182 0 .387.063.615.19.229.128.485.325.772.591a13.773 13.773 0 011.377 1.543c.071.09.201.266.39.522.19.257.383.546.581.865.199.319.375.64.527.967.153.325.23.602.23.83 0 .37-.177.697-.532.977-.355.28-.756.56-1.206.84-.169.103-.339.21-.507.316-.17.109-.32.214-.45.319-.137.11-.227.195-.268.253a.331.331 0 00-.064.107c.234.593.579 1.205 1.035 1.836.455.632.969 1.232 1.539 1.802.57.57 1.17 1.082 1.801 1.538a8.986 8.986 0 001.835 1.045c.014-.006.05-.03.109-.068a1.43 1.43 0 00.253-.263c.105-.132.21-.28.318-.45l.327-.518c.273-.449.55-.85.83-1.206.28-.354.608-.533.987-.533.226 0 .503.077.83.23.325.153.645.329.961.528.315.199.602.392.86.58l.532.392c.305.24.59.478.855.712.263.235.492.46.688.675.26.287.454.542.58.767.127.223.192.43.192.62 0 .188-.042.391-.123.61a4.232 4.232 0 01-.312.653 7.452 7.452 0 01-.883 1.197c-.105.118-.25.261-.435.434a6.274 6.274 0 01-.635.509 4.145 4.145 0 01-.772.42 2.21 2.21 0 01-.845.17c-.442 0-.892-.03-1.347-.093"
      fill="currentColor"
    /></svg>
