<svg width="24" height="24"><path
    d="M9.305 1.629a5.435 5.435 0 00-1.716 1.154 5.437 5.437 0 00-1.16 1.718A5.214 5.214 0 006 6.609c0 .742.142 1.442.428 2.098a5.45 5.45 0 001.16 1.716c.488.49 1.06.874 1.716 1.156.656.28 1.356.422 2.098.422.742 0 1.442-.142 2.098-.422a5.407 5.407 0 001.716-1.156 5.485 5.485 0 001.16-1.716 5.194 5.194 0 00.428-2.098c0-.75-.142-1.452-.428-2.108a5.47 5.47 0 00-1.16-1.718A5.435 5.435 0 0013.5 1.629a5.257 5.257 0 00-2.098-.422c-.742 0-1.442.14-2.098.422zM8.83 12.685a6.619 6.619 0 01-3.51-3.514 6.43 6.43 0 01-.516-2.562c0-.914.172-1.772.516-2.572.344-.8.814-1.5 1.412-2.098A6.711 6.711 0 018.83.521c.8-.348 1.658-.52 2.572-.52.906 0 1.76.172 2.56.52.8.348 1.5.82 2.098 1.418a6.734 6.734 0 011.418 2.098c.348.8.522 1.658.522 2.572 0 .906-.174 1.76-.522 2.562-.348.8-.82 1.5-1.418 2.096a6.734 6.734 0 01-2.098 1.418 6.35 6.35 0 01-2.56.522 6.38 6.38 0 01-2.572-.522zm-.358 3.136c-.906.14-1.734.35-2.484.626-.75.278-1.42.624-2.01 1.038-.59.414-1.092.89-1.506 1.43a5.856 5.856 0 00-.726 1.194c-.172.392-.3.74-.382 1.05a4.504 4.504 0 00-.17 1.048c0 .164.06.304.176.422a.588.588 0 00.434.176H21a.574.574 0 00.422-.176.58.58 0 00.174-.422 4.504 4.504 0 00-.168-1.048 7.747 7.747 0 00-.376-1.05 5.641 5.641 0 00-.72-1.194 6.802 6.802 0 00-1.506-1.43 8.775 8.775 0 00-2.016-1.038 13.035 13.035 0 00-2.484-.626 18.85 18.85 0 00-2.924-.212c-1.048 0-2.024.07-2.93.212zm-6.668 8.18c-.5 0-.926-.176-1.278-.528A1.733 1.733 0 010 22.207c0-.024.008-.152.022-.386a5.41 5.41 0 01.164-.902 8.79 8.79 0 01.44-1.248c.2-.466.478-.94.838-1.424a8.96 8.96 0 01.704-.804 8.526 8.526 0 011.716-1.336c.324-.19.666-.364 1.026-.52.436-.196.902-.368 1.394-.516.492-.15 1.01-.272 1.552-.37a18.3 18.3 0 011.7-.222c.59-.052 1.206-.076 1.846-.076.632 0 1.246.024 1.84.076.594.05 1.16.124 1.698.222.54.098 1.056.22 1.548.37.492.148.956.32 1.394.516a9.033 9.033 0 011.946 1.142 7.895 7.895 0 011.5 1.518c.366.484.648.958.844 1.424.194.464.34.88.432 1.248.094.366.152.668.17.902.02.234.03.362.03.386 0 .492-.176.914-.528 1.266-.35.352-.776.528-1.276.528H1.805z"
    fill="currentColor"
  /></svg>
